<svg xmlns="http://www.w3.org/2000/svg" viewBox="0 0 725.96 308.42"><defs><style>.cls-1{fill:#231f20;}</style></defs><g id="Layer_2" data-name="Layer 2"><g id="Layer_2-2" data-name="Layer 2"><path class="cls-1" d="M10.42,208h0A10.41,10.41,0,0,0,20.83,197.6V113.37A10.41,10.41,0,0,0,10.42,103h0A10.41,10.41,0,0,0,0,113.37V197.6A10.41,10.41,0,0,0,10.42,208Z"/><path class="cls-1" d="M45.67,186.26h0a10.41,10.41,0,0,0,10.42-10.41V127.59a10.42,10.42,0,0,0-10.42-10.42h0a10.42,10.42,0,0,0-10.41,10.42v48.26A10.41,10.41,0,0,0,45.67,186.26Z"/><path class="cls-1" d="M80.93,263.19h0a10.42,10.42,0,0,0,10.42-10.42V63.48A10.42,10.42,0,0,0,80.93,53.07h0A10.42,10.42,0,0,0,70.51,63.48V252.77A10.42,10.42,0,0,0,80.93,263.19Z"/><path class="cls-1" d="M116.19,219.18h0a10.41,10.41,0,0,0,10.41-10.41V10.42A10.41,10.41,0,0,0,116.19,0h0a10.41,10.41,0,0,0-10.42,10.42V208.77A10.41,10.41,0,0,0,116.19,219.18Z"/><path class="cls-1" d="M151.44,308.42h0A10.41,10.41,0,0,0,161.86,298V102.2a10.41,10.41,0,0,0-10.42-10.42h0A10.41,10.41,0,0,0,141,102.2V298A10.41,10.41,0,0,0,151.44,308.42Z"/><path class="cls-1" d="M186.7,271.27h0a10.43,10.43,0,0,0,10.42-10.42V46.11A10.42,10.42,0,0,0,186.7,35.69h0a10.42,10.42,0,0,0-10.42,10.42V260.85A10.43,10.43,0,0,0,186.7,271.27Z"/><path class="cls-1" d="M222,186.26h0a10.41,10.41,0,0,0,10.41-10.41V120A10.42,10.42,0,0,0,222,109.59h0A10.42,10.42,0,0,0,211.54,120v55.84A10.41,10.41,0,0,0,222,186.26Z"/><path class="cls-1" d="M257.21,208h0a10.41,10.41,0,0,0,10.42-10.41V113.37A10.41,10.41,0,0,0,257.21,103h0a10.41,10.41,0,0,0-10.41,10.42V197.6A10.41,10.41,0,0,0,257.21,208Z"/><path class="cls-1" d="M292.47,186.26h0a10.42,10.42,0,0,0,10.42-10.41V127.59a10.43,10.43,0,0,0-10.42-10.42h0a10.43,10.43,0,0,0-10.42,10.42v48.26A10.42,10.42,0,0,0,292.47,186.26Z"/><path class="cls-1" d="M327.73,263.19h0a10.41,10.41,0,0,0,10.41-10.42V63.48a10.41,10.41,0,0,0-10.41-10.41h0a10.41,10.41,0,0,0-10.42,10.41V252.77A10.41,10.41,0,0,0,327.73,263.19Z"/><path class="cls-1" d="M363,219.18h0a10.42,10.42,0,0,0,10.42-10.41V10.42A10.42,10.42,0,0,0,363,0h0a10.41,10.41,0,0,0-10.41,10.42V208.77A10.41,10.41,0,0,0,363,219.18Z"/><path class="cls-1" d="M398.24,308.42h0A10.42,10.42,0,0,0,408.66,298V102.2a10.42,10.42,0,0,0-10.42-10.42h0a10.42,10.42,0,0,0-10.42,10.42V298A10.42,10.42,0,0,0,398.24,308.42Z"/><path class="cls-1" d="M433.49,271.27h0a10.42,10.42,0,0,0,10.42-10.42V46.11a10.41,10.41,0,0,0-10.42-10.42h0a10.41,10.41,0,0,0-10.41,10.42V260.85A10.42,10.42,0,0,0,433.49,271.27Z"/><path class="cls-1" d="M468.75,186.26h0a10.42,10.42,0,0,0,10.42-10.41V120a10.43,10.43,0,0,0-10.42-10.42h0A10.43,10.43,0,0,0,458.33,120v55.84A10.42,10.42,0,0,0,468.75,186.26Z"/><path class="cls-1" d="M504,208h0a10.41,10.41,0,0,0,10.41-10.41V113.37A10.41,10.41,0,0,0,504,103h0a10.41,10.41,0,0,0-10.42,10.42V197.6A10.41,10.41,0,0,0,504,208Z"/><path class="cls-1" d="M539.26,186.26h0a10.41,10.41,0,0,0,10.42-10.41V127.59a10.42,10.42,0,0,0-10.42-10.42h0a10.42,10.42,0,0,0-10.41,10.42v48.26A10.41,10.41,0,0,0,539.26,186.26Z"/><path class="cls-1" d="M574.52,263.19h0a10.42,10.42,0,0,0,10.42-10.42V63.48a10.42,10.42,0,0,0-10.42-10.41h0A10.42,10.42,0,0,0,564.1,63.48V252.77A10.42,10.42,0,0,0,574.52,263.19Z"/><rect class="cls-1" x="599.36" width="20.83" height="219.18" rx="10.42"/><path class="cls-1" d="M645,308.42h0A10.41,10.41,0,0,0,655.45,298V102.2A10.41,10.41,0,0,0,645,91.78h0a10.41,10.41,0,0,0-10.41,10.42V298A10.41,10.41,0,0,0,645,308.42Z"/><path class="cls-1" d="M680.29,271.27h0a10.43,10.43,0,0,0,10.42-10.42V46.11a10.42,10.42,0,0,0-10.42-10.42h0a10.42,10.42,0,0,0-10.42,10.42V260.85A10.43,10.43,0,0,0,680.29,271.27Z"/><path class="cls-1" d="M705.13,120v55.84a10.41,10.41,0,0,0,10.42,10.41h0A10.41,10.41,0,0,0,726,175.85V120a10.42,10.42,0,0,0-10.41-10.42h0A10.42,10.42,0,0,0,705.13,120Z"/></g></g></svg>