<svg xmlns="http://www.w3.org/2000/svg" xmlns:xlink="http://www.w3.org/1999/xlink" viewBox="0 0 20.9 41.65"><defs><style>.cls-1{fill:none;}.cls-2{isolation:isolate;}.cls-3{fill:#fff;}.cls-4{fill:#653624;}.cls-5{fill:url(#linear-gradient);}.cls-6{fill:url(#linear-gradient-2);}.cls-7{fill:#f3d1bb;}.cls-11,.cls-17,.cls-18,.cls-7,.cls-9{mix-blend-mode:multiply;}.cls-8,.cls-9{fill:#aa2d2d;}.cls-10{fill:#f26a60;}.cls-11{fill:#ebebec;}.cls-12{fill:#d98b44;}.cls-13{clip-path:url(#clip-path);}.cls-14{fill:#3165b0;}.cls-15{fill:#000e30;}.cls-16{clip-path:url(#clip-path-2);}.cls-17,.cls-18{opacity:0.6;}.cls-17{fill:url(#linear-gradient-3);}.cls-18{fill:url(#linear-gradient-4);}</style><linearGradient id="linear-gradient" x1="9.49" y1="36.84" x2="9.49" y2="5.49" gradientUnits="userSpaceOnUse"><stop offset="0" stop-color="#ffe050"/><stop offset="1" stop-color="#fcca2e"/></linearGradient><linearGradient id="linear-gradient-2" x1="9.04" y1="5.49" x2="9.04" y2="34.32" xlink:href="#linear-gradient"/><clipPath id="clip-path"><path class="cls-1" d="M12.83,6.23a3.52,3.52,0,0,1,.32-1.63,1.1,1.1,0,0,1,.39-.44c.8-.51,1.69.16,2,.89a2.26,2.26,0,0,1,.06,2,1.4,1.4,0,0,1-.34.42,2.59,2.59,0,0,0-.79.24,3.08,3.08,0,0,1-.61-.07,1.24,1.24,0,0,1-.78-.41A2.26,2.26,0,0,1,12.83,6.23Z"/></clipPath><clipPath id="clip-path-2"><path class="cls-1" d="M8.75,7.08a1.21,1.21,0,0,1-.81.35,4,4,0,0,1-.6,0,2.7,2.7,0,0,0-.77-.31,1.29,1.29,0,0,1-.31-.45,2.26,2.26,0,0,1,.23-2C6.9,4,7.85,3.37,8.6,4A1.29,1.29,0,0,1,9,4.42a3.57,3.57,0,0,1,.17,1.65A2,2,0,0,1,8.75,7.08Z"/></clipPath><linearGradient id="linear-gradient-3" x1="5.19" y1="237.16" x2="4.53" y2="234.87" gradientTransform="translate(29.88 -226.64) rotate(6.85)" gradientUnits="userSpaceOnUse"><stop offset="0" stop-color="#fff"/><stop offset="1" stop-color="#ea9c9e"/></linearGradient><linearGradient id="linear-gradient-4" x1="14.1" y1="236.08" x2="13.51" y2="234.04" xlink:href="#linear-gradient-3"/></defs><g class="cls-2"><g id="Layer_2" data-name="Layer 2"><g id="Layer_1-2" data-name="Layer 1"><path class="cls-3" d="M3.37,17.11l1.12,0,.94,21.35a3.37,3.37,0,0,0,1.31,2.51,3.32,3.32,0,0,0,2.06.71,3.17,3.17,0,0,0,.69-.08L17,40a3.35,3.35,0,0,0,2.67-3.15L20.9,7.12A3.34,3.34,0,0,0,20,4.66a3.41,3.41,0,0,0-2.34-1.05,1.71,1.71,0,0,0,0-.45,4.12,4.12,0,0,0-.54-1.43A3.18,3.18,0,0,0,14.79.27h-.32a4.8,4.8,0,0,0-.92.1,3,3,0,0,0-1.36.74,3.72,3.72,0,0,0-.82,1,2.4,2.4,0,0,0-.16.27,5.18,5.18,0,0,0-.26-.6,3,3,0,0,0-1-1.17A4.23,4.23,0,0,0,8.81.1,2.46,2.46,0,0,0,8.09,0,3.31,3.31,0,0,0,6.16.66a4,4,0,0,0-1,1.15A1.87,1.87,0,0,0,5,3.37l-.06.09a4.58,4.58,0,0,0-.79,2.16L.75,11.32A1.84,1.84,0,0,0,.51,12l0,.06a3.37,3.37,0,0,0,2.9,5.09Z"/><path d="M18.93,5.65a1.92,1.92,0,0,0-1.39-.59H16.17c-.05-.13-.11-.25-.17-.37a2.35,2.35,0,0,0-1.81-1.25l.26,0a.89.89,0,0,1,.81.38.46.46,0,0,0,.4.21.45.45,0,0,0,.2,0l.08,0a.48.48,0,0,0,.24-.51,2.62,2.62,0,0,0-.35-.92,1.68,1.68,0,0,0-1.17-.78h-.19a3.36,3.36,0,0,0-.61.07,1.54,1.54,0,0,0-.72.41,2.31,2.31,0,0,0-.53.67l0,0a1,1,0,0,0-.2.55A.54.54,0,0,0,12.9,4H13a2,2,0,0,0-.41.69,2.23,2.23,0,0,0-.13.39H9.67c0-.18-.07-.34-.11-.49a2,2,0,0,0-.11-.29.56.56,0,0,0,.49-.34.93.93,0,0,0,0-.57.35.35,0,0,0,0-.06,2.48,2.48,0,0,0-.26-.81,1.61,1.61,0,0,0-.54-.64,2.7,2.7,0,0,0-.72-.34,1.66,1.66,0,0,0-.33,0A1.85,1.85,0,0,0,7,1.8a2.87,2.87,0,0,0-.64.74.48.48,0,0,0,0,.56l.06.06a.46.46,0,0,0,.34.15.52.52,0,0,0,.29-.09.74.74,0,0,1,.47-.16,1.22,1.22,0,0,1,.49.12l-.15,0A2.4,2.4,0,0,0,6.11,4.27a3.09,3.09,0,0,0-.55,1.78L2,12.05a.52.52,0,0,0-.06.34l-.22.37a1.92,1.92,0,0,0,0,2,1.94,1.94,0,0,0,1.67,1l2.5-.06,1,22.76a1.94,1.94,0,0,0,.75,1.43,1.91,1.91,0,0,0,1.18.4,1.72,1.72,0,0,0,.39,0l7.51-1.58a1.91,1.91,0,0,0,1.52-1.8L19.46,7.06A2,2,0,0,0,18.93,5.65Z"/><path class="cls-4" d="M3.37,15.18l3-.06,1,23.22A1.44,1.44,0,0,0,8.8,39.72l.29,0,7.51-1.58a1.44,1.44,0,0,0,1.14-1.35L19,7A1.5,1.5,0,0,0,18.58,6a1.45,1.45,0,0,0-1-.44l-10.13,0a1.46,1.46,0,0,0-1.24.7L2.13,13a1.43,1.43,0,0,0,1.24,2.17Z"/><path class="cls-5" d="M6.75,12.2l-4.35.1L6.45,5.49l10.12,0L15.34,35.26,7.83,36.84Z"/><polygon class="cls-6" points="14.38 5.53 6.45 5.49 3.7 10.12 4.64 10.1 4.74 12.25 6.75 12.2 7.72 34.32 13.24 33.16 14.38 5.53"/><path class="cls-3" d="M8.3,11.72a28.86,28.86,0,0,0-.08,5.34,31.23,31.23,0,0,0,.52,5.38c.08.36.61.26.62-.09a48.05,48.05,0,0,0-.27-5.49,42,42,0,0,0-.48-5.14.16.16,0,0,0-.31,0Z"/><path class="cls-3" d="M8.73,23.88a3.67,3.67,0,0,0,.08,2.34c.13.32.67.23.74-.1A7.33,7.33,0,0,0,9.49,24c-.05-.4-.65-.56-.76-.1Z"/><path class="cls-7" d="M10.2,7.79a1,1,0,0,1-.65-.55A1.59,1.59,0,0,0,10,8.33c.7.66,1.68-.24,1.56-1A1.31,1.31,0,0,1,10.2,7.79Z"/><path d="M14.39,9.15A.49.49,0,0,0,14,8.89a.92.92,0,0,0-.75.47,3.86,3.86,0,0,1-1.21,1.17,2.26,2.26,0,0,1-1.54.12c-.51-.09-.89-.45-1.39-.56l-.16,0a.5.5,0,0,0-.23.09.19.19,0,0,0-.08.11.89.89,0,0,0,.15.87,1.29,1.29,0,0,0,.19.21,1.07,1.07,0,0,0,.18.19,2.28,2.28,0,0,0,.67.36,4.46,4.46,0,0,0,1.63.2,3.47,3.47,0,0,0,2.32-.93c.12-.14.24-.28.34-.42h0a2.61,2.61,0,0,0,.34-.74A.9.9,0,0,0,14.39,9.15Z"/><path class="cls-8" d="M14.39,10.09a1.68,1.68,0,0,1-.41.75,1.73,1.73,0,0,1-.17.21,2.48,2.48,0,0,1-1.19.78,4.43,4.43,0,0,1-1.2.2A4.6,4.6,0,0,1,10,11.85a2,2,0,0,1-.4-.17l.12.05c-.56-.27-1.17-.77-1-1.37h0a.23.23,0,0,1,.24-.21,3.43,3.43,0,0,1,1.15.48,3.11,3.11,0,0,0,1,.19,1.85,1.85,0,0,0,.92-.2,3.12,3.12,0,0,0,.75-.56c.29-.27.47-.63.75-.9a.55.55,0,0,1,.75-.09.45.45,0,0,1,.1.14A1.37,1.37,0,0,1,14.39,10.09Z"/><path class="cls-9" d="M12.42,10.55h-.3l-.13.07a2.2,2.2,0,0,1-.6.19A1.3,1.3,0,0,0,10.75,12a5,5,0,0,0,.67,0,4.43,4.43,0,0,0,1.2-.2,2.24,2.24,0,0,0,.71-.35A1.1,1.1,0,0,0,12.42,10.55Z"/><path class="cls-3" d="M10,11.09A3.76,3.76,0,0,0,11.93,11a2.93,2.93,0,0,0,1.46-.92A1.81,1.81,0,0,0,13.79,9a.78.78,0,0,0-.3.18c-.28.27-.46.63-.75.9a3.12,3.12,0,0,1-.75.56,1.85,1.85,0,0,1-.92.2,3.11,3.11,0,0,1-1-.19,9.37,9.37,0,0,0-.9-.44A1.21,1.21,0,0,0,10,11.09Z"/><path class="cls-10" d="M12,11.41a2.56,2.56,0,0,0-1.5.56,4.85,4.85,0,0,0,.93.06,4.43,4.43,0,0,0,1.2-.2,2.21,2.21,0,0,0,.66-.31A2.69,2.69,0,0,0,12,11.41Z"/><path d="M10.8,8.57a1.37,1.37,0,0,1-1.19-1,1.1,1.1,0,0,1,.11-1c.22-.29.75.06.91.26,0,0,0,0,0,0a.87.87,0,0,0-.8-.4c-.24.06-.36.38-.39.59a1.36,1.36,0,0,0,1.3,1.56S10.83,8.58,10.8,8.57Z"/><path d="M9.09,4.66a1.27,1.27,0,0,0-.74-.93,1.64,1.64,0,0,0-1.84.81,2.41,2.41,0,0,0-.33,2.2,1.23,1.23,0,0,0,.23.37,4.1,4.1,0,0,0-.49-.06l.16.06a2.23,2.23,0,0,1,.43.1l0,0a1.87,1.87,0,0,1,.4.13c.28.13.55.26.81.41a2.08,2.08,0,0,0-.32-.27h.27a1.72,1.72,0,0,0,.44-.06h.08s0,0,0,0a2,2,0,0,0,.37-.15,1.34,1.34,0,0,0,.48-.74A3.14,3.14,0,0,0,9.09,4.66Z"/><path class="cls-3" d="M8.75,7.08a1.21,1.21,0,0,1-.81.35,4,4,0,0,1-.6,0,2.7,2.7,0,0,0-.77-.31,1.29,1.29,0,0,1-.31-.45,2.26,2.26,0,0,1,.23-2C6.9,4,7.85,3.37,8.6,4A1.29,1.29,0,0,1,9,4.42a3.57,3.57,0,0,1,.17,1.65A2,2,0,0,1,8.75,7.08Z"/><path class="cls-11" d="M6.33,5.17A2,2,0,0,1,7.69,4a1.24,1.24,0,0,1,1.25.91A2.57,2.57,0,0,1,9.14,6,3.4,3.4,0,0,0,9,4.42,1.29,1.29,0,0,0,8.6,4c-.75-.58-1.7,0-2.11.72A2.59,2.59,0,0,0,6.11,6,3.5,3.5,0,0,1,6.33,5.17Z"/><path d="M12.83,6.69a1.24,1.24,0,0,0,.41.77,2,2,0,0,0,.36.19v0l.09,0a1.67,1.67,0,0,0,.42.09h0l.26,0a2.52,2.52,0,0,0-.33.24,6.58,6.58,0,0,1,.83-.34,2.13,2.13,0,0,1,.42-.1l0,0a3.11,3.11,0,0,1,.44-.06l.16,0a4,4,0,0,0-.49,0,1.18,1.18,0,0,0,.26-.35,2.42,2.42,0,0,0-.14-2.22,1.66,1.66,0,0,0-1.77-1,1.3,1.3,0,0,0-.82.86A3.15,3.15,0,0,0,12.83,6.69Z"/><path d="M9.46,3.33a1.79,1.79,0,0,0-.21-.64,1.14,1.14,0,0,0-.37-.47A2.24,2.24,0,0,0,8.29,2a1.24,1.24,0,0,0-.95.23,2.4,2.4,0,0,0-.53.61l0,0c.89-.65,2.11.09,2.59.92,0,0,.06,0,.07,0A.87.87,0,0,0,9.46,3.33Z"/><path class="cls-12" d="M8.12,2.6a1.49,1.49,0,0,0-1.24.14,3.87,3.87,0,0,1,.43-.47A1.07,1.07,0,0,1,7.92,2a.89.89,0,0,1,.56.08,1.24,1.24,0,0,1,.65.56,1.81,1.81,0,0,1,.22.54,1.73,1.73,0,0,1,.09.39A2.38,2.38,0,0,0,8.12,2.6Z"/><path d="M12.86,3.42s0,.08.06.06c.74-.61,2.14-.87,2.74,0l.05,0a2.18,2.18,0,0,0-.29-.76,1.23,1.23,0,0,0-.8-.55,2.35,2.35,0,0,0-.65.05,1.24,1.24,0,0,0-.52.3,2.13,2.13,0,0,0-.42.53C13,3.17,12.86,3.31,12.86,3.42Z"/><path class="cls-12" d="M13,3.34A2.75,2.75,0,0,1,13.17,3a1.83,1.83,0,0,1,.4-.43,1.23,1.23,0,0,1,.8-.29.88.88,0,0,1,.57.11,1.11,1.11,0,0,1,.48.43,3.1,3.1,0,0,1,.23.6,1.43,1.43,0,0,0-1.1-.57A2.38,2.38,0,0,0,13,3.34Z"/><g class="cls-13"><path class="cls-3" d="M12.83,6.23a3.52,3.52,0,0,1,.32-1.63,1.1,1.1,0,0,1,.39-.44c.8-.51,1.69.16,2,.89a2.26,2.26,0,0,1,.06,2,1.4,1.4,0,0,1-.34.42,2.59,2.59,0,0,0-.79.24,3.08,3.08,0,0,1-.61-.07,1.24,1.24,0,0,1-.78-.41A2.26,2.26,0,0,1,12.83,6.23Z"/><path class="cls-11" d="M13.28,4.94A1,1,0,0,1,14,4.35a1.28,1.28,0,0,1,.72.11,2.19,2.19,0,0,1,1,1.24,2.4,2.4,0,0,1,.12.38,2.76,2.76,0,0,0-.27-1c-.35-.73-1.24-1.4-2-.89a1.1,1.1,0,0,0-.39.44,3.52,3.52,0,0,0-.32,1.63,2.85,2.85,0,0,0,.11.65A3.4,3.4,0,0,1,13.28,4.94Z"/><path class="cls-14" d="M15.11,6.22a1.09,1.09,0,0,1-.84,1.25,1.1,1.1,0,0,1-1-1.14,1.09,1.09,0,0,1,.84-1.25A1.09,1.09,0,0,1,15.11,6.22Z"/><path class="cls-15" d="M14.77,6.24a.65.65,0,0,1-.5.74c-.3,0-.56-.29-.58-.68a.64.64,0,0,1,.5-.74C14.49,5.54,14.75,5.85,14.77,6.24Z"/><path class="cls-3" d="M14.21,5.93c0,.24-.11.45-.29.46s-.33-.18-.34-.43.12-.45.29-.46S14.2,5.68,14.21,5.93Z"/></g><g class="cls-16"><path class="cls-14" d="M8.8,6.23c-.08.65-.54,1.14-1,1.08A1.08,1.08,0,0,1,7,6c.08-.65.54-1.14,1-1.08A1.09,1.09,0,0,1,8.8,6.23Z"/><path class="cls-15" d="M8.46,6.19c0,.39-.32.68-.62.64s-.5-.37-.46-.77.33-.67.62-.64A.64.64,0,0,1,8.46,6.19Z"/><path class="cls-3" d="M8,5.79c0,.24-.19.42-.37.4S7.31,6,7.34,5.71s.19-.42.36-.4S8,5.54,8,5.79Z"/></g><path class="cls-17" d="M8,8.82c.18-.52-.31-1.16-1.09-1.43s-1.56-.07-1.74.45S5.47,9,6.25,9.27,7.81,9.34,8,8.82Zm-2-1a.23.23,0,0,1-.24,0,.16.16,0,0,1-.08-.17.31.31,0,0,1,.41-.23.06.06,0,0,1,0,.06.21.21,0,0,1,0,.11A.26.26,0,0,1,6,7.84Zm.37-.39h0c0-.07.1-.1.11,0s0,0,0,.06A.06.06,0,0,1,6.37,7.45Z"/><path class="cls-18" d="M17,8.05c-.14-.53-.9-.78-1.7-.56S14,8.31,14.13,8.84s.91.78,1.7.56S17.16,8.58,17,8.05Zm-2.19.32a.23.23,0,0,1-.19.15.19.19,0,0,1-.16-.1A.31.31,0,0,1,14.68,8a0,0,0,0,1,.06,0,.17.17,0,0,1,.1.06A.26.26,0,0,1,14.82,8.37Zm.08-.53h0c-.05-.06,0-.14.07-.09a.07.07,0,0,1,0,.06C15,7.88,14.93,7.91,14.9,7.84Z"/></g></g></g></svg>