<svg xmlns="http://www.w3.org/2000/svg" xmlns:xlink="http://www.w3.org/1999/xlink" viewBox="0 0 51.32 41.88"><defs><style>.cls-1{fill:none;}.cls-2{isolation:isolate;}.cls-3{fill:#fff;}.cls-4{fill:#653624;}.cls-5{fill:url(#linear-gradient);}.cls-6{fill:url(#linear-gradient-2);}.cls-21,.cls-7{fill:#f3d1bb;}.cls-11,.cls-17,.cls-18,.cls-22,.cls-23,.cls-7,.cls-9{mix-blend-mode:multiply;}.cls-8,.cls-9{fill:#aa2d2d;}.cls-10{fill:#f26a60;}.cls-11{fill:#ebebec;}.cls-12{fill:#d98b44;}.cls-13{clip-path:url(#clip-path);}.cls-14{fill:#3165b0;}.cls-15{fill:#000e30;}.cls-16{clip-path:url(#clip-path-2);}.cls-17,.cls-18,.cls-22,.cls-23{opacity:0.6;}.cls-17{fill:url(#linear-gradient-3);}.cls-18{fill:url(#linear-gradient-4);}.cls-19{fill:url(#linear-gradient-5);}.cls-20{fill:url(#linear-gradient-6);}.cls-21{mix-blend-mode:screen;}.cls-22{fill:url(#linear-gradient-7);}.cls-23{fill:url(#linear-gradient-8);}.cls-24{fill:#53291b;}.cls-25{fill:#974d34;}.cls-26{fill:#440900;}.cls-27{clip-path:url(#clip-path-3);}</style><linearGradient id="linear-gradient" x1="9.49" y1="37.08" x2="9.49" y2="5.73" gradientUnits="userSpaceOnUse"><stop offset="0" stop-color="#ffe050"/><stop offset="1" stop-color="#fcca2e"/></linearGradient><linearGradient id="linear-gradient-2" x1="9.04" y1="5.73" x2="9.04" y2="34.55" xlink:href="#linear-gradient"/><clipPath id="clip-path"><path class="cls-1" d="M12.83,6.47a3.5,3.5,0,0,1,.32-1.63,1.1,1.1,0,0,1,.39-.44c.8-.51,1.69.16,2,.89a2.26,2.26,0,0,1,.06,2,1.4,1.4,0,0,1-.34.42,2.59,2.59,0,0,0-.79.24,4.07,4.07,0,0,1-.61-.07,1.24,1.24,0,0,1-.78-.41A2.26,2.26,0,0,1,12.83,6.47Z"/></clipPath><clipPath id="clip-path-2"><path class="cls-1" d="M8.75,7.32a1.21,1.21,0,0,1-.81.35c-.2,0-.4,0-.6,0a2.44,2.44,0,0,0-.77-.31,1.39,1.39,0,0,1-.31-.45,2.26,2.26,0,0,1,.23-2c.41-.7,1.36-1.3,2.11-.72A1.29,1.29,0,0,1,9,4.66a3.54,3.54,0,0,1,.17,1.65A2,2,0,0,1,8.75,7.32Z"/></clipPath><linearGradient id="linear-gradient-3" x1="10.58" y1="215.43" x2="9.91" y2="213.13" gradientTransform="translate(21.93 -205.47) rotate(6.85)" gradientUnits="userSpaceOnUse"><stop offset="0" stop-color="#fff"/><stop offset="1" stop-color="#ea9c9e"/></linearGradient><linearGradient id="linear-gradient-4" x1="19.49" y1="214.35" x2="18.9" y2="212.31" xlink:href="#linear-gradient-3"/><linearGradient id="linear-gradient-5" x1="36.06" y1="37.08" x2="36.06" y2="5.08" xlink:href="#linear-gradient"/><linearGradient id="linear-gradient-6" x1="35.01" y1="5.08" x2="35.01" y2="34.97" xlink:href="#linear-gradient"/><linearGradient id="linear-gradient-7" x1="41.41" y1="9.81" x2="40.7" y2="7.36" gradientTransform="matrix(1, 0, 0, 1, 0, 0)" xlink:href="#linear-gradient-3"/><linearGradient id="linear-gradient-8" x1="-162.08" y1="113.75" x2="-162.79" y2="111.29" gradientTransform="matrix(0.96, 0.29, -0.29, 0.96, 218.85, -50.27)" xlink:href="#linear-gradient-3"/><clipPath id="clip-path-3"><path class="cls-1" d="M37.68,4.83a2.12,2.12,0,0,1,1.38-1,1.19,1.19,0,0,1,1,.3,2.33,2.33,0,0,1,.64,1.42,5.9,5.9,0,0,1-.18,1.67,2.32,2.32,0,0,0-1.4,1.15,1.84,1.84,0,0,1-1.49-.47C36.9,7.12,37.17,5.68,37.68,4.83Z"/></clipPath></defs><g class="cls-2"><g id="Layer_2" data-name="Layer 2"><g id="Layer_1-2" data-name="Layer 1"><path class="cls-3" d="M3.37,17.35l1.12,0,.94,21.35A3.37,3.37,0,0,0,8.8,41.88a3.17,3.17,0,0,0,.69-.07L17,40.23a3.35,3.35,0,0,0,2.67-3.15L20.9,7.36a3.37,3.37,0,0,0-3.27-3.51,2.27,2.27,0,0,0,0-.45A4.12,4.12,0,0,0,17.06,2,3.18,3.18,0,0,0,14.79.51h-.32a4.8,4.8,0,0,0-.92.1,2.88,2.88,0,0,0-1.36.74,3.72,3.72,0,0,0-.82,1,2.4,2.4,0,0,0-.16.27A4,4,0,0,0,11,2a3,3,0,0,0-1-1.17A4.21,4.21,0,0,0,8.81.33,2.84,2.84,0,0,0,8.09.24,3.31,3.31,0,0,0,6.16.9a4,4,0,0,0-1,1.15A1.87,1.87,0,0,0,5,3.61l-.06.08a4.66,4.66,0,0,0-.79,2.17L.75,11.56a1.84,1.84,0,0,0-.24.64l0,.06a3.37,3.37,0,0,0,2.9,5.09Z"/><path d="M18.93,5.89a2,2,0,0,0-1.39-.6H16.17c-.05-.13-.11-.25-.17-.37a2.35,2.35,0,0,0-1.81-1.25l.26,0a.89.89,0,0,1,.81.38.46.46,0,0,0,.4.21.45.45,0,0,0,.2,0l.08,0a.48.48,0,0,0,.24-.51,2.62,2.62,0,0,0-.35-.92A1.68,1.68,0,0,0,14.66,2h-.19a3.36,3.36,0,0,0-.61.07,1.54,1.54,0,0,0-.72.41,2.31,2.31,0,0,0-.53.67l0,.05a1,1,0,0,0-.2.55.54.54,0,0,0,.52.51H13a2,2,0,0,0-.41.69,2.23,2.23,0,0,0-.13.39H9.67c0-.18-.07-.34-.11-.49a2,2,0,0,0-.11-.29.56.56,0,0,0,.49-.34,1,1,0,0,0,0-.58.43.43,0,0,0,0-.05,2.48,2.48,0,0,0-.26-.81,1.55,1.55,0,0,0-.54-.64,2.7,2.7,0,0,0-.72-.34,1.66,1.66,0,0,0-.33,0A1.85,1.85,0,0,0,7,2a2.72,2.72,0,0,0-.64.74.48.48,0,0,0,0,.56l.06.06a.46.46,0,0,0,.34.15.52.52,0,0,0,.29-.09A.74.74,0,0,1,7.6,3.3a1.22,1.22,0,0,1,.49.12l-.15,0A2.42,2.42,0,0,0,6.11,4.5a3.13,3.13,0,0,0-.55,1.78L2,12.29a.52.52,0,0,0-.06.34L1.71,13a1.92,1.92,0,0,0,1.66,2.9l2.5-.05,1,22.75A1.94,1.94,0,0,0,7.62,40a1.91,1.91,0,0,0,1.18.4,1.72,1.72,0,0,0,.39,0l7.51-1.58A1.91,1.91,0,0,0,18.22,37L19.46,7.3A2,2,0,0,0,18.93,5.89Z"/><path class="cls-4" d="M3.37,15.42l3-.06,1,23.22A1.44,1.44,0,0,0,8.8,40l.29,0,7.51-1.58A1.45,1.45,0,0,0,17.74,37L19,7.28a1.48,1.48,0,0,0-.4-1.06,1.45,1.45,0,0,0-1-.44l-10.13,0a1.43,1.43,0,0,0-1.24.7l-4,6.81a1.46,1.46,0,0,0,0,1.47A1.44,1.44,0,0,0,3.37,15.42Z"/><path class="cls-5" d="M6.75,12.44l-4.35.1L6.45,5.73l10.12,0L15.34,35.5,7.83,37.08Z"/><polygon class="cls-6" points="14.38 5.76 6.45 5.73 3.7 10.36 4.64 10.34 4.74 12.49 6.75 12.44 7.72 34.55 13.24 33.39 14.38 5.76"/><path class="cls-3" d="M8.3,12a28.86,28.86,0,0,0-.08,5.34,31.33,31.33,0,0,0,.52,5.38c.08.36.61.26.62-.09a48.05,48.05,0,0,0-.27-5.49A42,42,0,0,0,8.61,12a.16.16,0,0,0-.31,0Z"/><path class="cls-3" d="M8.73,24.12a3.67,3.67,0,0,0,.08,2.34.41.41,0,0,0,.74-.1,7.32,7.32,0,0,0-.06-2.14c-.05-.4-.65-.56-.76-.1Z"/><path class="cls-7" d="M10.2,8a1,1,0,0,1-.65-.55A1.59,1.59,0,0,0,10,8.57c.7.66,1.68-.24,1.56-1A1.31,1.31,0,0,1,10.2,8Z"/><path d="M14.39,9.39A.49.49,0,0,0,14,9.13a.92.92,0,0,0-.75.47,3.86,3.86,0,0,1-1.21,1.17,2.26,2.26,0,0,1-1.54.12c-.51-.09-.89-.45-1.39-.56l-.16,0a.5.5,0,0,0-.23.09.19.19,0,0,0-.08.11.89.89,0,0,0,.15.87,1.29,1.29,0,0,0,.19.21,1.07,1.07,0,0,0,.18.19,2.28,2.28,0,0,0,.67.36,4.46,4.46,0,0,0,1.63.2,3.47,3.47,0,0,0,2.32-.93c.12-.14.24-.28.34-.42h0a2.61,2.61,0,0,0,.34-.74A.9.9,0,0,0,14.39,9.39Z"/><path class="cls-8" d="M14.39,10.33a1.68,1.68,0,0,1-.41.75,1.68,1.68,0,0,1-.18.21,2.41,2.41,0,0,1-1.18.78,4.43,4.43,0,0,1-1.2.2A4.6,4.6,0,0,1,10,12.09a2,2,0,0,1-.4-.17l.12.05c-.56-.27-1.17-.77-1-1.37h0a.23.23,0,0,1,.24-.21,3.43,3.43,0,0,1,1.15.48,3.11,3.11,0,0,0,1,.19,1.85,1.85,0,0,0,.92-.2,3.12,3.12,0,0,0,.75-.56c.29-.27.47-.63.75-.9a.54.54,0,0,1,.75-.09.45.45,0,0,1,.1.14A1.37,1.37,0,0,1,14.39,10.33Z"/><path class="cls-9" d="M12.42,10.79a1.51,1.51,0,0,0-.3,0l-.13.07a2.2,2.2,0,0,1-.6.19,1.3,1.3,0,0,0-.64,1.21,5,5,0,0,0,.67,0,4.43,4.43,0,0,0,1.2-.2,2.24,2.24,0,0,0,.71-.35A1.1,1.1,0,0,0,12.42,10.79Z"/><path class="cls-3" d="M10,11.33a3.66,3.66,0,0,0,1.94-.12,2.91,2.91,0,0,0,1.46-.91,1.81,1.81,0,0,0,.4-1.09.78.78,0,0,0-.3.18c-.28.27-.46.63-.75.9a3.12,3.12,0,0,1-.75.56,1.85,1.85,0,0,1-.92.2,3.11,3.11,0,0,1-1-.19,9.37,9.37,0,0,0-.9-.44A1.22,1.22,0,0,0,10,11.33Z"/><path class="cls-10" d="M12,11.65a2.56,2.56,0,0,0-1.5.56,4.85,4.85,0,0,0,.93.06,4.43,4.43,0,0,0,1.2-.2,2.21,2.21,0,0,0,.66-.31A2.57,2.57,0,0,0,12,11.65Z"/><path d="M10.8,8.81a1.37,1.37,0,0,1-1.19-1,1.1,1.1,0,0,1,.11-1c.22-.29.75.06.91.26,0,0,0,0,0,0a.87.87,0,0,0-.8-.4c-.24.06-.36.38-.39.59a1.36,1.36,0,0,0,1.3,1.56S10.83,8.81,10.8,8.81Z"/><path d="M9.09,4.9A1.29,1.29,0,0,0,8.35,4a1.67,1.67,0,0,0-1.84.81A2.43,2.43,0,0,0,6.18,7a1.37,1.37,0,0,0,.23.37,2.73,2.73,0,0,0-.49-.06l.15,0a3.15,3.15,0,0,1,.44.11l0,0a1.87,1.87,0,0,1,.4.13A6.15,6.15,0,0,1,7.76,8a2.08,2.08,0,0,0-.32-.27h.27a1.72,1.72,0,0,0,.44-.06h.08l0,0a2,2,0,0,0,.37-.15,1.37,1.37,0,0,0,.48-.74A3.14,3.14,0,0,0,9.09,4.9Z"/><path class="cls-3" d="M8.75,7.32a1.21,1.21,0,0,1-.81.35c-.2,0-.4,0-.6,0a2.44,2.44,0,0,0-.77-.31,1.39,1.39,0,0,1-.31-.45,2.26,2.26,0,0,1,.23-2c.41-.7,1.36-1.3,2.11-.72A1.29,1.29,0,0,1,9,4.66a3.54,3.54,0,0,1,.17,1.65A2,2,0,0,1,8.75,7.32Z"/><path class="cls-11" d="M6.33,5.41a1.93,1.93,0,0,1,1.36-1.2,1.24,1.24,0,0,1,1.25.91,2.57,2.57,0,0,1,.2,1.09A3.4,3.4,0,0,0,9,4.66a1.29,1.29,0,0,0-.36-.47c-.75-.58-1.7,0-2.11.72a2.59,2.59,0,0,0-.38,1.3A3.5,3.5,0,0,1,6.33,5.41Z"/><path d="M12.83,6.93a1.27,1.27,0,0,0,.41.77,2,2,0,0,0,.36.19,0,0,0,0,0,0,0l.09,0a1.67,1.67,0,0,0,.42.09h0l.26,0a1.27,1.27,0,0,0-.33.24A6.58,6.58,0,0,1,14.89,8a2.13,2.13,0,0,1,.42-.1l0,0a3.11,3.11,0,0,1,.44-.06l.16,0a4,4,0,0,0-.49,0,1.18,1.18,0,0,0,.26-.35,2.42,2.42,0,0,0-.14-2.22c-.33-.59-1.05-1.2-1.77-1a1.32,1.32,0,0,0-.82.87A3.15,3.15,0,0,0,12.83,6.93Z"/><path d="M9.46,3.57a1.91,1.91,0,0,0-.21-.65,1.18,1.18,0,0,0-.37-.46,2.24,2.24,0,0,0-.59-.27,1.2,1.2,0,0,0-.95.23A2.4,2.4,0,0,0,6.81,3l0,0C7.73,2.42,9,3.16,9.43,4c0,0,.06,0,.07,0A.87.87,0,0,0,9.46,3.57Z"/><path class="cls-12" d="M8.12,2.84A1.48,1.48,0,0,0,6.88,3a3.87,3.87,0,0,1,.43-.47,1.16,1.16,0,0,1,.61-.24,1,1,0,0,1,.56.09,1.24,1.24,0,0,1,.65.56,1.81,1.81,0,0,1,.22.54,1.63,1.63,0,0,1,.09.38A2.41,2.41,0,0,0,8.12,2.84Z"/><path d="M12.86,3.66s0,.08.06.06c.74-.61,2.14-.87,2.74,0l.05,0A2.18,2.18,0,0,0,15.42,3a1.23,1.23,0,0,0-.8-.55,2,2,0,0,0-.65,0,1.24,1.24,0,0,0-.52.3,2.13,2.13,0,0,0-.42.53C13,3.41,12.86,3.55,12.86,3.66Z"/><path class="cls-12" d="M13,3.58c.06-.12.16-.26.21-.34a2,2,0,0,1,.4-.42,1.23,1.23,0,0,1,.8-.29.88.88,0,0,1,.57.11,1.11,1.11,0,0,1,.48.43,3.28,3.28,0,0,1,.23.59,1.45,1.45,0,0,0-1.1-.56A2.38,2.38,0,0,0,13,3.58Z"/><g class="cls-13"><path class="cls-3" d="M12.83,6.47a3.5,3.5,0,0,1,.32-1.63,1.1,1.1,0,0,1,.39-.44c.8-.51,1.69.16,2,.89a2.26,2.26,0,0,1,.06,2,1.4,1.4,0,0,1-.34.42,2.59,2.59,0,0,0-.79.24,4.07,4.07,0,0,1-.61-.07,1.24,1.24,0,0,1-.78-.41A2.26,2.26,0,0,1,12.83,6.47Z"/><path class="cls-11" d="M13.28,5.18A1,1,0,0,1,14,4.59a1.28,1.28,0,0,1,.72.11,2.19,2.19,0,0,1,1,1.24,2.4,2.4,0,0,1,.12.38,2.76,2.76,0,0,0-.27-1c-.35-.73-1.24-1.4-2-.89a1.1,1.1,0,0,0-.39.44,3.5,3.5,0,0,0-.32,1.63,2.85,2.85,0,0,0,.11.65A3.4,3.4,0,0,1,13.28,5.18Z"/><path class="cls-14" d="M15.11,6.46a1.07,1.07,0,0,1-.84,1.24c-.5,0-.94-.48-1-1.14a1.09,1.09,0,0,1,.84-1.24A1.09,1.09,0,0,1,15.11,6.46Z"/><path class="cls-15" d="M14.77,6.48a.65.65,0,0,1-.5.74c-.3,0-.56-.29-.58-.68a.64.64,0,0,1,.5-.74C14.49,5.78,14.75,6.09,14.77,6.48Z"/><path class="cls-3" d="M14.21,6.17c0,.24-.11.44-.29.45s-.33-.17-.34-.42.12-.45.29-.46S14.2,5.92,14.21,6.17Z"/></g><g class="cls-16"><path class="cls-14" d="M8.8,6.47c-.08.65-.54,1.14-1,1.08A1.08,1.08,0,0,1,7,6.26c.08-.65.54-1.14,1-1.08A1.08,1.08,0,0,1,8.8,6.47Z"/><path class="cls-15" d="M8.46,6.43c0,.39-.32.68-.62.64a.65.65,0,0,1-.46-.77c0-.39.33-.68.62-.64A.64.64,0,0,1,8.46,6.43Z"/><path class="cls-3" d="M8,6c0,.25-.19.43-.37.41S7.31,6.19,7.34,6s.19-.42.36-.4S8,5.78,8,6Z"/></g><path class="cls-17" d="M8,9.06c.18-.52-.31-1.16-1.09-1.43s-1.56-.07-1.74.45.31,1.16,1.09,1.43S7.81,9.58,8,9.06Zm-2-1a.23.23,0,0,1-.24,0,.17.17,0,0,1-.08-.17.31.31,0,0,1,.41-.23.06.06,0,0,1,0,.06.21.21,0,0,1,0,.11A.26.26,0,0,1,6,8.08Zm.37-.39h0c0-.07.1-.1.11,0s0,0,0,.06A.06.06,0,0,1,6.37,7.69Z"/><path class="cls-18" d="M17,8.29c-.14-.53-.9-.78-1.7-.56S14,8.55,14.13,9.08s.91.78,1.7.56S17.16,8.82,17,8.29Zm-2.19.32a.23.23,0,0,1-.19.15.19.19,0,0,1-.16-.1.31.31,0,0,1,.21-.42,0,0,0,0,1,.06,0,.17.17,0,0,1,.1.06A.26.26,0,0,1,14.82,8.61Zm.08-.53h0c-.05-.05,0-.13.07-.08s0,0,0,0A.06.06,0,1,1,14.9,8.08Z"/><path class="cls-3" d="M44.72,5.87l-.11-.09c-.26-.2-.52-.38-.79-.56a.83.83,0,0,0,.11-.15A2,2,0,0,0,44,3.12,6.53,6.53,0,0,0,42,.72,4,4,0,0,0,39.68,0a4.48,4.48,0,0,0-1.59.3,5.8,5.8,0,0,0-2.47,2,9.51,9.51,0,0,0-.6.87,5.74,5.74,0,0,0-.6,0A7.72,7.72,0,0,0,33,3.42l-.14-.16a5.67,5.67,0,0,0-2.58-1.78,3.77,3.77,0,0,0-1-.13,3,3,0,0,0-2.35,1A4,4,0,0,0,26.12,5a1.9,1.9,0,0,0,.59,1.44,1.21,1.21,0,0,0,.24.21A1.78,1.78,0,0,0,27.6,7V7a14.25,14.25,0,0,0-1.25,1.76A17.51,17.51,0,0,0,25,11.58a22.74,22.74,0,0,0-.88,2.27c-.17.51-.32,1.06-.47,1.62a31,31,0,0,0-.89,7v.35c0,.61,0,1.21.05,1.79a28.08,28.08,0,0,0,.73,5.12,23.38,23.38,0,0,0,1.58,4.53q.34.7.72,1.35c.21.36.44.71.72,1.11l.21.29.11.14a13.24,13.24,0,0,0,2.95,2.85,10,10,0,0,0,5.82,1.83h.64a12.19,12.19,0,0,0,6.91-2A15.91,15.91,0,0,0,47.8,35a22.43,22.43,0,0,0,2.65-6.31,27.61,27.61,0,0,0,.87-6.88,26.57,26.57,0,0,0-.79-6.49A19.17,19.17,0,0,0,48,9.4,14.28,14.28,0,0,0,44.72,5.87Z"/><path d="M43.82,7l-.08-.06a13.42,13.42,0,0,0-1.14-.77,10.42,10.42,0,0,0-1.25-.63,2.63,2.63,0,0,0-.89-1.92l0,0,.07,0a2.08,2.08,0,0,1,1.28.78.56.56,0,0,0,.43.23.6.6,0,0,0,.53-.84A5.13,5.13,0,0,0,41.13,1.9a2.5,2.5,0,0,0-1.45-.46,3,3,0,0,0-1.08.21,4.45,4.45,0,0,0-1.84,1.52,8.41,8.41,0,0,0-.9,1.44H35.1l-.58,0a7.64,7.64,0,0,0-2.09.48,6.19,6.19,0,0,0-.66-.87,4.31,4.31,0,0,0-1.9-1.36,2.07,2.07,0,0,0-.57-.07,1.6,1.6,0,0,0-1.24.48A2.69,2.69,0,0,0,27.56,5a.48.48,0,0,0,.15.36.86.86,0,0,0,.14.13.48.48,0,0,0,.3.11.41.41,0,0,0,.16,0,.48.48,0,0,0,.31-.35,1.23,1.23,0,0,1,.58-.54.54.54,0,0,1,.21-.05,1.19,1.19,0,0,1,.34.08,1.77,1.77,0,0,0-.34.45,3.12,3.12,0,0,0-.28,2.29,12.47,12.47,0,0,0-1.55,2.06,16.38,16.38,0,0,0-1.29,2.62,23.06,23.06,0,0,0-.84,2.16c-.16.49-.31,1-.44,1.53a29.16,29.16,0,0,0-.85,6.69v.35c0,.58,0,1.15.05,1.71a26.11,26.11,0,0,0,.7,4.86,21.4,21.4,0,0,0,1.47,4.25c.21.43.43.85.66,1.24s.4.64.66,1l.19.26.06.08a11.83,11.83,0,0,0,2.67,2.58,8.55,8.55,0,0,0,5,1.58h.64a10.77,10.77,0,0,0,6.11-1.78,14.41,14.41,0,0,0,4.21-4.4,20.66,20.66,0,0,0,2.48-5.9,26.27,26.27,0,0,0,.83-6.53,25.18,25.18,0,0,0-.75-6.14,17.84,17.84,0,0,0-2.36-5.5A12.72,12.72,0,0,0,43.82,7ZM36.73,19.77a23.3,23.3,0,0,1,.52-3,7.89,7.89,0,0,1,.48-1.36,6.63,6.63,0,0,1,.36.94,16.26,16.26,0,0,1,.5,2.52,26.07,26.07,0,0,1,.19,3.1,27.3,27.3,0,0,1-.21,3.39,18.55,18.55,0,0,1-.58,2.9c0,.1-.06.2-.1.3v0a5.24,5.24,0,0,1-.45.77l-.07.09a1.43,1.43,0,0,1-.08-.22l0,0c0-.14-.1-.3-.14-.46a12.69,12.69,0,0,1-.43-2.42c-.09-1-.14-2-.14-3A33.56,33.56,0,0,1,36.73,19.77Z"/><path class="cls-4" d="M43.51,7.36l-.06-.05a12.45,12.45,0,0,0-1.1-.74,11.1,11.1,0,0,0-5.8-1.49h-.49c-.22,0-.43,0-.65,0A8.23,8.23,0,0,0,31.26,6.6a12.22,12.22,0,0,0-1.48,1.23,14.11,14.11,0,0,0-2.06,2.63,19.11,19.11,0,0,0-1.81,4c-.16.49-.3,1-.43,1.51a28.59,28.59,0,0,0-.84,6.57v.35c0,.56,0,1.13.05,1.68a27,27,0,0,0,.68,4.78,21.27,21.27,0,0,0,1.45,4.15c.2.41.41.82.64,1.2s.38.62.63,1l.19.25a.24.24,0,0,0,.06.08,11.28,11.28,0,0,0,2.55,2.48A8.13,8.13,0,0,0,35.61,40h.64a10.25,10.25,0,0,0,5.84-1.7A14,14,0,0,0,46.17,34a20.67,20.67,0,0,0,2.42-5.76,25.77,25.77,0,0,0,.81-6.41,24.83,24.83,0,0,0-.74-6,17.55,17.55,0,0,0-2.29-5.35A12.4,12.4,0,0,0,43.51,7.36ZM36.65,28.87a14.59,14.59,0,0,1-.44-2.51c-.09-1-.14-2-.14-3.1a31.9,31.9,0,0,1,.19-3.54,21,21,0,0,1,.53-3.06,6.71,6.71,0,0,1,.77-1.92l.16-.21.12.14a5.36,5.36,0,0,1,.71,1.55,16.12,16.12,0,0,1,.52,2.6A27.09,27.09,0,0,1,39.26,22,26.53,26.53,0,0,1,39,25.43a17.26,17.26,0,0,1-.59,3,5.84,5.84,0,0,1-.84,1.82,1,1,0,0,1-.25.26l0-.08c-.05-.07-.1-.16-.16-.26l0-.08c0-.07-.07-.15-.12-.25l0-.08a3.42,3.42,0,0,1-.13-.34l0,0C36.75,29.2,36.7,29,36.65,28.87Z"/><path class="cls-19" d="M25.12,21.43v-.35a27.42,27.42,0,0,1,.79-6.22A18.52,18.52,0,0,1,28,9.77a11.32,11.32,0,0,1,3.13-3.43,6.79,6.79,0,0,1,4-1.26h.49a9.64,9.64,0,0,1,5.06,1.29A10.77,10.77,0,0,1,44.2,9.8a15.88,15.88,0,0,1,2.1,4.91A23.43,23.43,0,0,1,47,20.39a24.29,24.29,0,0,1-.76,6.05A18.77,18.77,0,0,1,44,31.79a12.4,12.4,0,0,1-3.65,3.83,8.85,8.85,0,0,1-5,1.46h-.64a6.67,6.67,0,0,1-3.9-1.24,10.35,10.35,0,0,1-3-3.33,18.2,18.2,0,0,1-1.93-5A26.08,26.08,0,0,1,25.12,21.43Zm8.54.39c0,1.12.05,2.2.15,3.23a15.63,15.63,0,0,0,.5,2.77,6.87,6.87,0,0,0,.84,1.95,1.41,1.41,0,0,0,1.18.74,1.85,1.85,0,0,0,1.48-.86,7.38,7.38,0,0,0,1.06-2.27,19,19,0,0,0,.64-3.21,29.24,29.24,0,0,0,.23-3.63,27.75,27.75,0,0,0-.2-3.34A16.81,16.81,0,0,0,39,14.37a6.42,6.42,0,0,0-.94-2,1.62,1.62,0,0,0-1.31-.77,1.67,1.67,0,0,0-1.33.91,8.32,8.32,0,0,0-1,2.35,22.13,22.13,0,0,0-.57,3.26A34.85,34.85,0,0,0,33.66,21.82Z"/><path class="cls-20" d="M32.55,35h.64a8.85,8.85,0,0,0,5-1.45,12.63,12.63,0,0,0,3.65-3.83,18.71,18.71,0,0,0,2.25-5.36,24.21,24.21,0,0,0,.76-6,23.31,23.31,0,0,0-.69-5.68A15.88,15.88,0,0,0,42.1,7.7,8.29,8.29,0,0,0,41.62,7a10.93,10.93,0,0,0-1-.65,9.64,9.64,0,0,0-5.06-1.29H35.1a6.79,6.79,0,0,0-4,1.26A11.32,11.32,0,0,0,28,9.77a18.52,18.52,0,0,0-2.08,5.09,27.42,27.42,0,0,0-.79,6.22v.35a26.08,26.08,0,0,0,.69,6.12,18.2,18.2,0,0,0,1.93,5,12.34,12.34,0,0,0,.73,1.1l.18.13A6.69,6.69,0,0,0,32.55,35ZM31.76,16a22.13,22.13,0,0,1,.57-3.26,7.67,7.67,0,0,1,1-2.35,1.63,1.63,0,0,1,1.33-.91,1.61,1.61,0,0,1,1.31.76,5.69,5.69,0,0,1,.71,1.35h.08a1.62,1.62,0,0,1,1.31.77,6.42,6.42,0,0,1,.94,2,16.81,16.81,0,0,1,.57,2.83,27.75,27.75,0,0,1,.2,3.34,29.24,29.24,0,0,1-.23,3.63,19,19,0,0,1-.64,3.21,7.38,7.38,0,0,1-1.06,2.27,1.85,1.85,0,0,1-1.48.86,1.41,1.41,0,0,1-1.18-.74,6.21,6.21,0,0,1-.67-1.39,1.07,1.07,0,0,1-.25,0A1.43,1.43,0,0,1,33,27.67a7.13,7.13,0,0,1-.84-2A15.68,15.68,0,0,1,31.71,23c-.1-1-.15-2.11-.15-3.23A34.7,34.7,0,0,1,31.76,16Z"/><path class="cls-3" d="M32.23,7.45a17.16,17.16,0,0,0-4.17,5.8c-.85,1.93-1.84,4.49-1.31,6.62.07.28.53.38.66.09a17.21,17.21,0,0,0,.8-3.1,24.72,24.72,0,0,1,.93-3.15,27.69,27.69,0,0,1,3.23-6.14c.07-.09-.07-.19-.14-.12Z"/><path class="cls-3" d="M26.77,21.53a2.65,2.65,0,0,0-.06,2.25c.18.39.73.17.75-.2a13.38,13.38,0,0,0-.13-1.9c0-.27-.42-.45-.56-.15Z"/><path class="cls-21" d="M33.08,8.6a.79.79,0,0,0,.06.5,1,1,0,0,1,.25-.35,1.35,1.35,0,0,1,1-.24A1.72,1.72,0,0,0,34,8.35C33.74,8.29,33.16,8.24,33.08,8.6Z"/><path class="cls-7" d="M32.92,8.67a2.1,2.1,0,0,0,1.67,2.15A1.05,1.05,0,0,0,35.81,10a2.15,2.15,0,0,0-.16-1.35C35,9.34,33.44,9.58,32.92,8.67Z"/><path d="M39.72,9.66a.29.29,0,0,0-.16,0c-.06,0-.11.08-.18.11a.09.09,0,0,0-.06.07s0,0,0,0l.15-.08a16.27,16.27,0,0,1-1.31,1,8.63,8.63,0,0,1-1.6.82,5.5,5.5,0,0,1-3.67.06s-.1.07,0,.09a4.17,4.17,0,0,0,.78.25s0,0,0,0h.06l.26,0a2.33,2.33,0,0,1,.72.52c.3.29.59.6.91.87a2,2,0,0,0,2.1.31,2.44,2.44,0,0,0,1.19-1.26c.33-.8.23-1.67.49-2.48l.23-.22a.11.11,0,0,0,0,.08s.08,0,.1,0S39.81,9.69,39.72,9.66Z"/><path class="cls-8" d="M39,12.14a2.19,2.19,0,0,1-1.74,1.72A1.71,1.71,0,0,1,36,13.62a5.43,5.43,0,0,1-.78-.67,5.2,5.2,0,0,0-.88-.79,5,5,0,0,0,2.25-.34,9.74,9.74,0,0,0,2.68-1.59C39.1,10.85,39.12,11.51,39,12.14Z"/><path class="cls-10" d="M38.54,12.24a3.22,3.22,0,0,0-1,.43,2.45,2.45,0,0,0-.88,1.2,2.35,2.35,0,0,0,.59,0,2.15,2.15,0,0,0,1.71-1.62A.86.86,0,0,0,38.54,12.24Z"/><path class="cls-3" d="M36.66,12.9a7.19,7.19,0,0,0,1.48-.83c-.15-.31,0-.71.36-.73.24,0,.34.31.56.14h0a8.42,8.42,0,0,1,.18-1.24,9.74,9.74,0,0,1-2.68,1.59,5.22,5.22,0,0,1-1.64.35A1.63,1.63,0,0,0,36.66,12.9Z"/><path class="cls-22" d="M42.83,8.21c-.16-.64-1.08-1-2-.74s-1.63,1-1.47,1.6,1.07,1,2,.74S43,8.86,42.83,8.21Zm-2.66.31c-.05.09-.13.19-.24.19a.22.22,0,0,1-.19-.13.36.36,0,0,1,.26-.5.06.06,0,0,1,.08,0,.19.19,0,0,1,.12.07A.35.35,0,0,1,40.17,8.52Zm.11-.63h0c-.06-.07,0-.16.1-.1a.09.09,0,0,1,0,.07C40.44,7.93,40.3,8,40.28,7.89Z"/><path class="cls-23" d="M32.42,10c0-.66-.74-1.25-1.74-1.3s-1.84.43-1.88,1.1.74,1.24,1.74,1.3S32.38,10.7,32.42,10Zm-2.64-.48a.27.27,0,0,1-.28.1.22.22,0,0,1-.15-.18c0-.24.18-.38.4-.4a.06.06,0,0,1,.07.07.18.18,0,0,1,.09.1A.34.34,0,0,1,29.78,9.56Zm.3-.58h0c0-.08.08-.15.12-.07a.24.24,0,0,1,0,.08C30.21,9.08,30.07,9.07,30.08,9Z"/><path class="cls-7" d="M34.06,8.22c.23,0,.47,0,.7.09-.18-.38-.28-.78-.45-1.17C34.21,7.5,34.13,7.86,34.06,8.22Z"/><path class="cls-24" d="M42.31,4A4.52,4.52,0,0,0,40.85,2.3a2.15,2.15,0,0,0-2.08-.2,4,4,0,0,0-1.63,1.37,8.43,8.43,0,0,0-1.14,2s0,0,0,0,0,0,0,0h0a.11.11,0,0,0,.09-.07c.39-.35.73-.77,1.12-1.13a5.71,5.71,0,0,1,1.39-.95,2.91,2.91,0,0,1,1.92-.25,2.62,2.62,0,0,1,1.58,1C42.22,4.17,42.34,4,42.31,4Z"/><path d="M39,3.06A5.79,5.79,0,0,0,37.47,4c-.23.2-.46.41-.68.63s-.4.45-.61.66a5.85,5.85,0,0,1,2.56-3,2.56,2.56,0,0,1,3,1.15A2.92,2.92,0,0,0,39,3.06Z"/><path d="M32.45,6.84a3.29,3.29,0,0,0-.81-1.57h0a1,1,0,0,0-1.78.14,2.75,2.75,0,0,0,.25,2.93c.59.66,1.81,1,2.27,0A2.88,2.88,0,0,0,32.45,6.84Z"/><path class="cls-3" d="M32.37,7.78c0,.56-.29,1-.9,1.07a1.64,1.64,0,0,1-1.16-.48,2.6,2.6,0,0,1-.61-2.29c.08-.51.37-1.1.93-1.17s.9.45,1.16.8a3.8,3.8,0,0,1,.38.68A3.29,3.29,0,0,1,32.37,7.78Z"/><path d="M39.08,8.54a2.7,2.7,0,0,0-.17.65,3.5,3.5,0,0,1,.76-1.29,2.17,2.17,0,0,1,.85-.54h0a3.81,3.81,0,0,1,.79-.25,2.35,2.35,0,0,0-.6.07,6.1,6.1,0,0,0,.18-1.47A2.24,2.24,0,0,0,40.12,4s0,0,0,0A1.14,1.14,0,0,0,39,3.7a2.58,2.58,0,0,0-1.37,1,2.92,2.92,0,0,0-.08,3.37A1.84,1.84,0,0,0,39.08,8.54Z"/><path class="cls-3" d="M37.68,4.83a2.12,2.12,0,0,1,1.38-1,1.19,1.19,0,0,1,1,.3,2.33,2.33,0,0,1,.64,1.42,5.9,5.9,0,0,1-.18,1.67,2.32,2.32,0,0,0-1.4,1.15,1.84,1.84,0,0,1-1.49-.47C36.9,7.12,37.17,5.68,37.68,4.83Z"/><path d="M33.83,10.57l.46.2a5.89,5.89,0,0,0,.59.21h0a5,5,0,0,1-.94-.57,3,3,0,0,1-.86-1.15A1.79,1.79,0,0,1,33,8.59c0-.42.45-.34.73-.3a5.05,5.05,0,0,1,1.21.22l0,0a2,2,0,0,0-.27-.23A4.67,4.67,0,0,0,34,8.12L34,8a2.08,2.08,0,0,1,.12-.3c0-.06,0,0-.07,0s-.07.16-.1.25-.06.15-.1.22l-.43,0c-.41,0-.62.28-.63.66A2.4,2.4,0,0,0,33.83,10.57Z"/><path class="cls-25" d="M32.37,7a1.31,1.31,0,0,1-.87,1.61c-.6.09-1.19-.47-1.32-1.26a1.3,1.3,0,0,1,.87-1.61C31.65,5.66,32.24,6.23,32.37,7Z"/><path class="cls-26" d="M32,7.17a.79.79,0,0,1-.52,1c-.36.06-.71-.28-.79-.75a.78.78,0,0,1,.52-1C31.55,6.36,31.91,6.7,32,7.17Z"/><path class="cls-3" d="M31.25,6.77c0,.29-.09.56-.3.59s-.42-.18-.47-.47.09-.56.3-.59S31.2,6.47,31.25,6.77Z"/><path class="cls-24" d="M32.33,5.85a7.39,7.39,0,0,0-.91-1.3,3.94,3.94,0,0,0-1.67-1.22,1.44,1.44,0,0,0-1.33.26A2.4,2.4,0,0,0,28,5l.11.1A1.63,1.63,0,0,1,29,4.25a1.64,1.64,0,0,1,1.47.29,5.8,5.8,0,0,1,1,.82q.38.33.72.69a0,0,0,0,1,.05,0l.18.17Z"/><path d="M29.82,4.05a1.33,1.33,0,0,0-1.2.31,2.14,2.14,0,0,0-.47.54c0-.49.1-1.08.47-1.32a1.66,1.66,0,0,1,1.68.24,7.33,7.33,0,0,1,1.16,1.07,3.36,3.36,0,0,1,.31.43A4.65,4.65,0,0,0,29.82,4.05Z"/><g class="cls-27"><path class="cls-25" d="M40.72,6.3a1.47,1.47,0,0,1-1.24,1.61,1.48,1.48,0,0,1-1.23-1.62c0-.9.57-1.62,1.25-1.61S40.72,5.41,40.72,6.3Z"/><path class="cls-26" d="M40.26,6.4a.87.87,0,0,1-.74,1,.89.89,0,0,1-.73-1c0-.53.34-1,.74-1S40.26,5.87,40.26,6.4Z"/><path class="cls-3" d="M39.53,5.82c0,.33-.2.6-.43.6s-.43-.27-.43-.6.2-.6.43-.6S39.53,5.49,39.53,5.82Z"/></g></g></g></g></svg>