<svg xmlns="http://www.w3.org/2000/svg" xmlns:xlink="http://www.w3.org/1999/xlink" viewBox="0 0 29.79 42.73"><defs><style>.cls-1{fill:none;}.cls-2{isolation:isolate;}.cls-3{fill:#fff;}.cls-4{fill:#653624;}.cls-5{fill:url(#linear-gradient);}.cls-6{fill:url(#linear-gradient-2);}.cls-7{fill:#f3d1bb;}.cls-15,.cls-16,.cls-17,.cls-18,.cls-7{mix-blend-mode:multiply;}.cls-8{fill:#695961;}.cls-9{fill:#170d06;}.cls-10{fill:#544740;}.cls-11{clip-path:url(#clip-path);}.cls-12{fill:#52453e;}.cls-13{fill:#2d231d;}.cls-14{clip-path:url(#clip-path-2);}.cls-15,.cls-16{opacity:0.6;}.cls-15{fill:url(#linear-gradient-3);}.cls-16{fill:url(#linear-gradient-4);}.cls-17{fill:#ffb169;}.cls-18{fill:#bec0c2;}</style><linearGradient id="linear-gradient" x1="13.93" y1="37.92" x2="13.93" y2="5.68" gradientUnits="userSpaceOnUse"><stop offset="0" stop-color="#ffe050"/><stop offset="1" stop-color="#fcca2e"/></linearGradient><linearGradient id="linear-gradient-2" x1="12.88" y1="5.68" x2="12.88" y2="35.82" xlink:href="#linear-gradient"/><clipPath id="clip-path"><path class="cls-1" d="M12.62,6.25a2.81,2.81,0,0,1-1.51.38,7.59,7.59,0,0,1-1.65-.1c-.6-.11-1.09-.34-1.18-1a3,3,0,0,1,0-.79,1.31,1.31,0,0,1,.26-.86,1.3,1.3,0,0,1,.64-.24A2.26,2.26,0,0,1,10.77,4a5.31,5.31,0,0,1,1.11,1.06C12.17,5.43,12.37,5.86,12.62,6.25Z"/></clipPath><clipPath id="clip-path-2"><path class="cls-1" d="M17.25,5.06A5.13,5.13,0,0,1,18.37,4a2.24,2.24,0,0,1,1.57-.36,1.3,1.3,0,0,1,.64.24,1.32,1.32,0,0,1,.27.86,3.48,3.48,0,0,1,0,.79c-.09.66-.57.89-1.18,1a7.55,7.55,0,0,1-1.65.1,2.85,2.85,0,0,1-1.51-.38C16.76,5.86,17,5.43,17.25,5.06Z"/></clipPath><linearGradient id="linear-gradient-3" x1="-335.15" y1="271.54" x2="-335.99" y2="268.63" gradientTransform="translate(402.78 -189.13) rotate(11.6)" gradientUnits="userSpaceOnUse"><stop offset="0" stop-color="#fff"/><stop offset="1" stop-color="#ea9c9e"/></linearGradient><linearGradient id="linear-gradient-4" x1="-4.01" y1="343.74" x2="-4.88" y2="340.73" gradientTransform="translate(46.33 -332.14) rotate(5.32)" xlink:href="#linear-gradient-3"/></defs><g class="cls-2"><g id="Layer_2" data-name="Layer 2"><g id="Layer_1-2" data-name="Layer 1"><path class="cls-3" d="M5,24a3.39,3.39,0,0,0,3,1.7h.14a3.19,3.19,0,0,0,.71-.11c-.86.75-1.77,1.47-2.7,2.14-1.47,1.06-2.77,1.95-3.87,2.65a1.88,1.88,0,0,0-.87,1.29,3.39,3.39,0,0,0-.5,2.09l.5,5.28A3.37,3.37,0,0,0,4.6,42.13l20.59.6a3.38,3.38,0,0,0,3.35-3.63l-.64-8.34a3.37,3.37,0,0,0-1.3-2.41,3.26,3.26,0,0,0-1.23-.59l.41-.58a25.53,25.53,0,0,0,2.9-5.7,17.84,17.84,0,0,0,1.11-6,11.66,11.66,0,0,0-1.15-5.26,10.48,10.48,0,0,0-3.15-3.79,3.64,3.64,0,0,0-.35-.24L25,6.05a3,3,0,0,0-.26-.16l-.4-.25-.58-.31-.21-.1a1.56,1.56,0,0,0,.14-.33,2,2,0,0,0-.36-1.85,2,2,0,0,0-.47-1.25l-.09-.1A4.47,4.47,0,0,0,20.66.15a3.45,3.45,0,0,0-1-.15,4.56,4.56,0,0,0-2,.49,7.42,7.42,0,0,0-2.08,1.63,8.09,8.09,0,0,0-1,1.23,9.52,9.52,0,0,0-1-1.23A7.53,7.53,0,0,0,11.48.49a4.49,4.49,0,0,0-2-.49,3.45,3.45,0,0,0-1,.15A4.52,4.52,0,0,0,6.4,1.7l-.08.09a2,2,0,0,0-.49,1.27,2,2,0,0,0-.35,1.85,2,2,0,0,0,.57.87,1.58,1.58,0,0,0,.24.39v0c-.28.16-.56.34-.83.52A17.48,17.48,0,0,0,3.63,8.15,12.83,12.83,0,0,0,2,10,13.7,13.7,0,0,0,.68,12.08a2.16,2.16,0,0,0-.16.49c-.06.1-.11.2-.16.3A3.33,3.33,0,0,0,.44,16Zm8.49-3.8.11-.09a5.63,5.63,0,0,1-.37.62,19.63,19.63,0,0,1-2.07,2.62,10.76,10.76,0,0,1,1-1.76A8,8,0,0,1,13.47,20.24Z"/><path d="M6.24,23.33a1.92,1.92,0,0,0,1.67,1H8a1.91,1.91,0,0,0,1.66-1.15A11.89,11.89,0,0,1,11,20.77a8.72,8.72,0,0,1,1.53-1.64A5.11,5.11,0,0,1,14,18.27a3.12,3.12,0,0,1,.92-.24H15a2.86,2.86,0,0,1,.25.87c0,.11,0,.21,0,.32A4.24,4.24,0,0,1,15,20.58a8.79,8.79,0,0,1-.56,1,21.79,21.79,0,0,1-3.29,3.89,41.22,41.22,0,0,1-4.19,3.49C5.45,30,4.12,30.93,3,31.64a.48.48,0,0,0-.23.45l0,.11a1.93,1.93,0,0,0-.49,1.47L2.78,39a1.94,1.94,0,0,0,1.86,1.74l20.55.59a1.92,1.92,0,0,0,1.92-2.07l-.65-8.34a2,2,0,0,0-.74-1.38,1.82,1.82,0,0,0-1.52-.36l-.33.06a.47.47,0,0,0-.28-.09H23.5l-1.25.23a26.77,26.77,0,0,0,2.33-3A23.68,23.68,0,0,0,27.32,21a16.55,16.55,0,0,0,1-5.53,10.27,10.27,0,0,0-1-4.62,9,9,0,0,0-2.72-3.27l-.33-.23-.15-.11L24,7.12l-.38-.22-.52-.28a3.59,3.59,0,0,0-.34-.17c-.18-.09-.38-.17-.58-.25l-.08,0-.25-.1-.41-.14a2.87,2.87,0,0,0,.07-.5.47.47,0,0,0,.24-.15.5.5,0,0,0,.1-.19.63.63,0,0,0,0-.19V4.82a.53.53,0,0,0,.44-.35.58.58,0,0,0-.2-.6l-.49-.34a.54.54,0,0,0,.22-.23.55.55,0,0,0-.09-.56l-.08-.1a3.25,3.25,0,0,0-1.4-1.11,2,2,0,0,0-.6-.09,3.2,3.2,0,0,0-1.37.35A6.2,6.2,0,0,0,16.6,3.12a7,7,0,0,0-1,1.2.49.49,0,0,0,0,.44.68.68,0,0,0,.26.34l.12.06a.25.25,0,0,0,.12,0v0h-.42a17.69,17.69,0,0,0-2.57.19L13,5.19l.12,0,.13-.06a.76.76,0,0,0,.27-.34.49.49,0,0,0,0-.44,7.46,7.46,0,0,0-1-1.2,6,6,0,0,0-1.67-1.33,3.2,3.2,0,0,0-1.37-.35,2,2,0,0,0-.6.09,3.31,3.31,0,0,0-1.4,1.11l-.08.1a.52.52,0,0,0-.09.56.52.52,0,0,0,.22.22l-.49.36a.54.54,0,0,0-.19.59.48.48,0,0,0,.43.35V4.9a.6.6,0,0,0,0,.24.64.64,0,0,0,.08.14.51.51,0,0,0,.24.15,2.34,2.34,0,0,0,.13.69.73.73,0,0,0,0,.12.52.52,0,0,0,.07.45.54.54,0,0,0,.28.19l0,0a14,14,0,0,0-1.8,1A14.4,14.4,0,0,0,4.6,9.22a11.71,11.71,0,0,0-1.46,1.6A12.88,12.88,0,0,0,2,12.72a.55.55,0,0,0,0,.28,5.21,5.21,0,0,0-.28.52,1.93,1.93,0,0,0,0,1.81Z"/><path class="cls-4" d="M6.65,23.09a1.46,1.46,0,0,0,1.26.73H8A1.44,1.44,0,0,0,9.23,23a12.12,12.12,0,0,1,1.41-2.48,10.43,10.43,0,0,1,1.61-1.73,5.93,5.93,0,0,1,1.52-.93,3.52,3.52,0,0,1,1.12-.27h0a.87.87,0,0,1,.29,0l0,0,0,.05a.35.35,0,0,1,.06.09,3.4,3.4,0,0,1,.33,1.1c0,.12,0,.24,0,.37a6.08,6.08,0,0,1-1.12,3.26,21.84,21.84,0,0,1-3.15,3.72,40.63,40.63,0,0,1-4.1,3.4c-1.47,1.07-2.78,2-3.89,2.67a1.43,1.43,0,0,0-.67,1.35l.49,5.28a1.45,1.45,0,0,0,1.4,1.31l20.53.59a1.45,1.45,0,0,0,1-.44,1.47,1.47,0,0,0,.4-1.11L26,30.91a1.42,1.42,0,0,0-.55-1,1.44,1.44,0,0,0-.88-.3,1.1,1.1,0,0,0-.26,0l-3.6.66a27.37,27.37,0,0,0,3.5-4.16,23.52,23.52,0,0,0,2.68-5.26,16.12,16.12,0,0,0,1-5.37,9.7,9.7,0,0,0-.94-4.4A8.66,8.66,0,0,0,24.35,8L24,7.74l-.12-.1-.19-.11-.36-.22L22.84,7l-.32-.16L22,6.65l-.08,0-.23-.09c-.32-.11-.62-.21-.91-.29a15.06,15.06,0,0,0-4.09-.55,20.16,20.16,0,0,0-4,.42A17.53,17.53,0,0,0,8.59,7.48,14.46,14.46,0,0,0,6.68,8.57,16.7,16.7,0,0,0,4.92,10a12.54,12.54,0,0,0-1.59,1.74,13.09,13.09,0,0,0-1.25,2,1.43,1.43,0,0,0,0,1.36Z"/><path class="cls-5" d="M2.4,12.94A11.23,11.23,0,0,1,4.92,9.58,14.15,14.15,0,0,1,8.25,7.33,16.91,16.91,0,0,1,12,6.07a18.73,18.73,0,0,1,3.71-.39,13.76,13.76,0,0,1,3.7.49,9.48,9.48,0,0,1,3.13,1.51,7.16,7.16,0,0,1,2.15,2.59A8.29,8.29,0,0,1,25.46,14a14.54,14.54,0,0,1-.91,4.89A22,22,0,0,1,22,23.85a25.43,25.43,0,0,1-3.75,4.37,18.51,18.51,0,0,1-4.62,3.18l9.93-1.82.64,8.34L3.74,37.33,3.24,32c1.16-.72,2.48-1.62,4-2.71a41.11,41.11,0,0,0,4.24-3.53,21.92,21.92,0,0,0,3.36-4,7.34,7.34,0,0,0,1.36-4,4.83,4.83,0,0,0-.49-2.1,1.76,1.76,0,0,0-1.73-1,4.53,4.53,0,0,0-1.68.37,6.84,6.84,0,0,0-1.9,1.16,11,11,0,0,0-1.85,2A13.3,13.3,0,0,0,7,20.94Z"/><path class="cls-6" d="M16.17,26.11a25,25,0,0,0,3.76-4.36,21.5,21.5,0,0,0,2.51-4.94,14.56,14.56,0,0,0,.92-4.89,8.37,8.37,0,0,0-.79-3.75,8,8,0,0,0-.44-.76,9.65,9.65,0,0,0-2.74-1.24,13.76,13.76,0,0,0-3.7-.49A18.73,18.73,0,0,0,12,6.07,16.91,16.91,0,0,0,8.25,7.33,14.15,14.15,0,0,0,4.92,9.58,11.23,11.23,0,0,0,2.4,12.94l2.86,5a12.35,12.35,0,0,1,1.16-1.89,11.49,11.49,0,0,1,1.86-2,7.36,7.36,0,0,1,1.9-1.16,4.74,4.74,0,0,1,1.67-.37,1.76,1.76,0,0,1,1.73,1,4.63,4.63,0,0,1,.38,1.1,1.77,1.77,0,0,1,1.73,1,4.83,4.83,0,0,1,.49,2.1,7.34,7.34,0,0,1-1.36,4,21.92,21.92,0,0,1-3.36,4,41.11,41.11,0,0,1-4.24,3.53c-1.5,1.09-2.82,2-4,2.71l.31,3.24,18.57.54-.45-5.89-8,1.47a18.51,18.51,0,0,0,4.62-3.18l.2-.19L11.56,29.3A18.42,18.42,0,0,0,16.17,26.11Z"/><path class="cls-3" d="M19.3,7.22c-1.82-.62-4.18-.22-6,.1S9,8.18,7.64,9.5a.25.25,0,0,0,.25.42,19.78,19.78,0,0,0,2.75-1,21.27,21.27,0,0,1,2.83-.81,16.48,16.48,0,0,1,3.2-.4,25.59,25.59,0,0,0,2.63-.06c.23,0,.18-.35,0-.41Z"/><path class="cls-3" d="M6,10.89a3.73,3.73,0,0,0-2,1.84.3.3,0,0,0,.43.33A8.9,8.9,0,0,0,6.3,11.27.24.24,0,0,0,6,10.89Z"/><path class="cls-7" d="M13.71,8.49a1.05,1.05,0,0,0,1.18.72A1.55,1.55,0,0,0,16,8.28c-.36.08-.69.24-1,.3A5.26,5.26,0,0,1,13.71,8.49Z"/><path d="M14.57,9.22a4,4,0,0,1-.72-.56c-.17-.2-.09-.32,0-.5a1.41,1.41,0,0,0,.18-.37,2,2,0,0,0-.12-1.47s-.08,0-.07,0a2,2,0,0,1,.15.88,1.94,1.94,0,0,1-.38,1.09c-.28.43.6.81.87.95C14.54,9.31,14.6,9.25,14.57,9.22Z"/><path d="M13,4.7a.27.27,0,0,0,.09-.12,6.86,6.86,0,0,0-.88-1.13,5.72,5.72,0,0,0-1.54-1.23A2.35,2.35,0,0,0,9,2,3.15,3.15,0,0,0,7.77,3.05c0,.05,0,.08.05,0h0a4.9,4.9,0,0,1,1.47-.27,3.12,3.12,0,0,1,1.52.38c.78.4,1.38,1,2.11,1.52Z"/><path class="cls-8" d="M10.71,3A3.59,3.59,0,0,0,7.94,3a2.32,2.32,0,0,1,1.35-.89,2.75,2.75,0,0,1,1.57.46A7.41,7.41,0,0,1,12.8,4.42,12.22,12.22,0,0,0,10.71,3Z"/><path class="cls-9" d="M10.21,3.34a1.86,1.86,0,0,0-1.61.19A2.77,2.77,0,0,0,8,4.19a1,1,0,0,0-.23.58c0,.06.09,0,.09-.07a.44.44,0,0,1,0-.1s0,0,0,0a3.38,3.38,0,0,1,.35-.47A3,3,0,0,0,8.15,5c0,.58,0,1.15.58,1.43a4.77,4.77,0,0,0,2.09.3,3.12,3.12,0,0,0,1.84-.45h0l0,0s.08,0,.06-.06a7.12,7.12,0,0,0-.35-.74c.15.24.28.49.42.74,0,0,0,0,0,0A5.23,5.23,0,0,0,10.21,3.34Z"/><path class="cls-3" d="M12.62,6.25a2.81,2.81,0,0,1-1.51.38,7.59,7.59,0,0,1-1.65-.1c-.6-.11-1.09-.34-1.18-1a3,3,0,0,1,0-.79,1.31,1.31,0,0,1,.26-.86,1.3,1.3,0,0,1,.64-.24A2.26,2.26,0,0,1,10.77,4a5.31,5.31,0,0,1,1.11,1.06C12.17,5.43,12.37,5.86,12.62,6.25Z"/><path d="M12.69,5.62a3.62,3.62,0,0,0-.53-.84,4.91,4.91,0,0,0-1.63-1.34A2,2,0,0,0,9.1,3.33l-.25.06a5,5,0,0,0-1.51.87s0,.08,0,.09A1.39,1.39,0,0,0,8,4.21a1.58,1.58,0,0,0-.18.7s0,0,0,0h0c0,.06.06,0,.07,0A1.75,1.75,0,0,1,9,3.61,2.18,2.18,0,0,1,10.78,4a4.07,4.07,0,0,1,1.16,1,6.6,6.6,0,0,1,.85,1.42s0,0,.05,0h0s.07,0,.07,0A2.43,2.43,0,0,0,12.69,5.62Z"/><path class="cls-10" d="M8.94,6.49a.49.49,0,0,0-.1.15l-.12.18s0,0,0,0,.14-.23.23-.32S9,6.45,8.94,6.49Z"/><path class="cls-10" d="M8.46,6.14a.38.38,0,0,0-.14.11.28.28,0,0,0-.12.14s0,0,0,0a.38.38,0,0,1,.09-.09s.07-.08.12-.1S8.51,6.13,8.46,6.14Z"/><path class="cls-10" d="M9.67,6.65a1.89,1.89,0,0,0-.05.23s0,0,.05,0a1.74,1.74,0,0,0,.05-.22S9.68,6.63,9.67,6.65Z"/><path class="cls-10" d="M10.79,6.67s-.06,0-.06,0a.36.36,0,0,0,0,.23s0,0,0,0A1.62,1.62,0,0,1,10.79,6.67Z"/><path class="cls-10" d="M11.74,6.64s-.05,0-.05,0a.38.38,0,0,0,.05.15s0,0,0,0A.83.83,0,0,1,11.74,6.64Z"/><path class="cls-10" d="M12.33,6.48s-.06,0-.05,0a.54.54,0,0,0,.09.12s0,0,0,0A.54.54,0,0,0,12.33,6.48Z"/><g class="cls-11"><path class="cls-12" d="M11.57,4.89a1.49,1.49,0,0,1-1.1,1.75c-.69.07-1.32-.62-1.4-1.53a1.5,1.5,0,0,1,1.11-1.75C10.87,3.3,11.49,4,11.57,4.89Z"/><path class="cls-13" d="M11.12,5a.9.9,0,0,1-.66,1c-.41,0-.78-.38-.83-.92a.88.88,0,0,1,.66-1C10.7,4.08,11.07,4.49,11.12,5Z"/><path class="cls-3" d="M10.32,4.52c0,.34-.14.63-.38.65s-.46-.23-.49-.57S9.59,4,9.83,4,10.29,4.19,10.32,4.52Z"/></g><path d="M16.19,4.72c.73-.47,1.33-1.12,2.11-1.52a3.12,3.12,0,0,1,1.52-.38,4.9,4.9,0,0,1,1.47.27h0s.08,0,0,0A3.15,3.15,0,0,0,20.1,2a2.35,2.35,0,0,0-1.62.23A5.53,5.53,0,0,0,17,3.45a6.42,6.42,0,0,0-.89,1.13.23.23,0,0,0,.1.12Z"/><path class="cls-8" d="M16.33,4.42a7.3,7.3,0,0,1,2-1.89,2.72,2.72,0,0,1,1.56-.46A2.32,2.32,0,0,1,21.19,3a3.59,3.59,0,0,0-2.77,0A12.63,12.63,0,0,0,16.33,4.42Z"/><path class="cls-9" d="M16.28,6.24s0,.06,0,0c.14-.25.28-.5.43-.74a5.6,5.6,0,0,0-.36.74s0,.09.06.06a.05.05,0,0,0,0,0h0a3.12,3.12,0,0,0,1.84.45,4.84,4.84,0,0,0,2.1-.3C21,6.18,21,5.61,21,5a3,3,0,0,0-.15-.93,4.37,4.37,0,0,1,.34.47s0,0,0,0a.44.44,0,0,1,0,.1s.09.13.1.07a1.06,1.06,0,0,0-.24-.58,2.56,2.56,0,0,0-.57-.66,1.84,1.84,0,0,0-1.6-.19A5.24,5.24,0,0,0,16.28,6.24Z"/><path class="cls-3" d="M17.25,5.06A5.13,5.13,0,0,1,18.37,4a2.24,2.24,0,0,1,1.57-.36,1.3,1.3,0,0,1,.64.24,1.32,1.32,0,0,1,.27.86,3.48,3.48,0,0,1,0,.79c-.09.66-.57.89-1.18,1a7.55,7.55,0,0,1-1.65.1,2.85,2.85,0,0,1-1.51-.38C16.76,5.86,17,5.43,17.25,5.06Z"/><path d="M16.23,6.36s.05.09.06,0h0s0,0,.05,0A6.56,6.56,0,0,1,17.19,5a4.07,4.07,0,0,1,1.16-1,2.18,2.18,0,0,1,1.74-.39,1.75,1.75,0,0,1,1.18,1.31s.09.09.08,0h0s0,0,0,0a1.58,1.58,0,0,0-.18-.7,1.39,1.39,0,0,0,.61.14c.05,0,0-.07,0-.09a5,5,0,0,0-1.51-.87L20,3.33a2,2,0,0,0-1.43.11A4.91,4.91,0,0,0,17,4.78a3.62,3.62,0,0,0-.53.84A2.16,2.16,0,0,0,16.23,6.36Z"/><path class="cls-10" d="M20.2,6.49a.78.78,0,0,1,.1.15c0,.06.08.12.11.18s0,0,0,0-.14-.23-.23-.32S20.16,6.45,20.2,6.49Z"/><path class="cls-10" d="M20.68,6.14a.45.45,0,0,1,.13.11.28.28,0,0,1,.12.14s0,0,0,0l-.09-.09s-.07-.08-.12-.1S20.63,6.13,20.68,6.14Z"/><path class="cls-10" d="M19.46,6.65a1.89,1.89,0,0,1,.05.23s0,0-.05,0,0-.15-.05-.22S19.45,6.63,19.46,6.65Z"/><path class="cls-10" d="M18.34,6.67s.06,0,.07,0a.44.44,0,0,1,0,.23s0,0,0,0S18.35,6.74,18.34,6.67Z"/><path class="cls-10" d="M17.39,6.64s.05,0,.05,0a.38.38,0,0,1-.05.15s0,0,0,0A.83.83,0,0,0,17.39,6.64Z"/><path class="cls-10" d="M16.8,6.48s.06,0,.05,0a.34.34,0,0,1-.09.12s0,0,0,0A.54.54,0,0,1,16.8,6.48Z"/><g class="cls-14"><path class="cls-12" d="M20.06,4.89A1.48,1.48,0,0,1,19,6.64c-.69.07-1.31-.62-1.39-1.53a1.49,1.49,0,0,1,1.1-1.75C19.35,3.3,20,4,20.06,4.89Z"/><path class="cls-13" d="M19.61,5a.9.9,0,0,1-.66,1c-.41,0-.79-.38-.84-.92s.25-1,.66-1S19.56,4.49,19.61,5Z"/><path class="cls-3" d="M18.81,4.52c0,.34-.14.63-.38.65s-.46-.23-.49-.57.14-.63.38-.65S18.78,4.19,18.81,4.52Z"/></g><path class="cls-15" d="M21.9,8c0-.79-1-1.39-2.2-1.35s-2.12.72-2.09,1.51,1,1.39,2.2,1.34S21.93,8.75,21.9,8Zm-3.17-.28c-.07.09-.19.19-.31.16a.26.26,0,0,1-.2-.2.44.44,0,0,1,.43-.51c.05,0,.07,0,.08.06a.23.23,0,0,1,.12.12A.38.38,0,0,1,18.73,7.68ZM19,7h0c-.05-.1.08-.19.14-.09a.19.19,0,0,1,0,.08A.08.08,0,1,1,19,7Z"/><path class="cls-16" d="M12.34,8.4c0-.78-.89-1.47-2.07-1.54s-2.18.52-2.22,1.31.88,1.48,2.06,1.54S12.29,9.19,12.34,8.4ZM9.21,7.84A.35.35,0,0,1,8.88,8a.26.26,0,0,1-.18-.21c0-.29.21-.46.48-.47.05,0,.07,0,.07.07a.24.24,0,0,1,.11.13A.4.4,0,0,1,9.21,7.84Zm.35-.69h0a.09.09,0,0,1,.15-.08.28.28,0,0,1,0,.09C9.72,7.27,9.56,7.26,9.56,7.15Z"/><path class="cls-17" d="M12.05,10.52a1.72,1.72,0,0,0,.73.63,2.2,2.2,0,0,1,.7.31,3,3,0,0,0,2.24,1,3.29,3.29,0,0,0,1.89-1.35,4.08,4.08,0,0,0,.4-1,4.41,4.41,0,0,0,.16-.65,9.27,9.27,0,0,1-3.09,1.25A4.62,4.62,0,0,1,12.05,10.52Z"/><path d="M17.9,9.77a1.94,1.94,0,0,1-.27.23A6.92,6.92,0,0,1,15,11a5.33,5.33,0,0,1-1.64.06h0a2.28,2.28,0,0,1-1-.38s-.1.06-.07.08a2.18,2.18,0,0,0,1.13.46,2.7,2.7,0,0,0,2.79.7A3.3,3.3,0,0,0,18,9.77C18,9.71,17.92,9.74,17.9,9.77Z"/><path class="cls-3" d="M16.06,11.8a2.84,2.84,0,0,1-2.47-.6,6.55,6.55,0,0,0,1.32-.08,8.5,8.5,0,0,0,1.55-.43,4.23,4.23,0,0,0,1.14-.58,1.44,1.44,0,0,0,.25-.18A3.29,3.29,0,0,1,16.06,11.8Z"/><path class="cls-18" d="M16,11a5.65,5.65,0,0,0,1.3-.65,4.11,4.11,0,0,1-.83.38,8.5,8.5,0,0,1-1.55.43,6.94,6.94,0,0,1-1.28.08A3.82,3.82,0,0,0,16,11Z"/><path class="cls-3" d="M14.86,12.29a1,1,0,0,0,.37.12,1.83,1.83,0,0,0,.47,0A3,3,0,0,0,14.86,12.29Z"/></g></g></g></svg>