<svg xmlns="http://www.w3.org/2000/svg" xmlns:xlink="http://www.w3.org/1999/xlink" viewBox="0 0 29.24 47.02"><defs><style>.cls-1{fill:none;}.cls-2{isolation:isolate;}.cls-3{fill:#fff;}.cls-4{fill:#653624;}.cls-5{fill:url(#linear-gradient);}.cls-6{fill:url(#linear-gradient-2);}.cls-7{fill:#f3d1bb;}.cls-15,.cls-16,.cls-19,.cls-20,.cls-21,.cls-7,.cls-9{mix-blend-mode:multiply;}.cls-8{fill:#faa424;}.cls-9{fill:#e2e3e4;}.cls-10{clip-path:url(#clip-path);}.cls-11{fill:#974d34;}.cls-12{fill:#440900;}.cls-13{clip-path:url(#clip-path-2);}.cls-14,.cls-16{fill:#aa2d2d;}.cls-15{fill:#d8d9da;}.cls-17,.cls-18,.cls-19{fill:#f26a60;}.cls-18{mix-blend-mode:screen;}.cls-20,.cls-21{opacity:0.6;}.cls-20{fill:url(#linear-gradient-3);}.cls-21{fill:url(#linear-gradient-4);}</style><linearGradient id="linear-gradient" x1="13.66" y1="42.21" x2="13.66" y2="7.85" gradientUnits="userSpaceOnUse"><stop offset="0" stop-color="#ffe050"/><stop offset="1" stop-color="#fcca2e"/></linearGradient><linearGradient id="linear-gradient-2" x1="12.61" y1="7.85" x2="12.61" y2="40.11" xlink:href="#linear-gradient"/><clipPath id="clip-path"><path class="cls-1" d="M18.49,9.49l0,0,.05-.08a1.24,1.24,0,0,1-.64.51,2.23,2.23,0,0,1-1.82-.19,1.9,1.9,0,0,1-.7-1.53,3.91,3.91,0,0,1,.42-1.9A3.31,3.31,0,0,1,17,5a1.2,1.2,0,0,1,.95-.19l.08,0c.51.07.76.54.89,1.06a5.55,5.55,0,0,1,.24,1.2,3.67,3.67,0,0,1-.18,1.68A2.67,2.67,0,0,1,18.49,9.49Z"/></clipPath><clipPath id="clip-path-2"><path class="cls-1" d="M10.94,7.92a1.71,1.71,0,0,1-.69,1.41,1.75,1.75,0,0,1-1.7-.11,1.72,1.72,0,0,1-.63-1.37A3.53,3.53,0,0,1,8.3,6.14a3,3,0,0,1,1-1.22,1.06,1.06,0,0,1,.86-.16l.08,0v0c.51.17.63.84.67,1.34v.06s0,0,0,.07h0A8.75,8.75,0,0,1,10.94,7.92Z"/></clipPath><linearGradient id="linear-gradient-3" x1="-337.01" y1="264.64" x2="-337.7" y2="262.24" gradientTransform="translate(402.59 -179.26) rotate(11.6)" gradientUnits="userSpaceOnUse"><stop offset="0" stop-color="#fff"/><stop offset="1" stop-color="#ea9c9e"/></linearGradient><linearGradient id="linear-gradient-4" x1="2577.35" y1="-334.67" x2="2576.8" y2="-336.55" gradientTransform="matrix(-0.98, 0.2, 0.2, 0.98, 2599.79, -179.26)" xlink:href="#linear-gradient-3"/></defs><g class="cls-2"><g id="Layer_2" data-name="Layer 2"><g id="Layer_1-2" data-name="Layer 1"><path class="cls-3" d="M2.79,41.75l.09.11a12.64,12.64,0,0,0,2.69,2.68,12.56,12.56,0,0,0,4.16,2,16.63,16.63,0,0,0,4.15.53A17.4,17.4,0,0,0,20.11,46,14.59,14.59,0,0,0,25,43a13.18,13.18,0,0,0,3.17-4.53,13.62,13.62,0,0,0,1.08-5.36V32.9l0-.84a9.64,9.64,0,0,0-2.09-5.82c-.26-.31-.54-.63-.84-.93.18-.26.34-.52.5-.79a11.22,11.22,0,0,0,1.59-5l0-.85v-.18A11.43,11.43,0,0,0,27.08,13a12.42,12.42,0,0,0-3.32-3.89l-.23-.17-.12-.09-.27-.18-.05,0a5.8,5.8,0,0,0-.52-.34L22.14,8,22,7.91l-.44-.24-.3-.14a5.82,5.82,0,0,0-.08-.73,8.35,8.35,0,0,0-.17-1,2,2,0,0,0,1.14-2.49l-.06-.19a7.82,7.82,0,0,0-.33-.88A3.46,3.46,0,0,0,20.63.89L20.52.8a3.74,3.74,0,0,0-2-.79h-.19a2.89,2.89,0,0,0-.89.15l-.09,0a3.61,3.61,0,0,0-.54.14,5.21,5.21,0,0,0-2.36,1.83,10.78,10.78,0,0,0-.73,1.16,3.61,3.61,0,0,0-.48,1.19,1.34,1.34,0,0,0-.07.27c0-.06,0-.13,0-.2s0-.15-.06-.25-.08-.43-.16-.69a6.22,6.22,0,0,0-.55-1.22A3.67,3.67,0,0,0,9.79.47,3.34,3.34,0,0,0,9.17.41,3,3,0,0,0,6.63,1.76a4.17,4.17,0,0,0-.74,2.75,1.86,1.86,0,0,0,.47,1,6,6,0,0,0-.48,1.92c-.29.15-.58.32-.85.49A9,9,0,0,0,2.14,11a7.67,7.67,0,0,0-.49,1,2,2,0,0,0-.08.22c-.11.24-.22.47-.3.7s-.13.37-.19.55l0,.08,0,.11a5.15,5.15,0,0,0-.16.56c-.06.24-.1.48-.14.71l0,.19c0,.15,0,.3-.07.45s0,.55-.05.8v.09c0,.13,0,.26,0,.44v0c0,.07,0,.14,0,.21S.6,18.47.6,18.47a3.33,3.33,0,0,0,2.19,3L6.91,23l0,.15a3.36,3.36,0,0,0-.41,2.61l1,4.11L1.86,31.53A2,2,0,0,0,.5,33.05a3.37,3.37,0,0,0-.41,2.52A16.85,16.85,0,0,0,2.2,40.89C2.38,41.17,2.57,41.45,2.79,41.75Zm10.6-8a2.43,2.43,0,0,1-.14.2q-.15-.44-.24-.81a9.09,9.09,0,0,0-.28-1h.21a3.75,3.75,0,0,1,.79.07.67.67,0,0,1,0,.27,2.89,2.89,0,0,1-.14.86C13.55,33.51,13.47,33.65,13.39,33.77ZM13.12,5.41a1.63,1.63,0,0,0,.15.52h-.16A1.8,1.8,0,0,0,13,5.72,1.81,1.81,0,0,0,13.12,5.41Z"/><path d="M4,40.89,4,41a11.37,11.37,0,0,0,2.4,2.4,11.07,11.07,0,0,0,3.68,1.73,15.15,15.15,0,0,0,3.79.48,16.38,16.38,0,0,0,5.72-1A13.35,13.35,0,0,0,24,41.92a11.63,11.63,0,0,0,2.82-4,12.11,12.11,0,0,0,1-4.8V33l-.05-.86a8.16,8.16,0,0,0-1.77-5,14.46,14.46,0,0,0-1.64-1.7,11.85,11.85,0,0,0,1.17-1.67,9.62,9.62,0,0,0,1.4-4.36l.05-.85v-.1a9.94,9.94,0,0,0-1.15-4.83,10.9,10.9,0,0,0-2.93-3.44l-.21-.15L22.56,10l-.21-.15-.07,0-.47-.31c-.12-.08-.25-.15-.38-.22l-.16-.09C21.14,9.1,21,9,20.89,9l-.5-.24-.17-.07-.3-.14-.21-.08a3,3,0,0,0,.08-.52,3,3,0,0,0-.07-.9,5.05,5.05,0,0,0-.4-1.72,2.34,2.34,0,0,0-.68-.88,1.33,1.33,0,0,0-.56-.23,1,1,0,0,0-.36-.06,2.1,2.1,0,0,0-.58.1,1.84,1.84,0,0,0-.38.17,6.3,6.3,0,0,1,1-.52,2.28,2.28,0,0,1,.85-.18,1.15,1.15,0,0,1,.33,0,2.08,2.08,0,0,1,.85.61.57.57,0,0,0,.38.16.53.53,0,0,0,.45-.24.61.61,0,0,0,.1-.53l-.07-.19a5.83,5.83,0,0,0-.26-.73,2.22,2.22,0,0,0-.7-.8l-.12-.09a2.39,2.39,0,0,0-1.24-.48h-.08a1.57,1.57,0,0,0-.47.09l-.21.05-.36.09A3.8,3.8,0,0,0,15.56,3a9.59,9.59,0,0,0-.63,1,2.46,2.46,0,0,0-.34.86.55.55,0,0,0,0,.5.55.55,0,0,0,.94,0,3,3,0,0,1,.9-.77l.12-.08.05,0a3.94,3.94,0,0,0-1.16,1.25,4.91,4.91,0,0,0-.64,1.66l-.39,0H12.77l-.87,0a2.82,2.82,0,0,0-.37-1.47,1.47,1.47,0,0,0,0-.21.22.22,0,0,0,0-.08s0-.09,0-.14a.47.47,0,0,0,.1-.1.56.56,0,0,0,.11-.48c0-.11,0-.22-.07-.33a5.29,5.29,0,0,0-.13-.54,4.46,4.46,0,0,0-.42-.93A2.18,2.18,0,0,0,9.51,1.89a1.37,1.37,0,0,0-.34,0,1.59,1.59,0,0,0-1.34.7A2.88,2.88,0,0,0,7.31,4.3a.51.51,0,0,0,.5.43L8,4.7a.57.57,0,0,0,.4-.34c.08-.18.43-.31.83-.31a1.79,1.79,0,0,1,.36,0l.15.07-.21.06A2.92,2.92,0,0,0,8,5.59a4.2,4.2,0,0,0-.6,2.76,9.7,9.7,0,0,0-1.54.8,7.52,7.52,0,0,0-2.43,2.58,8.38,8.38,0,0,0-.4.85,1.21,1.21,0,0,0-.05.18l0,.05c-.12.25-.23.47-.31.69s-.1.29-.14.44l0,.11,0,.11c0,.15-.09.3-.13.45s-.08.41-.11.61l0,.22c0,.11,0,.23-.05.35s0,.49,0,.73v.13A2.66,2.66,0,0,0,2,17v.24S2,18.41,2,18.41a1.9,1.9,0,0,0,1.25,1.72l6.52,2.42a1.88,1.88,0,0,0,.66.12,2,2,0,0,0,1.16-.38,1.91,1.91,0,0,0,.76-1.67l0-.66a3.56,3.56,0,0,1,.46-2.09,1.11,1.11,0,0,1,.68-.43.73.73,0,0,1,.25,0l.08,0,0,0,.1.05,0,0,.1.08.05.05a.8.8,0,0,1,.17.15,2.35,2.35,0,0,1,.48,1.66v.08a4,4,0,0,1-.17.91,5.28,5.28,0,0,1-.66,1,5.18,5.18,0,0,1-1.58,1.19,4.62,4.62,0,0,1-1.67.44,5.13,5.13,0,0,1-.63-.08,1.58,1.58,0,0,0-.38,0,1.69,1.69,0,0,0-.48.07c-.13,0-.26,0-.38-.06h-.1a.47.47,0,0,0-.46.6v0a1.93,1.93,0,0,0-.44,1.77l1,4.09A1.91,1.91,0,0,0,10.77,31a1.77,1.77,0,0,0,.32,0l1.08-.17a7.09,7.09,0,0,1,.77-.05,4.35,4.35,0,0,1,1.3.16,1.69,1.69,0,0,1,.36.15l.05,0,0,0,0,0a1.92,1.92,0,0,1,.49,1.35A4.56,4.56,0,0,1,15,33.88l0,0a5.41,5.41,0,0,1-.37.64,5.61,5.61,0,0,1-1.14,1.27,3.24,3.24,0,0,1-.66.43l-.2-.29-.05-.08c-.09-.15-.17-.3-.25-.45L12.11,35a11.92,11.92,0,0,1-.5-1.55,2.86,2.86,0,0,0-1.3-2.16,1.89,1.89,0,0,0-.87-.21,2,2,0,0,0-.54.07l-.12,0a.18.18,0,0,0-.09-.06.41.41,0,0,0-.21-.05.34.34,0,0,0-.14,0L2.27,32.91a.48.48,0,0,0-.33.57v0a2,2,0,0,0-.45,1.73,15.39,15.39,0,0,0,1.93,4.87C3.58,40.37,3.75,40.62,4,40.89Z"/><path class="cls-4" d="M4.33,40.6l.07.08A10.57,10.57,0,0,0,6.69,43a10.42,10.42,0,0,0,3.52,1.66,14.66,14.66,0,0,0,3.67.47,15.91,15.91,0,0,0,5.55-.93,12.82,12.82,0,0,0,4.25-2.6,11.22,11.22,0,0,0,2.71-3.87,11.69,11.69,0,0,0,.93-4.61V33l-.05-.87a7.74,7.74,0,0,0-1.66-4.68,15.11,15.11,0,0,0-2-2,10.74,10.74,0,0,0,1.45-1.95,9.39,9.39,0,0,0,1.33-4.15l.05-.84v-.08a9.41,9.41,0,0,0-1.09-4.59,10.49,10.49,0,0,0-2.8-3.3l-.21-.15-.1-.07a1.37,1.37,0,0,0-.2-.13L22,10.19l-.45-.3-.37-.21L21,9.59l-.36-.2-.48-.23L20,9.08,19.73,9c-.33-.13-.66-.26-1-.36a15.42,15.42,0,0,0-4.33-.74h-.69a17.8,17.8,0,0,0-3.84.43A11.16,11.16,0,0,0,6.26,9.79a7,7,0,0,0-.81.59A8.36,8.36,0,0,0,3.52,12.7a6.81,6.81,0,0,0-.46,1c-.05.12-.09.26-.13.39l0,.13,0,.11a2.77,2.77,0,0,0-.12.41c-.05.19-.08.39-.11.58l0,.22c0,.11,0,.21,0,.33s0,.46,0,.7v.14a2.13,2.13,0,0,0,0,.27v.23s0,1.2,0,1.2a1.42,1.42,0,0,0,.94,1.29L10,22.1a1.51,1.51,0,0,0,.5.09,1.47,1.47,0,0,0,.87-.29,1.42,1.42,0,0,0,.57-1.25l0-.69a3.79,3.79,0,0,1,.59-2.42c.53-.58.9-.58,1-.58a1.34,1.34,0,0,1,.4.06l.16.07,0,0,.15.08,0,0,.14.11.06,0,.2.19a2.79,2.79,0,0,1,.61,2v.11A5.22,5.22,0,0,1,15,21a4,4,0,0,1-.77,1.27,4,4,0,0,1-1.29,1,3.74,3.74,0,0,1-1.73.37A6.08,6.08,0,0,1,10,23.53,1.44,1.44,0,0,0,8.34,25.3l1,4.1a1.45,1.45,0,0,0,1.4,1.08,1,1,0,0,0,.24,0l1.09-.16a6.38,6.38,0,0,1,.84-.06,4.91,4.91,0,0,1,1.44.18,1.77,1.77,0,0,1,.46.2h0l.1.08.06.05a.3.3,0,0,1,.08.08,2.43,2.43,0,0,1,.6,1.66A5,5,0,0,1,15.44,34a5.77,5.77,0,0,1-.68,1.46,5,5,0,0,1-.95,1.07,1.79,1.79,0,0,1-.76.41l-.15,0a.58.58,0,0,1-.39-.27c-.1-.14-.21-.28-.33-.48l0-.09a3.72,3.72,0,0,1-.27-.48c-.07-.14-.13-.29-.2-.44a11.51,11.51,0,0,1-.52-1.62c-.18-.77-.35-1.49-1.05-1.85a1.47,1.47,0,0,0-.65-.15,1.45,1.45,0,0,0-.41.06L3,33.43a1.45,1.45,0,0,0-1,1.71,14.92,14.92,0,0,0,1.87,4.72C4,40.12,4.16,40.36,4.33,40.6Z"/><path class="cls-5" d="M8.48,31.6a2.49,2.49,0,0,1,.29.89,12.71,12.71,0,0,0,.59,1.82,7.87,7.87,0,0,0,1,1.83A2,2,0,0,0,12,37l.3,0a3.28,3.28,0,0,0,1.43-.72A5.89,5.89,0,0,0,15,34.83,7.47,7.47,0,0,0,15.86,33a6.62,6.62,0,0,0,.32-1.95,3.89,3.89,0,0,0-.94-2.6A4.08,4.08,0,0,0,12,27.35a7.75,7.75,0,0,0-1,.08c-.36.05-.74.1-1.13.17l-1-4.1a7.51,7.51,0,0,0,1.48.15,5.17,5.17,0,0,0,2.37-.52,5.46,5.46,0,0,0,1.73-1.31,5.4,5.4,0,0,0,1-1.73,6.13,6.13,0,0,0,.39-1.82v-.15a4.15,4.15,0,0,0-1-3,3.07,3.07,0,0,0-2.25-1.06,2.83,2.83,0,0,0-2.09,1.06,5,5,0,0,0-1,3.43l0,.74L3,16.89l0-1.14A7.5,7.5,0,0,1,3.81,12,7,7,0,0,1,6.08,9.55a9.75,9.75,0,0,1,3.16-1.3,15.67,15.67,0,0,1,3.53-.4h.69a13.57,13.57,0,0,1,3.88.67,11.28,11.28,0,0,1,3.41,1.77,9,9,0,0,1,2.41,2.84,8,8,0,0,1,.92,3.9l0,.84a7.92,7.92,0,0,1-1.14,3.51,8.33,8.33,0,0,1-2.47,2.76,14.92,14.92,0,0,1,3.11,2.79,6.28,6.28,0,0,1,1.34,3.83l.05.89a10.22,10.22,0,0,1-.82,4.05,9.78,9.78,0,0,1-2.37,3.38A11.21,11.21,0,0,1,18,41.37a14.21,14.21,0,0,1-5,.84,13.23,13.23,0,0,1-3.31-.42,8.87,8.87,0,0,1-3-1.43,9.79,9.79,0,0,1-2.5-2.71A13.89,13.89,0,0,1,2.4,33.38Z"/><path class="cls-6" d="M10.82,40.11a14.15,14.15,0,0,0,5-.84A11.35,11.35,0,0,0,19.63,37,9.73,9.73,0,0,0,22,33.59a10.31,10.31,0,0,0,.81-4.05l0-.88A6.31,6.31,0,0,0,21.54,25c-.35-.29-.72-.57-1.12-.84l.24-.17A16.37,16.37,0,0,0,18.32,22a8.43,8.43,0,0,0,2.47-2.76,8,8,0,0,0,1.14-3.51l0-.84a8,8,0,0,0-.91-3.9,7.33,7.33,0,0,0-.59-.93,11,11,0,0,0-3.13-1.58,13.57,13.57,0,0,0-3.88-.67h-.69a15.67,15.67,0,0,0-3.53.4,9.75,9.75,0,0,0-3.16,1.3A7,7,0,0,0,3.81,12,7.42,7.42,0,0,0,3,15.55L7.41,17.2l0-.74a5,5,0,0,1,1-3.43A2.81,2.81,0,0,1,10.42,12,3.06,3.06,0,0,1,12.67,13a3.53,3.53,0,0,1,.72,1.18,3.49,3.49,0,0,1,1.38.92,4.15,4.15,0,0,1,1,3v.15a6.13,6.13,0,0,1-.39,1.82,5.4,5.4,0,0,1-1,1.73,5.46,5.46,0,0,1-1.73,1.31,5.17,5.17,0,0,1-2.37.52,7.51,7.51,0,0,1-1.48-.15l.45,1.78.66,0a4.08,4.08,0,0,1,3.26,1.11,3.77,3.77,0,0,1,.71,1.24,3,3,0,0,1,1.39.86,3.89,3.89,0,0,1,.94,2.6A6.62,6.62,0,0,1,15.86,33,7.47,7.47,0,0,1,15,34.83a5.89,5.89,0,0,1-1.23,1.38,3.28,3.28,0,0,1-1.43.72L12,37a2,2,0,0,1-1.63-.84,7.73,7.73,0,0,1-.8-1.29A2,2,0,0,1,8.3,34a7.53,7.53,0,0,1-1-1.83L7.17,32,2.4,33.38a13.89,13.89,0,0,0,1.68,4.27l.45.65a9,9,0,0,0,3,1.39A13.17,13.17,0,0,0,10.82,40.11Z"/><path class="cls-3" d="M17.57,9.87c-2.41-1.44-6.58-1.73-9,0-.17.12-.14.5.13.46,1.41-.18,2.76-.63,4.2-.7a20.34,20.34,0,0,1,4.53.49.13.13,0,0,0,.1-.24Z"/><path class="cls-3" d="M6.8,11.11A2.9,2.9,0,0,0,5.13,14.3a.3.3,0,0,0,.57,0,13.9,13.9,0,0,1,1.25-3c.07-.09-.06-.19-.15-.15Z"/><path class="cls-7" d="M12.22,10.53a1.71,1.71,0,0,1-1.13-.68c.06.74.4,1.6,1.12,1.77,1,.25,1.76-.89,1.58-1.81A1.5,1.5,0,0,1,12.22,10.53Z"/><path d="M11,4.2a4,4,0,0,0-.37-.84,1.76,1.76,0,0,0-1.24-1,1.14,1.14,0,0,0-1.19.46,2.25,2.25,0,0,0-.44,1.41s0,0,.06,0,.08,0,.09-.06c.24-.58,1.23-.69,1.76-.54a2.23,2.23,0,0,1,.81.51,4.12,4.12,0,0,1,.59,1c0,.06.14,0,.12-.09C11.15,4.76,11.12,4.47,11,4.2Z"/><path class="cls-8" d="M9.47,3.44a1.67,1.67,0,0,0-1.6.66,2.39,2.39,0,0,1,.41-1.19,1.16,1.16,0,0,1,1.56-.26,2.39,2.39,0,0,1,.83,1.05,3.38,3.38,0,0,1,.3.86A2.12,2.12,0,0,0,10.54,4,1.77,1.77,0,0,0,9.47,3.44Z"/><path d="M20.3,3.89A9.18,9.18,0,0,0,20,3a2.13,2.13,0,0,0-.68-.72,2,2,0,0,0-1-.37A1,1,0,0,0,18,2a5.54,5.54,0,0,0-.55.14A3.27,3.27,0,0,0,16,3.3a9.33,9.33,0,0,0-.6.94,2.05,2.05,0,0,0-.29.78h0l0,0c-.06.1.06.1.1,0a3.94,3.94,0,0,1,1.16-1,6.71,6.71,0,0,1,1.33-.69,2.39,2.39,0,0,1,1.49-.15A2.49,2.49,0,0,1,20.18,4C20.24,4.07,20.32,3.93,20.3,3.89Z"/><path class="cls-8" d="M17.55,3.31a7.08,7.08,0,0,0-1.43.78,4.44,4.44,0,0,0-.94.78,2.36,2.36,0,0,1,.31-.69A8.82,8.82,0,0,1,16,3.36,2.87,2.87,0,0,1,17.64,2.2a1.81,1.81,0,0,1,.89-.08,2,2,0,0,1,.8.42l.28.23a1.09,1.09,0,0,1,.29.44,2.32,2.32,0,0,1,.16.44,2.4,2.4,0,0,0-.95-.56A2.64,2.64,0,0,0,17.55,3.31Z"/><path d="M18.88,5.48a1.68,1.68,0,0,0-.53-.68A.82.82,0,0,0,18,4.65a1.06,1.06,0,0,0-.68,0A2.92,2.92,0,0,0,15.86,6c-.66,1-1,2.92,0,3.84a2.06,2.06,0,0,0,1.82.28h0a1.84,1.84,0,0,0,1.11-.92,3.12,3.12,0,0,0,.42-1.77A4.87,4.87,0,0,0,18.88,5.48Z"/><path class="cls-3" d="M18.49,9.49l0,0,.05-.08a1.24,1.24,0,0,1-.64.51,2.23,2.23,0,0,1-1.82-.19,1.9,1.9,0,0,1-.7-1.53,3.91,3.91,0,0,1,.42-1.9A3.31,3.31,0,0,1,17,5a1.2,1.2,0,0,1,.95-.19l.08,0c.51.07.76.54.89,1.06a5.55,5.55,0,0,1,.24,1.2,3.67,3.67,0,0,1-.18,1.68A2.67,2.67,0,0,1,18.49,9.49Z"/><path class="cls-9" d="M18.71,5.5c0,.07-.09.1-.13,0-.47-.73-1.6-.21-2,.29a3.46,3.46,0,0,0-.74,2.07,1.92,1.92,0,0,0,1.12,1.94,1.77,1.77,0,0,0,.63.16l.31-.06a1.24,1.24,0,0,0,.64-.51l-.05.08,0,0a2.67,2.67,0,0,0,.45-.74,3.67,3.67,0,0,0,.18-1.68,5.55,5.55,0,0,0-.24-1.2,2.05,2.05,0,0,0-.18-.49A.49.49,0,0,1,18.71,5.5Z"/><path d="M11.05,6a.81.81,0,0,0,0-.22,2.11,2.11,0,0,0-.46-1,.84.84,0,0,0-.27-.13.91.91,0,0,0-.67,0A2.65,2.65,0,0,0,8.37,5.84c-.59.94-.94,2.62,0,3.44A1.84,1.84,0,0,0,10,9.53,1.45,1.45,0,0,0,11,8.43a7.56,7.56,0,0,0,.14-2A3.49,3.49,0,0,0,11.05,6Z"/><path class="cls-3" d="M10.94,7.92a1.71,1.71,0,0,1-.69,1.41,1.75,1.75,0,0,1-1.7-.11,1.72,1.72,0,0,1-.63-1.37A3.53,3.53,0,0,1,8.3,6.14a3,3,0,0,1,1-1.22,1.06,1.06,0,0,1,.86-.16l.08,0v0c.51.17.63.84.67,1.34v.06s0,0,0,.07h0A8.75,8.75,0,0,1,10.94,7.92Z"/><path class="cls-9" d="M11,6.29h0s0,0,0-.07V6.15a3,3,0,0,0-.13-.71,1,1,0,0,0-.73-.31,2.3,2.3,0,0,0-.95.37,2.64,2.64,0,0,0-1,2,2,2,0,0,0,1.31,2,1.5,1.5,0,0,0,.79-.17,1.71,1.71,0,0,0,.69-1.41A8.75,8.75,0,0,0,11,6.3Z"/><path d="M13.56,9.42a3.57,3.57,0,0,0-1-.41,1.64,1.64,0,0,0,.16-.29c.07-.15.15-.3.21-.45s-.06,0-.08,0a3.31,3.31,0,0,1-.38.72,2.79,2.79,0,0,0-.4-.07c-.32,0-.8,0-1,.3a1.31,1.31,0,0,0,.05,1.2,2.89,2.89,0,0,0,1,1.13c.06,0,.15-.08.1-.12s-1.2-.95-1.13-1.94c.05-.58.91-.46,1.29-.39a4.8,4.8,0,0,1,1.1.39S13.59,9.44,13.56,9.42Z"/><g class="cls-10"><path class="cls-11" d="M19.31,7.88c-.08,1.13-.85,2-1.72,1.94a1.86,1.86,0,0,1-1.41-2.17c.08-1.14.84-2,1.71-1.94A1.86,1.86,0,0,1,19.31,7.88Z"/><path class="cls-12" d="M18.72,8c0,.68-.5,1.2-1,1.16a1.11,1.11,0,0,1-.85-1.29c0-.68.51-1.2,1-1.16A1.1,1.1,0,0,1,18.72,8Z"/><path class="cls-3" d="M17.84,7.17c0,.42-.3.74-.6.72s-.53-.38-.5-.8.3-.74.61-.72S17.87,6.75,17.84,7.17Z"/></g><g class="cls-13"><path class="cls-11" d="M11.41,7.52c-.08,1.09-.81,1.92-1.64,1.86A1.79,1.79,0,0,1,8.42,7.3c.08-1.08.81-1.91,1.64-1.85A1.79,1.79,0,0,1,11.41,7.52Z"/><path class="cls-12" d="M10.85,7.6c0,.65-.48,1.15-1,1.11a1.06,1.06,0,0,1-.8-1.24c0-.64.48-1.14,1-1.1A1,1,0,0,1,10.85,7.6Z"/><path class="cls-3" d="M10,6.85c0,.4-.29.71-.58.69s-.5-.37-.47-.77.29-.71.58-.69S10,6.44,10,6.85Z"/></g><path d="M16.93,10.77c0-.26-.17-.55-.45-.58a1.05,1.05,0,0,0-.74.31,9.13,9.13,0,0,1-1.13,1,4.39,4.39,0,0,1-1.47.64,2.82,2.82,0,0,1-.82,0,1.79,1.79,0,0,1-.86-.17c-.18-.11-.48-.31-.69-.11a.22.22,0,0,0,0,.32,2.44,2.44,0,0,0,1.2,1.37,3.31,3.31,0,0,0,2.27.34,3,3,0,0,0,1.85-1,2.69,2.69,0,0,0,.67-.95A2,2,0,0,0,16.93,10.77Z"/><path class="cls-14" d="M16.24,12.55l-.08.12-.46.5a3.05,3.05,0,0,1-1.78.67,3.19,3.19,0,0,1-2-.42,2.61,2.61,0,0,1-1.07-1.11h0a.39.39,0,0,1-.06-.2.24.24,0,0,1,0-.08.37.37,0,0,1,.07-.12.43.43,0,0,1,.38.06,3.62,3.62,0,0,0,.32.22h0a3.93,3.93,0,0,0,1,.12,3.31,3.31,0,0,0,1.74-.52,5,5,0,0,0,1.39-1.16,1,1,0,0,1,.61-.32.32.32,0,0,1,.39.21h0a.61.61,0,0,1,.05.12.83.83,0,0,1,.05.38A2.14,2.14,0,0,1,16.24,12.55Z"/><path class="cls-3" d="M14,12.6a2,2,0,0,0-1,1.21,3.33,3.33,0,0,0,.95,0A3.48,3.48,0,0,0,15,13.6C14.87,13.12,14.59,12.36,14,12.6Z"/><path class="cls-15" d="M14.16,13.28a1.44,1.44,0,0,1,.71,0c-.15-.42-.41-.82-.85-.64a1.71,1.71,0,0,0-.8.71A2.3,2.3,0,0,0,14.16,13.28Z"/><path class="cls-16" d="M16.82,10.87a.8.8,0,0,0-.85.61,2.26,2.26,0,0,0,0,1.41l.21-.22.08-.12A2.14,2.14,0,0,0,16.82,11,.43.43,0,0,0,16.82,10.87Z"/><path class="cls-17" d="M15,12.23a3.17,3.17,0,0,0-1,1.6,3,3,0,0,0,1.68-.66l.46-.5.08-.12a2.77,2.77,0,0,0,.5-.86A2.12,2.12,0,0,0,15,12.23Z"/><path class="cls-18" d="M15.11,12.32a2.65,2.65,0,0,1,.69-.56,1.8,1.8,0,0,0-.82.47,3.17,3.17,0,0,0-1,1.6l.31-.05A2.75,2.75,0,0,1,15.11,12.32Z"/><path class="cls-19" d="M16.44,11.67a2.15,2.15,0,0,1-1.09,1.55c-.3.19-.88.52-1.26.35a2.5,2.5,0,0,0-.07.26,3,3,0,0,0,1.68-.66l.46-.5.08-.12a2.77,2.77,0,0,0,.5-.86Z"/><path class="cls-3" d="M12.54,12.9a4,4,0,0,0,2.88-.71,3.28,3.28,0,0,0,.74-.8,4.31,4.31,0,0,0-.05-1,1,1,0,0,0-.39.26,5,5,0,0,1-1.39,1.16,3.31,3.31,0,0,1-1.74.52,5.26,5.26,0,0,1-.89-.08A2.41,2.41,0,0,0,12.54,12.9Z"/><path class="cls-15" d="M13.38,12.46A4.7,4.7,0,0,0,15,11.88a2.65,2.65,0,0,0,.6-.44,1.73,1.73,0,0,1,.24-.23.32.32,0,0,1,.37-.05,5.12,5.12,0,0,0-.06-.78,1,1,0,0,0-.39.26,5,5,0,0,1-1.39,1.16,3.31,3.31,0,0,1-1.74.52c-.25,0-.51,0-.76-.05A1.94,1.94,0,0,0,13.38,12.46Z"/><path class="cls-20" d="M20.91,11c0-.65-.83-1.15-1.81-1.11s-1.75.59-1.72,1.24.83,1.15,1.81,1.11S20.94,11.61,20.91,11Zm-2.61-.23a.27.27,0,0,1-.26.13.22.22,0,0,1-.16-.16.38.38,0,0,1,.35-.43.07.07,0,0,1,.07.06.22.22,0,0,1,.1.09A.33.33,0,0,1,18.3,10.73Zm.24-.58h0c0-.07.07-.15.11-.07a.14.14,0,0,1,0,.07C18.68,10.22,18.54,10.23,18.54,10.15Z"/><path class="cls-21" d="M6.41,10.22c0-.51.65-.89,1.42-.87s1.36.47,1.34,1-.65.9-1.41.87S6.39,10.73,6.41,10.22Zm2-.18a.21.21,0,0,0,.2.1A.18.18,0,0,0,8.78,10a.28.28,0,0,0-.28-.33s-.05,0-.05,0a.18.18,0,0,0-.08.07A.24.24,0,0,0,8.45,10Zm-.19-.45h0c0-.06,0-.12-.08-.06a.14.14,0,0,0,0,.06C8.15,9.65,8.26,9.65,8.26,9.59Z"/></g></g></g></svg>