<svg xmlns="http://www.w3.org/2000/svg" xmlns:xlink="http://www.w3.org/1999/xlink" viewBox="0 0 31.07 45.37"><defs><style>.cls-1{isolation:isolate;}.cls-2{fill:#fff;}.cls-3{fill:#653624;}.cls-4{fill:url(#linear-gradient);}.cls-5{fill:url(#linear-gradient-2);}.cls-16,.cls-6{fill:#f3d1bb;}.cls-11,.cls-14,.cls-15,.cls-19,.cls-6,.cls-7,.cls-9{mix-blend-mode:multiply;}.cls-7{fill:#d5d7d8;}.cls-8,.cls-9{fill:#aa2d2d;}.cls-10,.cls-11,.cls-17{fill:#f26a60;}.cls-12{fill:#974d34;}.cls-13{fill:#440900;}.cls-14,.cls-15{opacity:0.6;}.cls-14{fill:url(#linear-gradient-3);}.cls-15{fill:url(#linear-gradient-4);}.cls-16{mix-blend-mode:screen;}.cls-17{mix-blend-mode:color-dodge;}.cls-18{fill:#7697ce;}.cls-19{fill:#d8d9da;}</style><linearGradient id="linear-gradient" x1="14.57" y1="40.56" x2="14.57" y2="7.04" gradientUnits="userSpaceOnUse"><stop offset="0" stop-color="#ffe050"/><stop offset="1" stop-color="#fcca2e"/></linearGradient><linearGradient id="linear-gradient-2" x1="13.91" y1="7.15" x2="13.91" y2="38" xlink:href="#linear-gradient"/><linearGradient id="linear-gradient-3" x1="87.86" y1="363.79" x2="87.26" y2="361.72" gradientTransform="matrix(0.93, 0.36, -0.36, 0.93, 73.03, -360.86)" gradientUnits="userSpaceOnUse"><stop offset="0" stop-color="#fff"/><stop offset="1" stop-color="#ea9c9e"/></linearGradient><linearGradient id="linear-gradient-4" x1="150.58" y1="660.38" x2="149.96" y2="658.24" gradientTransform="translate(198.77 -642.44) rotate(28.45)" xlink:href="#linear-gradient-3"/></defs><g class="cls-1"><g id="Layer_2" data-name="Layer 2"><g id="Layer_1-2" data-name="Layer 1"><path class="cls-2" d="M3.37,34.51h.22l10-.66.18,8.23a3.35,3.35,0,0,0,1.28,2.58,3.41,3.41,0,0,0,2.08.72,3.72,3.72,0,0,0,.74-.08l7.7-1.73a3.36,3.36,0,0,0,2.62-3l.6-8.07a3.34,3.34,0,0,0,1.61-2.55l.64-6.32a3.3,3.3,0,0,0-.95-2.7,3.16,3.16,0,0,0-.44-.38l.86-11.78A3.37,3.37,0,0,0,27.91,5.2c0-.18-.05-.34-.07-.49a5.44,5.44,0,0,0-.31-1,1.88,1.88,0,0,0-.15-1.14A3.79,3.79,0,0,0,24.09.12a2.74,2.74,0,0,0-2.24,1.2l0,0A2.64,2.64,0,0,0,20.14.08,3.07,3.07,0,0,0,19.47,0a4,4,0,0,0-3,1.63A2,2,0,0,0,16,2.74a5.31,5.31,0,0,0-.59.78,4.84,4.84,0,0,0-.77,2.18v.11a1.91,1.91,0,0,0-1.14,1.44,3.9,3.9,0,0,0-.19.35l-.59-.49a3.39,3.39,0,0,0-2.14-.76,3.27,3.27,0,0,0-.54,0,2,2,0,0,0-.42,0,1.88,1.88,0,0,0-.53.07A1.93,1.93,0,0,0,7.79,7.66L7.66,8a3.71,3.71,0,0,0-.28.61L.18,30.07A3.33,3.33,0,0,0,.7,33.19,3.4,3.4,0,0,0,3.37,34.51Z"/><path d="M3.37,33.06h.12L15,32.3,15.22,42A1.94,1.94,0,0,0,16,43.52a2,2,0,0,0,1.19.41,2,2,0,0,0,.42,0l7.7-1.73a1.91,1.91,0,0,0,1.5-1.73l.67-9A1.93,1.93,0,0,0,29,29.76l.64-6.32a1.9,1.9,0,0,0-.55-1.55,1.85,1.85,0,0,0-.92-.52l.93-12.75a1.91,1.91,0,0,0-1.92-2.06h-.09l-.63,0a3.78,3.78,0,0,0,0-1.59,3.36,3.36,0,0,0-.48-1.21.58.58,0,0,0,.1-.12.53.53,0,0,0,0-.49,2.41,2.41,0,0,0-2-1.62A1.54,1.54,0,0,0,22.7,3.17a.52.52,0,0,0,.17.4.46.46,0,0,0,.18.13,4,4,0,0,0-.61,1.37.43.43,0,0,0,0,.12,5.82,5.82,0,0,0-.17,1.28v.28l-2.34.12a5.21,5.21,0,0,0,.24-1.06.43.43,0,0,0,0-.11,3.93,3.93,0,0,0-.09-1.47,1.91,1.91,0,0,0-.61-1A1.1,1.1,0,0,0,18.93,3h-.06a1.41,1.41,0,0,1,.35-.05h.11c.27,0,.4.33.44.51a.51.51,0,0,0,.49.41.57.57,0,0,0,.54-.43A1.87,1.87,0,0,0,20.6,2a1.25,1.25,0,0,0-.77-.56,2.2,2.2,0,0,0-.36,0,2.74,2.74,0,0,0-1.93,1.11.51.51,0,0,0,.06.72,3.05,3.05,0,0,0-1,1,3.5,3.5,0,0,0-.55,1.49.5.5,0,0,0,.13.37h0a4.36,4.36,0,0,0,0,.51,2.58,2.58,0,0,0,0,.39l-.85,0a.47.47,0,0,0-.46.49v.16a2,2,0,0,0-.48,1.32l0,1.34L11.79,8.23a1.87,1.87,0,0,0-1.22-.44,2,2,0,0,0-.53.08l-.12,0h0a.51.51,0,0,0-.31-.11l-.13,0a.47.47,0,0,0-.32.31L9,8.66a1.55,1.55,0,0,0-.23.44L1.54,30.53a1.92,1.92,0,0,0,1.83,2.53Z"/><path class="cls-3" d="M3.37,32.58h.09l12-.79L15.7,42a1.42,1.42,0,0,0,1.44,1.41,1.73,1.73,0,0,0,.32,0l7.7-1.73a1.44,1.44,0,0,0,1.12-1.3L27,31h.18a1.44,1.44,0,0,0,1.34-1.29l.64-6.32a1.45,1.45,0,0,0-.41-1.16,1.41,1.41,0,0,0-1-.43h-.07l1-13.22a1.44,1.44,0,0,0-.41-1.11,1.42,1.42,0,0,0-1-.43h-.07l-10.81.54a1.45,1.45,0,0,0-1.37,1.48L15,11.45,11.49,8.6a1.42,1.42,0,0,0-.92-.33,1.32,1.32,0,0,0-.39.06,1.42,1.42,0,0,0-1,.92L2,30.68a1.43,1.43,0,0,0,1.37,1.9ZM14.19,23l1-2.95.08,2.86Z"/><path class="cls-4" d="M15.93,28.81,2.4,29.7,9.61,8.27l5.19,4.25L11.14,23.18l4.64-.39L15.39,7.58,26.2,7,25.12,22l1.62-.15-.64,6.32-1.43.1-.79,10.61-7.7,1.73Z"/><polygon class="cls-5" points="22.57 26.11 24 26.02 24.64 19.7 23.01 19.84 23.94 7.15 15.39 7.58 15.78 22.79 11.14 23.18 11.95 20.83 9.04 21.08 12.59 10.71 9.61 8.27 3.17 27.41 13.83 26.71 13.88 28.95 15.93 28.81 16.13 38 21.78 36.73 22.57 26.11"/><path class="cls-2" d="M10.13,11.47a21.9,21.9,0,0,0-2.56,5.12,19.88,19.88,0,0,0-1.69,5.46c0,.3.4.37.54.14a29.3,29.3,0,0,0,2.05-5.14,35.24,35.24,0,0,0,1.83-5.51.09.09,0,0,0-.17-.07Z"/><path class="cls-2" d="M5.23,23.65a3.18,3.18,0,0,0-.7,2.49.44.44,0,0,0,.79.11,2.74,2.74,0,0,0,.39-1.1c.09-.4.18-.79.25-1.19a.4.4,0,0,0-.73-.31Z"/><path class="cls-6" d="M18.8,8.51a2.17,2.17,0,0,0,0,1.13c.13.45.38,1.06.95,1s1.14-.85,1.31-1.48A1.43,1.43,0,0,1,18.8,8.51Z"/><path d="M19.62,4.39a1.49,1.49,0,0,0-.45-.76.62.62,0,0,0-.34-.2,1.39,1.39,0,0,0-1,.25,2.6,2.6,0,0,0-.82.86,3.13,3.13,0,0,0-.48,1.27s0,0,0,0a1.87,1.87,0,0,0,.07-.22h0s0,0,0-.06a5,5,0,0,1,.26-.64,3.13,3.13,0,0,1,.74-1,1.42,1.42,0,0,1,1.12-.38.61.61,0,0,1,.44.31,1,1,0,0,0-1.09-.09,2.65,2.65,0,0,0-1,1.15,3.54,3.54,0,0,0-.44,1.74,1.75,1.75,0,0,0,.33,1h0a2.26,2.26,0,0,0-.43-.17s-.07,0,0,.07a5.61,5.61,0,0,1,1.43.89s0,0,0-.05a1,1,0,0,0-.23-.24A1.17,1.17,0,0,0,18.57,8a2,2,0,0,0,.84-1.17,4.74,4.74,0,0,0,.26-1.16l0,0A3.19,3.19,0,0,0,19.62,4.39Z"/><path class="cls-2" d="M18.63,7.9a1.14,1.14,0,0,1-1.31-.05,1.61,1.61,0,0,1-.57-1.32,3.17,3.17,0,0,1,1.44-2.71.93.93,0,0,1,1.24.5,2,2,0,0,1,.14.41c0,.27,0,.56,0,.83a5,5,0,0,1-.17.94A2.38,2.38,0,0,1,18.63,7.9Z"/><path class="cls-7" d="M19.61,5.56c0-.27,0-.56,0-.83a2,2,0,0,0-.14-.41.93.93,0,0,0-1.24-.5,3.17,3.17,0,0,0-1.44,2.71A2.59,2.59,0,0,0,16.8,7,3.42,3.42,0,0,1,17,5.38c.25-.6.93-1.51,1.71-1.3s.82,1.07.81,1.68a4.13,4.13,0,0,1-.08.78l0,0A5,5,0,0,0,19.61,5.56Z"/><path d="M22.9,5.21a0,0,0,0,0,0,0,5.24,5.24,0,0,0-.18,1.25A2.19,2.19,0,0,0,23.13,8a1.24,1.24,0,0,0,.76.45,1.07,1.07,0,0,0-.32.16s0,.07,0,.06a5.92,5.92,0,0,1,1.75-.35s0-.07,0-.08a4,4,0,0,0-.49,0h0a1.8,1.8,0,0,0,.7-.88,3.69,3.69,0,0,0,.22-1.89,2.87,2.87,0,0,0-.58-1.52,1,1,0,0,0-1.11-.31.66.66,0,0,1,.55-.15,1.49,1.49,0,0,1,1,.8,3.75,3.75,0,0,1,.37,1.22,5.88,5.88,0,0,1,0,.73.13.13,0,0,1,0,.06h0a2.29,2.29,0,0,0,0,.25s0,0,0,0a3.18,3.18,0,0,0,0-1.44,2.68,2.68,0,0,0-.49-1.15,1.46,1.46,0,0,0-.88-.62.73.73,0,0,0-.41.07c-.28,0-.58.4-.73.58A3.52,3.52,0,0,0,22.9,5.21Z"/><path class="cls-2" d="M22.84,6.13a5.56,5.56,0,0,1,.18-1c.12-.26.21-.55.35-.81A2,2,0,0,1,23.66,4a1,1,0,0,1,1.41,0,3.36,3.36,0,0,1,.42,3.22,1.72,1.72,0,0,1-1.06,1.09,1.19,1.19,0,0,1-1.31-.45A2.44,2.44,0,0,1,22.84,6.13Z"/><path class="cls-7" d="M25.07,4a1,1,0,0,0-1.41,0,2,2,0,0,0-.29.35c-.14.26-.23.55-.35.81a5.24,5.24,0,0,0-.18,1c0-.17.07-.35.11-.51.13-.57.36-1.51,1-1.69a.94.94,0,0,1,.83.3,2.33,2.33,0,0,1,.67,1.31,4.8,4.8,0,0,1,0,1.73l0-.07A3.36,3.36,0,0,0,25.07,4Z"/><path d="M23.18,3.18s.06.11.08.06a1.05,1.05,0,0,1,1.07-.65,2.22,2.22,0,0,1,1.2.7.31.31,0,0,0,0,.1s.08,0,.05,0c-.27-.6-.79-1.31-1.51-1.34S23.2,2.68,23.18,3.18Z"/><path d="M23.31,3a.93.93,0,0,1,.93-.79,1.71,1.71,0,0,1,1.16.91,1.62,1.62,0,0,0-1.09-.58A1.08,1.08,0,0,0,23.31,3Z"/><path d="M19.72,2a2,2,0,0,0-1.81.91c0,.05,0,.06.05,0L18,2.8a2.13,2.13,0,0,1,1.33-.37,1,1,0,0,1,.87.9s.09,0,.09,0C20.45,2.8,20.3,2.08,19.72,2Z"/><path d="M19.42,2.34a1.67,1.67,0,0,0-1.21.29A1.74,1.74,0,0,1,19.57,2a.93.93,0,0,1,.69,1A1.07,1.07,0,0,0,19.42,2.34Z"/><path d="M20.07,8l.11-.1.21-.2s0-.06,0,0l-.2.17A.8.8,0,0,0,20,8a1.48,1.48,0,0,0-.3-.26c-.37-.21-.59,0-.8.3a2.19,2.19,0,0,0,.6,2.77s0,0,0,0a3,3,0,0,1-.79-2A1.7,1.7,0,0,1,19,8.11a1.4,1.4,0,0,1,.15-.24c.2-.26.4-.15.59,0a1.36,1.36,0,0,1,.57,1s.06,0,.06,0A1.25,1.25,0,0,0,20.07,8Z"/><path d="M25.59,11.73c0-.16,0-.32,0-.48a1.05,1.05,0,0,0-.22-.56v0h0a.89.89,0,0,0-.48-.29,1.59,1.59,0,0,0-1.12.25,3.51,3.51,0,0,0-.53.4,3.28,3.28,0,0,1-.82.46,5.94,5.94,0,0,1-3.47,0,2.35,2.35,0,0,0-.89-.13,1,1,0,0,0-.47.12.53.53,0,0,0-.35.46,2.54,2.54,0,0,0,.73,1.58,4,4,0,0,0,1.47,1.18,7.09,7.09,0,0,0,2.28.53,3.67,3.67,0,0,0,3.27-1.17A3,3,0,0,0,25.59,11.73Z"/><path class="cls-8" d="M22.07,15.19a5.82,5.82,0,0,1-3.41-1.06,4.4,4.4,0,0,1-1-1.19,1.52,1.52,0,0,1-.33-.91A.63.63,0,0,1,18,11.5a2,2,0,0,1,.65.07,7.43,7.43,0,0,0,1.23.24,5.83,5.83,0,0,0,2.44-.23,4.07,4.07,0,0,0,.88-.46,2.66,2.66,0,0,1,1.23-.65.81.81,0,0,1,.95.52,4.56,4.56,0,0,1,.16,1.15c0,.13,0,.26,0,.36A3,3,0,0,1,25,13.81,3.28,3.28,0,0,1,22.07,15.19Z"/><path class="cls-2" d="M21.92,14c-.42-.16-.92.18-1.23.43a4,4,0,0,0-.51.5,7.59,7.59,0,0,0,1.57.27C22,14.7,22.27,14.11,21.92,14Z"/><path class="cls-9" d="M24.72,12c-.72.06-.3.84-.27,1.26s-.39.37-.59.19.05-.58.07-.85c.05-.5-.66-.32-.89-.15-.52.38-.16.86.25,1.15s.62.55.47,1a3.07,3.07,0,0,1-.14.34A3,3,0,0,0,25,13.81a3.07,3.07,0,0,0,.44-1.27A.74.74,0,0,0,24.72,12Z"/><path class="cls-10" d="M22.8,13.88a2.85,2.85,0,0,0-1.75,1.21,7,7,0,0,0,1,.1A3.29,3.29,0,0,0,25,13.86C24.41,13.43,23.42,13.74,22.8,13.88Z"/><path class="cls-11" d="M24.44,13.65c.06.43-.37.69-.7.89a3.1,3.1,0,0,1-1.45.46c-.25,0-.81.05-.91-.28a.06.06,0,0,1,0,0,2.15,2.15,0,0,0-.32.41,7,7,0,0,0,1,.1A3.29,3.29,0,0,0,25,13.86,1.19,1.19,0,0,0,24.44,13.65Z"/><path class="cls-2" d="M19.5,12.47a5.83,5.83,0,0,0,2.28,0,5.55,5.55,0,0,0,2.54-1,6.7,6.7,0,0,0,.82-.78.9.9,0,0,0-.76-.21,2.66,2.66,0,0,0-1.23.65,4.07,4.07,0,0,1-.88.46,5.83,5.83,0,0,1-2.44.23,7.43,7.43,0,0,1-1.23-.24A2.1,2.1,0,0,0,18,11.5,2,2,0,0,0,19.5,12.47Z"/><path class="cls-12" d="M25.32,6.44c-.13.67-.65,1.13-1.16,1a1.12,1.12,0,0,1-.69-1.39c.13-.68.65-1.14,1.16-1A1.12,1.12,0,0,1,25.32,6.44Z"/><path class="cls-13" d="M24.94,6.43a.59.59,0,1,1-1.11-.22c.08-.4.39-.68.7-.62A.68.68,0,0,1,24.94,6.43Z"/><path class="cls-2" d="M25.14,6c-.05.25-.23.42-.41.38s-.29-.26-.24-.51.24-.42.42-.39A.43.43,0,0,1,25.14,6Z"/><path class="cls-12" d="M19.13,6.37A1.12,1.12,0,0,1,18,7.4,1.12,1.12,0,0,1,17.27,6c.14-.67.66-1.13,1.17-1A1.13,1.13,0,0,1,19.13,6.37Z"/><path class="cls-13" d="M18.74,6.35c-.07.4-.39.68-.69.62a.66.66,0,0,1-.41-.83c.08-.4.39-.68.69-.62A.66.66,0,0,1,18.74,6.35Z"/><path class="cls-2" d="M19,5.91c-.05.25-.24.43-.42.39s-.28-.26-.23-.51.23-.43.41-.39S19,5.66,19,5.91Z"/><path class="cls-14" d="M27,9.51c.07-.55-.55-1.09-1.38-1.19s-1.57.26-1.64.81.55,1.09,1.39,1.2S27,10.07,27,9.51ZM24.84,9A.28.28,0,0,1,24.6,9a.2.2,0,0,1-.12-.16.31.31,0,0,1,.36-.31s.05,0,.05,0a.15.15,0,0,1,.07.1A.29.29,0,0,1,24.84,9Zm.28-.47h0c0-.07.08-.12.11-.05s0,0,0,.06S25.11,8.56,25.12,8.49Z"/><path class="cls-15" d="M18.16,9.6c.25-.5-.16-1.21-.92-1.58s-1.56-.27-1.81.23.16,1.21.92,1.59S17.91,10.1,18.16,9.6ZM16.28,8.36a.25.25,0,0,1-.25,0A.2.2,0,0,1,16,8.16.32.32,0,0,1,16.41,8a0,0,0,0,1,0,.07.15.15,0,0,1,0,.11A.29.29,0,0,1,16.28,8.36ZM16.7,8h0a.06.06,0,0,1,.12,0,.14.14,0,0,1,0,.06C16.77,8.13,16.67,8.08,16.7,8Z"/><path class="cls-16" d="M19.84,8.24A.65.65,0,0,0,19.42,8a.32.32,0,0,0-.14,0c-.14,0-.18.12-.23.24s.06.31.12.41a.57.57,0,0,0,.11.11.41.41,0,0,0,.21.1h.09C19.86,8.81,20,8.46,19.84,8.24Z"/><path class="cls-17" d="M22.49,14.48c0-.11-.16-.15-.24-.17a.63.63,0,0,0-.47.16.26.26,0,0,0-.12.28c0,.1.15.13.23.13a.64.64,0,0,0,.4-.13C22.38,14.69,22.5,14.6,22.49,14.48Z"/><path class="cls-17" d="M22.47,14.22h0s0,0,0,0h0s-.11.08-.05.1h0s.06,0,.08,0Z"/><path class="cls-18" d="M19.08,11.85v0a.12.12,0,0,0-.1,0,0,0,0,0,0,0,0,.11.11,0,0,0-.07.06.31.31,0,0,0,0,.19.3.3,0,0,0,.08.17c.11.09.23-.05.24-.15S19.16,11.87,19.08,11.85Z"/><path class="cls-18" d="M20.18,12c-.08,0-.16.05-.18.12h0a.17.17,0,0,0,.11.2.18.18,0,0,0,.2-.14A.17.17,0,0,0,20.18,12Z"/><path class="cls-18" d="M21.72,12.13a.17.17,0,0,0-.18-.17h0c-.06,0-.13,0-.15.1a.19.19,0,0,0,.13.22h0a.11.11,0,0,0,.1,0,.18.18,0,0,0,.07-.09S21.71,12.15,21.72,12.13Z"/><path class="cls-18" d="M23,11.79a.24.24,0,0,0-.14-.24c-.08-.06-.19,0-.23.09a.32.32,0,0,0,0,.27.11.11,0,0,0,.14.06h0a.12.12,0,0,0,.13,0A.22.22,0,0,0,23,11.79Z"/><path class="cls-18" d="M24.06,11c-.08-.11-.2,0-.25,0a.14.14,0,0,0,0,.06.17.17,0,0,0,0,.17c.05.12.19.08.26,0a.25.25,0,0,0,.08-.14A.19.19,0,0,0,24.06,11Z"/><path class="cls-19" d="M24.57,10.62a4.91,4.91,0,0,1-2.91,1.51,5.16,5.16,0,0,1-3.31-.43s-.05,0,0,0a4.87,4.87,0,0,0,3.5.44,5.05,5.05,0,0,0,2.81-1.53C24.68,10.6,24.61,10.58,24.57,10.62Z"/></g></g></g></svg>