<svg xmlns="http://www.w3.org/2000/svg" xmlns:xlink="http://www.w3.org/1999/xlink" viewBox="0 0 29.1 43.63"><defs><style>.cls-1{fill:none;}.cls-2{isolation:isolate;}.cls-3{fill:#fff;}.cls-4{fill:#653624;}.cls-5{fill:url(#linear-gradient);}.cls-6{fill:url(#linear-gradient-2);}.cls-7,.cls-8{fill:#f3d1bb;}.cls-7{mix-blend-mode:screen;}.cls-11,.cls-17,.cls-18,.cls-19,.cls-8{mix-blend-mode:multiply;}.cls-9{fill:#c38264;}.cls-10{fill:#eaeaea;}.cls-11{fill:#cbccce;opacity:0.5;}.cls-12{fill:#974d34;}.cls-13{fill:#440900;}.cls-14{clip-path:url(#clip-path);}.cls-15{fill:#aa2d2d;}.cls-16{fill:#f26a60;}.cls-17,.cls-18{opacity:0.6;}.cls-17{fill:url(#linear-gradient-3);}.cls-18{fill:url(#linear-gradient-4);}.cls-19{opacity:0.4;}</style><linearGradient id="linear-gradient" x1="13.59" y1="38.82" x2="13.59" y2="5.25" gradientUnits="userSpaceOnUse"><stop offset="0" stop-color="#ffe050"/><stop offset="1" stop-color="#fcca2e"/></linearGradient><linearGradient id="linear-gradient-2" x1="12.46" y1="5.41" x2="12.46" y2="36.72" xlink:href="#linear-gradient"/><clipPath id="clip-path"><path class="cls-1" d="M6.06,6.52a2.08,2.08,0,0,1,1.21.64,1.48,1.48,0,0,0,.42,0c.92-.2,1-1.23.64-1.92C8.08,4.7,7.42,4,6.81,4.08h0l-.13,0h0a.75.75,0,0,0-.33.1.58.58,0,0,0-.21.26c-.05.07-.09.15-.13.21a1.94,1.94,0,0,0-.14,1.36A1.35,1.35,0,0,0,6.06,6.52Z"/></clipPath><linearGradient id="linear-gradient-3" x1="3052.83" y1="1024.77" x2="3052.23" y2="1022.69" gradientTransform="matrix(-0.94, -0.35, -0.35, 0.94, 3223.69, 129.79)" gradientUnits="userSpaceOnUse"><stop offset="0" stop-color="#fff"/><stop offset="1" stop-color="#ea9c9e"/></linearGradient><linearGradient id="linear-gradient-4" x1="3045" y1="1022.68" x2="3044.26" y2="1020.11" xlink:href="#linear-gradient-3"/></defs><g class="cls-2"><g id="Layer_2" data-name="Layer 2"><g id="Layer_1-2" data-name="Layer 1"><path class="cls-3" d="M.87,35.9l.17.29c.13.22.26.42.39.62l.19.29c.18.26.36.51.56.77l0,0a13.82,13.82,0,0,0,4.26,3.7,15.57,15.57,0,0,0,7.55,2,15.24,15.24,0,0,0,5.44-1,15.65,15.65,0,0,0,4.71-2.8,14.48,14.48,0,0,0,3.4-4.3A12.23,12.23,0,0,0,29,29.8a1.69,1.69,0,0,0,0-.23l-.05-.74a14.65,14.65,0,0,0-1.59-5.66,16.84,16.84,0,0,0-3.08-4.27l.28,0h.34a3.35,3.35,0,0,0,3.35-3L29.08,7a3.36,3.36,0,0,0-3.35-3.7H25.5l-.37,0a2.19,2.19,0,0,0-.36,0l-8.41.58a3.75,3.75,0,0,0-1-2,3.24,3.24,0,0,0-2.34-1h-.19a3.07,3.07,0,0,0-2.28,1.25A4.22,4.22,0,0,0,7.14,0H7A4.09,4.09,0,0,0,3.25,3.19a2,2,0,0,0,.21,1.66l0,.14a1.89,1.89,0,0,0-1,1.36A3.3,3.3,0,0,0,1.93,8L1.48,22.93a3.41,3.41,0,0,0,2.09,3.22L.74,31.05a2,2,0,0,0-.23.61l-.06.11A3.36,3.36,0,0,0,.36,35Q.62,35.45.87,35.9Zm12.55-7.69a.13.13,0,0,1,0,.06v.54a1.85,1.85,0,0,1,0,.24,4.22,4.22,0,0,1-1-.62l-.28-.23-.08-.07c-.08-.08-.16-.15-.25-.25a5,5,0,0,1-.54-.65q-.22-.32-.45-.69a8.41,8.41,0,0,1,1.39.43,4.49,4.49,0,0,1,.42.22l.3.2.05.05a2.06,2.06,0,0,1,.27.23.53.53,0,0,1,.13.35C13.41,28.1,13.42,28.17,13.42,28.21Z"/><path d="M2.12,35.18a3.09,3.09,0,0,0,.16.27l.36.57s.13.21.17.26c.16.24.33.47.5.69l0,.06a12.46,12.46,0,0,0,3.82,3.31A14,14,0,0,0,14,42.19,13.72,13.72,0,0,0,19,41.27a14.19,14.19,0,0,0,4.28-2.54,13.07,13.07,0,0,0,3.06-3.87,10.86,10.86,0,0,0,1.21-5.06.53.53,0,0,0,0-.13l-.05-.74A13.31,13.31,0,0,0,26,23.82a15.6,15.6,0,0,0-3.27-4.34c-.27-.25-.53-.47-.73-.62l-.12-.11-.09-.07h0l-.37-.28-.09-.07-.58-.4c-.15-.11-.31-.21-.47-.31l-.69-.4-.09-.05L19.21,17,19,16.9l5.63.59h.2a1.91,1.91,0,0,0,1.22-.43,2,2,0,0,0,.7-1.3l.89-8.89a1.93,1.93,0,0,0-1.92-2.11H25.6L25,4.82a.38.38,0,0,0-.21-.05l-9.54.67,0,0a.53.53,0,0,0-.31-.19.47.47,0,0,0-.12-.07l0,0a.52.52,0,0,0-.3-.24.59.59,0,0,0,.19,0,.51.51,0,0,0,.21-.15.57.57,0,0,0,.1-.42,2.46,2.46,0,0,0-.59-1.33,1.82,1.82,0,0,0-1.31-.58H13a2,2,0,0,0-1.71,1.88.66.66,0,0,0,.14.48.57.57,0,0,0,.36.18s0,0,0,0a.45.45,0,0,0-.19.17.53.53,0,0,0-.27.33l0,0a.56.56,0,0,0-.13.28l-1.78.13a.63.63,0,0,0,0-.19.53.53,0,0,0-.2-.31A2.5,2.5,0,0,0,9,5.09a.56.56,0,0,0-.35-.34,3.06,3.06,0,0,0-.44-.58A1.92,1.92,0,0,0,6.89,3.5a1.27,1.27,0,0,0-.55.13A1.5,1.5,0,0,0,5.78,4l-.1,0a2,2,0,0,1,1.45-.64A2.11,2.11,0,0,1,8,3.58a3.37,3.37,0,0,1,.44.26,1.21,1.21,0,0,1,.28.21.53.53,0,0,0,.43.24.5.5,0,0,0,.21,0A.43.43,0,0,0,9.64,4a.54.54,0,0,0,0-.48A3,3,0,0,0,7.11,1.44H7A2.76,2.76,0,0,0,4.62,3.63a.6.6,0,0,0,.1.52.58.58,0,0,0,.42.22.45.45,0,0,0,.19,0,1.34,1.34,0,0,1-.07.18.52.52,0,0,0-.3.41,2.09,2.09,0,0,0,0,.25l0,0a.52.52,0,0,0-.14.36v.07a1.21,1.21,0,0,0,0,.19.7.7,0,0,0,.1.36l-.58,0a.49.49,0,0,0-.45.47v.19a1.92,1.92,0,0,0-.47,1.21L2.93,23a1.89,1.89,0,0,0,.64,1.49A2,2,0,0,0,4.85,25l.29,0c.37-.05.77-.1,1.18-.13s.87,0,1.34,0A17.42,17.42,0,0,1,10.4,25a10.3,10.3,0,0,1,2.39.66c.18.08.36.18.59.31a4.33,4.33,0,0,1,.44.3l.08.06a2.57,2.57,0,0,1,.41.37,1.92,1.92,0,0,1,.52,1.2s0,.07,0,.1,0,.2,0,.29v.54a4.84,4.84,0,0,1-.07.9l-.14.18a2.16,2.16,0,0,1-1.18.7,5.19,5.19,0,0,1-2-1.05l-.15-.12-.19-.16-.09-.08-.31-.3a8.4,8.4,0,0,1-.65-.8A11.07,11.07,0,0,1,9,26a1.88,1.88,0,0,0-1.65-1.16H7.22a1.82,1.82,0,0,0-.65.12.5.5,0,0,0-.29-.12h0a.49.49,0,0,0-.42.24L2,31.77a.45.45,0,0,0-.06.32l-.23.4a1.94,1.94,0,0,0-.05,1.83C1.8,34.62,2,34.9,2.12,35.18Z"/><path class="cls-4" d="M2.54,34.94c0,.08.09.15.15.26s.23.38.35.56l0,.06c0,.07.09.13.13.19a8,8,0,0,0,.48.66l0,.06a12,12,0,0,0,3.68,3.19A13.58,13.58,0,0,0,14,41.71a13.26,13.26,0,0,0,4.76-.89,13.86,13.86,0,0,0,4.13-2.45,12.5,12.5,0,0,0,3-3.74A10.37,10.37,0,0,0,27,29.8a.34.34,0,0,0,0-.1L27,29A12.69,12.69,0,0,0,25.59,24a15,15,0,0,0-3.17-4.21c-.25-.23-.5-.44-.73-.63l-.1-.08-.07-.06-.36-.26-.09-.07-.55-.39-.46-.3-.67-.39-.1,0-.3-.17c-.4-.21-.77-.38-1.13-.54A13.76,13.76,0,0,0,14.63,16L24.69,17h.15a1.42,1.42,0,0,0,.91-.32,1.48,1.48,0,0,0,.53-1l.89-8.89a1.45,1.45,0,0,0-.4-1.14,1.47,1.47,0,0,0-1-.44h-.1L5.19,6.68a1.45,1.45,0,0,0-1.34,1.4L3.41,23a1.4,1.4,0,0,0,.48,1.12,1.44,1.44,0,0,0,1,.37l.22,0c.38-.06.79-.11,1.21-.14s.9,0,1.38,0a18.24,18.24,0,0,1,2.81.23,10.61,10.61,0,0,1,2.5.69,6.67,6.67,0,0,1,.65.33l.49.33.1.07a4.78,4.78,0,0,1,.45.42,2.41,2.41,0,0,1,.65,1.48.22.22,0,0,1,0,.08,2.19,2.19,0,0,1,0,.36v.54a3,3,0,0,1-.45,1.88,1.18,1.18,0,0,1-1,.43,2.72,2.72,0,0,1-.55-.06,5.61,5.61,0,0,1-2.17-1.15l-.11-.09a3.28,3.28,0,0,1-.26-.22.23.23,0,0,1-.07-.07l-.31-.3,0,0a8.25,8.25,0,0,1-.69-.85,11.47,11.47,0,0,1-1.2-2.14,1.43,1.43,0,0,0-1.24-.87H7.22A1.45,1.45,0,0,0,6,26.06L2.12,32.73a1.42,1.42,0,0,0,0,1.37C2.23,34.39,2.38,34.67,2.54,34.94Z"/><path class="cls-5" d="M6.26,25.34a10.42,10.42,0,0,0,3.11,4.27A6,6,0,0,0,13,31.12a2.62,2.62,0,0,0,2-.91,4.21,4.21,0,0,0,.81-2.84v-.55a4,4,0,0,0,0-.59,3.91,3.91,0,0,0-1-2.32,6.43,6.43,0,0,0-2.17-1.48,12.7,12.7,0,0,0-2.84-.79,20,20,0,0,0-3-.25c-.53,0-1,0-1.48.05s-.91.09-1.33.15L4.33,6.68,24.77,5.25l-.89,8.89L11.14,12.8l-.34,3h.44a12.74,12.74,0,0,1,5.09,1,14.25,14.25,0,0,1,4.15,2.66,13.76,13.76,0,0,1,2.86,3.8,11.41,11.41,0,0,1,1.23,4.37l.05.75a9,9,0,0,1-1,4.17A11.18,11.18,0,0,1,21,35.83a12.22,12.22,0,0,1-3.7,2.2,11.81,11.81,0,0,1-4.25.79,12.18,12.18,0,0,1-5.93-1.6A11.74,11.74,0,0,1,2.41,32Z"/><path class="cls-6" d="M8.7,13.66l.34-3L21.78,12l.66-6.62L4.33,6.68,4,19.3H4.6a18.57,18.57,0,0,1,3,.25,11.92,11.92,0,0,1,2.84.79,6.33,6.33,0,0,1,2.18,1.48,3.84,3.84,0,0,1,.67,1,6.29,6.29,0,0,1,1.43,1.11,3.91,3.91,0,0,1,1,2.32,4,4,0,0,1,0,.59v.55A4.21,4.21,0,0,1,15,30.21a2.62,2.62,0,0,1-2,.91,6,6,0,0,1-3.6-1.51,8.64,8.64,0,0,1-1.76-1.85l-.35-.25a8.79,8.79,0,0,1-1.43-1.43L2.41,32a14.1,14.1,0,0,0,1.46,2.34A9,9,0,0,0,5,35.11,12.16,12.16,0,0,0,11,36.72a11.75,11.75,0,0,0,4.24-.79,12.48,12.48,0,0,0,3.71-2.2,11.19,11.19,0,0,0,2.61-3.31,8.85,8.85,0,0,0,1-4.17l-.05-.74a11.37,11.37,0,0,0-1.23-4.37,13.56,13.56,0,0,0-1.51-2.34,14.22,14.22,0,0,0-3.4-2,12.74,12.74,0,0,0-5.09-1H10.8l.23-2a14.75,14.75,0,0,0-1.89-.13Z"/><path class="cls-3" d="M5.58,8.08A12.75,12.75,0,0,0,4.75,12a10.41,10.41,0,0,0,.16,4.27.26.26,0,0,0,.5,0,18.57,18.57,0,0,0,.33-3.87A36.41,36.41,0,0,0,6,8.18c0-.18-.29-.3-.38-.1Z"/><path class="cls-3" d="M5.17,17.59a1.83,1.83,0,0,0-.29,1c0,.33.13.84.54.85s.44-.42.39-.7a6.27,6.27,0,0,1-.12-1,.28.28,0,0,0-.52-.14Z"/><path class="cls-7" d="M11.77,7.79c-.06-.33.59-.35.63,0v0C12.38,8,11.84,8.12,11.77,7.79Z"/><path class="cls-8" d="M12.45,8.11c-.13.58-.38,1.38-1,1.26S11,8.3,11.18,7.82A.88.88,0,0,0,12.45,8.11Z"/><path d="M13,2.82a1.3,1.3,0,0,1,1,.44,2.07,2.07,0,0,1,.47,1.08s0,0,0,0,0,0-.06,0a1.81,1.81,0,0,0-.62-.51A1.67,1.67,0,0,0,13,3.67a1.31,1.31,0,0,0-1.22.71c0,.06-.08,0-.07-.08C11.84,3.64,12.21,2.87,13,2.82Z"/><path class="cls-9" d="M13,3.55a1.74,1.74,0,0,1,.87.23,1.69,1.69,0,0,1,.55.48,1.84,1.84,0,0,0-.53-1A1.18,1.18,0,0,0,12.77,3a1.45,1.45,0,0,0-.9,1.07A1.36,1.36,0,0,1,13,3.55Z"/><path d="M7.09,1.92A2.61,2.61,0,0,1,9.24,3.74s0,.07,0,0h0s0,.07-.06,0a1.36,1.36,0,0,0-.43-.36,4.62,4.62,0,0,0-.48-.28,2.56,2.56,0,0,0-1.12-.26,2.57,2.57,0,0,0-1.95,1s-.09-.06-.08-.09C5.36,2.87,6,1.89,7.09,1.92Z"/><path class="cls-9" d="M7.18,2.76a2.61,2.61,0,0,1,1.22.35,2.3,2.3,0,0,1,.77.58A2.57,2.57,0,0,0,7.11,2.06C6.22,2,5.6,2.78,5.28,3.54A2.64,2.64,0,0,1,7.18,2.76Z"/><path d="M5.79,6.07A2,2,0,0,1,5.85,4.8a1.11,1.11,0,0,1,.68-.73c1.21-.65,3.23,2.48,1.26,3.14a1.52,1.52,0,0,1-.42.06l.18.26a.09.09,0,0,1,0,0,5,5,0,0,0-.46-.46,1.94,1.94,0,0,0-.82-.48,2.36,2.36,0,0,0-.59-.11,1.62,1.62,0,0,1,.31,0A1.38,1.38,0,0,1,5.79,6.07Z"/><path class="cls-10" d="M6.06,6.52a2.08,2.08,0,0,1,1.21.64,1.48,1.48,0,0,0,.42,0c.92-.2,1-1.23.64-1.92C8.08,4.7,7.42,4,6.81,4.08h0l-.13,0h0a.75.75,0,0,0-.33.1.58.58,0,0,0-.21.26c-.05.07-.09.15-.13.21a1.94,1.94,0,0,0-.14,1.36A1.35,1.35,0,0,0,6.06,6.52Z"/><path class="cls-11" d="M6.1,5.89a1.69,1.69,0,0,0,1.79.75.81.81,0,0,0,.6-.9,1.11,1.11,0,0,1-.8,1.4,1.48,1.48,0,0,1-.42,0,2.08,2.08,0,0,0-1.21-.64,1.35,1.35,0,0,1-.22-.47,2.12,2.12,0,0,1,0-1A2.16,2.16,0,0,0,6.1,5.89Z"/><path d="M12.4,4.71h0a.59.59,0,0,1,.42-.21A1.39,1.39,0,0,1,13.88,5a3.07,3.07,0,0,1,.63,1.13,2.8,2.8,0,0,1,.15.88,1.59,1.59,0,0,1,.3-.06h0c-.12.08-.28.11-.41.18h0a1.12,1.12,0,0,0-.32.23,1.08,1.08,0,0,0-.18.24,2.2,2.2,0,0,0-.17.25,3.47,3.47,0,0,1-.18.33s0,0,0-.05a.88.88,0,0,1,.07-.23,1.65,1.65,0,0,1-1.29-.47,2.36,2.36,0,0,1-.43-2.08A3.38,3.38,0,0,1,12.4,4.71Z"/><path class="cls-10" d="M12.43,7.22a1.62,1.62,0,0,0,1.4.54,2.91,2.91,0,0,1,.32-.46A1,1,0,0,1,14.58,7a2.38,2.38,0,0,0-.14-.89,2.92,2.92,0,0,0-.55-1,1.38,1.38,0,0,0-1-.51c-.4,0-.6.33-.74.65a2.59,2.59,0,0,0-.12.73A2,2,0,0,0,12.43,7.22Z"/><path class="cls-11" d="M12.25,5.41A2.43,2.43,0,0,0,13,7.08a1,1,0,0,0,1.53-.31s0,0,0-.08a1.15,1.15,0,0,1,0,.32,1,1,0,0,0-.43.29,2.91,2.91,0,0,0-.32.46,1.62,1.62,0,0,1-1.4-.54A2,2,0,0,1,12.05,6a2.59,2.59,0,0,1,.12-.73,1.3,1.3,0,0,1,.08-.17C12.24,5.19,12.25,5.31,12.25,5.41Z"/><path d="M11,7.41a3.54,3.54,0,0,1,.72-.19c0-.16-.09-.32-.14-.48s0-.06.05,0,.07.22.1.33l.06.17c.35,0,.69,0,.8.38a1.34,1.34,0,0,1-.15.8,2.9,2.9,0,0,1-.72,1s0,0,0,0A4,4,0,0,0,12.5,8c.21-.88-1-.55-1.46-.45C11,7.51,11,7.42,11,7.41Z"/><path d="M5.46,7h0s0,0,0,0h0a.05.05,0,0,1,0,.07s-.11.06-.12,0S5.43,7,5.46,7Z"/><path d="M5.44,7.37s0,.11,0,.1S5.39,7.35,5.44,7.37Z"/><path d="M5.46,7.73s0,.11,0,.09S5.41,7.71,5.46,7.73Z"/><path d="M5.89,7.64s0,0,0,0S5.88,7.63,5.89,7.64Z"/><path d="M5.92,7.06s0,.12,0,.1S5.87,7,5.92,7.06Z"/><path d="M6,7.55s0,0,0,0v0s0,.09,0,.07H6s0-.06,0-.09Z"/><path d="M6.18,7.48a.09.09,0,0,1,0,.07s0,0,0,0S6.15,7.46,6.18,7.48Z"/><path d="M6,8.31H6v0s0,0,0,0a.12.12,0,0,1-.05-.07C5.93,8.23,6,8.26,6,8.31Z"/><path d="M5.48,8.74s.08.08,0,.09h0s0-.05,0-.07Z"/><path d="M5.29,7.91s0,.12,0,.1S5.24,7.89,5.29,7.91Z"/><path d="M4.53,7.64s.08.07,0,.09l0,0h0a0,0,0,0,1,0-.06A.08.08,0,0,1,4.53,7.64Z"/><path d="M4.72,7s0,.11,0,.09S4.67,7,4.72,7Z"/><path d="M5.07,7s0,.08,0,.07S5,7,5.07,7Z"/><path d="M5,7.54s0,0,0,0S5,7.54,5,7.54Z"/><path d="M6.33,7.55s0,0,0,0S6.31,7.55,6.33,7.55Z"/><path d="M14.69,7.73h0a0,0,0,0,0,0,0h0s0,0,0,0,.08,0,.09,0S14.72,7.74,14.69,7.73Z"/><path d="M14.71,8s0,.09,0,.07S14.75,8,14.71,8Z"/><path d="M14.7,8.29s0,.09,0,.07S14.74,8.27,14.7,8.29Z"/><path d="M14.37,8.22s0,0,0,0S14.38,8.22,14.37,8.22Z"/><path d="M14.35,7.79s0,.09,0,.07S14.39,7.78,14.35,7.79Z"/><path d="M14.33,8.15s0,0,0,0h0s0,.08,0,.06h0s0-.05,0-.06Z"/><path d="M14.15,8.11s0,0,0,0,0,0,0,0S14.17,8.09,14.15,8.11Z"/><path d="M14.29,8.73h0v0s0,0,0,0a.07.07,0,0,0,0,0C14.34,8.67,14.29,8.69,14.29,8.73Z"/><path d="M14.68,9.05s-.06.06,0,.07h0s0,0,0,0Z"/><path d="M14.82,8.43s0,.09,0,.07S14.86,8.42,14.82,8.43Z"/><path d="M15.39,8.22s-.06.06,0,.07l0,0h0s0,0,0,0A.1.1,0,0,0,15.39,8.22Z"/><path d="M15.25,7.73s0,.09,0,.07S15.29,7.72,15.25,7.73Z"/><path d="M15,7.74s0,.06,0,0S15,7.73,15,7.74Z"/><path d="M15.06,8.15s0,0,0,0S15.07,8.15,15.06,8.15Z"/><path d="M14,8.16s0,0,0,0S14.06,8.15,14,8.16Z"/><path class="cls-12" d="M12.31,6.57c0,.62.47,1.08.94,1A1,1,0,0,0,14,6.43c-.06-.62-.48-1.08-.94-1A1,1,0,0,0,12.31,6.57Z"/><path class="cls-13" d="M12.38,6.61c0,.41.32.73.64.7a.69.69,0,0,0,.51-.8c0-.42-.33-.74-.64-.71A.69.69,0,0,0,12.38,6.61Z"/><path class="cls-10" d="M12.38,6.46c0,.22.07.42.23.44s.31-.14.34-.36-.07-.41-.23-.43S12.41,6.24,12.38,6.46Z"/><g class="cls-14"><path class="cls-12" d="M6,6c.06.66.51,1.16,1,1.12a1.07,1.07,0,0,0,.81-1.27c-.06-.66-.51-1.16-1-1.12A1.07,1.07,0,0,0,6,6Z"/><path class="cls-13" d="M6.08,6.07c0,.45.35.79.69.76A.74.74,0,0,0,7.32,6c0-.45-.35-.79-.69-.76A.74.74,0,0,0,6.08,6.07Z"/><path class="cls-10" d="M6.08,5.92c0,.23.08.44.25.46s.33-.14.36-.38-.08-.45-.25-.47S6.11,5.68,6.08,5.92Z"/></g><path class="cls-7" d="M10.15,11.47a7.42,7.42,0,0,0,1.24.11,2.14,2.14,0,0,1-1.06.11,1.52,1.52,0,0,1-1-.49A2.15,2.15,0,0,0,10.15,11.47Z"/><path class="cls-8" d="M7.78,9.52a.73.73,0,0,1,.37.42,6.42,6.42,0,0,0,.62,1,2.1,2.1,0,0,0,2.08.86c.34-.06.73-.26,1-.15l0,0a.81.81,0,0,1,.19.29.84.84,0,0,1-.08.38,1.17,1.17,0,0,1-.67.5,3.53,3.53,0,0,1-2,.13,3.54,3.54,0,0,1-1.65-1,2.42,2.42,0,0,1-.63-1.52C7.11,10.23,7.35,9.36,7.78,9.52Z"/><path class="cls-8" d="M6.76,9.58a1,1,0,0,1,.18-.83.52.52,0,0,1,.78-.07,1.51,1.51,0,0,1,.27.5l0,0v0c-.25-.27-.62-.49-.94-.2A1.27,1.27,0,0,0,6.76,9.58Z"/><path d="M7.46,9.77l0,0h0a.27.27,0,0,1,.35-.12h0a2.38,2.38,0,0,1,.39.78,2.59,2.59,0,0,0,1.6,1.52,2.13,2.13,0,0,0,1.06.1,2.52,2.52,0,0,0,.75-.28.25.25,0,0,1,.37.1.35.35,0,0,1-.06.38,1.7,1.7,0,0,1-1.33.66,3.41,3.41,0,0,1-2.05-.41,2.4,2.4,0,0,1-1.27-1.31,2.37,2.37,0,0,1,0-.92A1.89,1.89,0,0,1,7.46,9.77Z"/><path class="cls-15" d="M7.34,10.37a1.8,1.8,0,0,0,.14,1A2.89,2.89,0,0,0,9,12.54a3.37,3.37,0,0,0,1.6.24A1.82,1.82,0,0,0,12,12.09a.36.36,0,0,0,0-.1c0-.27-.15-.25-.28-.21a1.2,1.2,0,0,0-.21.13,1.81,1.81,0,0,1-.65.19,2.29,2.29,0,0,1-1.38-.26,2.82,2.82,0,0,1-1-.91,2.41,2.41,0,0,1-.3-.6c-.07-.18-.18-.62-.39-.67h0a.2.2,0,0,0-.13,0,.45.45,0,0,0-.17.23A1.2,1.2,0,0,0,7.34,10.37Z"/><path class="cls-16" d="M8.37,11.18a4.56,4.56,0,0,1,1.27,1.56,3.22,3.22,0,0,1-.69-.2,2.89,2.89,0,0,1-1.47-1.17,1.7,1.7,0,0,1-.14-1A6.76,6.76,0,0,1,8.37,11.18Z"/><path class="cls-10" d="M9.83,12.44A3.55,3.55,0,0,1,7.36,10.2a1,1,0,0,1,.09-.29.45.45,0,0,1,.17-.23.2.2,0,0,1,.13,0h0c.21.05.32.49.39.67a2.41,2.41,0,0,0,.3.6,2.82,2.82,0,0,0,1,.91,2.26,2.26,0,0,0,1.37.26A1,1,0,0,1,9.83,12.44Z"/><path d="M7.19,8.83c.31-.18.62.05.83.29,0,0,0,.06,0,0-.25-.25-.55-.4-.86-.17s-.27.48-.34.74c0,0,0,0,0,0A1.06,1.06,0,0,1,7.19,8.83Z"/><path class="cls-17" d="M4.93,7c.29-.48,1.11-.51,1.83-.07s1.06,1.18.77,1.66-1.11.51-1.83.07S4.64,7.44,4.93,7ZM7,7.89a.24.24,0,0,0,.14.21A.2.2,0,0,0,7.32,8a.32.32,0,0,0-.09-.47s-.05,0-.07,0a.11.11,0,0,0-.11,0A.26.26,0,0,0,7,7.89Zm.07-.54h0c.06,0,0-.15,0-.11a.12.12,0,0,0,0,0C6.92,7.35,7,7.41,7.06,7.35Z"/><path class="cls-18" d="M15.13,8.84c-.39.58-1,.83-1.4.57s-.38-.93,0-1.51,1-.83,1.41-.57S15.52,8.27,15.13,8.84Zm-1.35-.29a.11.11,0,0,0-.1,0s0,0-.06,0a.26.26,0,0,0,.1.38.16.16,0,0,0,.16,0,.2.2,0,0,0,0-.2A.21.21,0,0,0,13.78,8.55Zm0-.28-.05,0c-.06,0-.07.09,0,.1h0C13.73,8.38,13.78,8.3,13.73,8.27Z"/><g class="cls-19"><path d="M5.78,4.48s0,0,0,.06A3.74,3.74,0,0,0,5.68,6.3s0,0,0,0A2.71,2.71,0,0,1,5.78,4.48Z"/><path d="M5.49,5a5.09,5.09,0,0,0,0,.55,3.9,3.9,0,0,1,0,.58s0,0,0,0A3.58,3.58,0,0,1,5.44,5S5.49,5,5.49,5Z"/><path d="M5.31,5.56a.55.55,0,0,1,0,.18.77.77,0,0,0,0,.15s0,.06,0,0a.22.22,0,0,1,0-.16,1.92,1.92,0,0,1,0-.24S5.31,5.53,5.31,5.56Z"/><path d="M8.51,5.25s0-.07.05,0a2.32,2.32,0,0,1,.15.94A1.31,1.31,0,0,1,8.38,7s-.06-.05-.05-.08a1.94,1.94,0,0,0,.26-.61A2.16,2.16,0,0,0,8.51,5.25Z"/><path d="M8.82,5.75A1.33,1.33,0,0,1,8.63,6.9s-.06,0-.05-.07a1.6,1.6,0,0,0,.22-.56,2.35,2.35,0,0,0,0-.53S8.81,5.72,8.82,5.75Z"/></g><g class="cls-19"><path d="M14.34,5.34a6.44,6.44,0,0,1,.34.7,1.72,1.72,0,0,1,.12.7c0,.06-.05,0-.06,0a4.62,4.62,0,0,0-.43-1.35S14.32,5.3,14.34,5.34Z"/><path d="M14.63,5.6a1.17,1.17,0,0,1,.23.58c0,.05,0,0,0,0s0-.19-.07-.28a1.3,1.3,0,0,0-.14-.26S14.61,5.57,14.63,5.6Z"/><path d="M14.82,5.69a.58.58,0,0,1,.12.28s0,0,0,0a.7.7,0,0,0-.09-.24S14.79,5.65,14.82,5.69Z"/><path d="M12,5.4A3.2,3.2,0,0,0,12,6.81s0,.07,0,0-.11-.46-.15-.69a1.92,1.92,0,0,1,.07-.79C11.94,5.31,12,5.37,12,5.4Z"/><path d="M11.77,5.58a2.09,2.09,0,0,0,0,.5,1.23,1.23,0,0,1,0,.38s0,0-.05,0a1.27,1.27,0,0,1-.06-.39,1.89,1.89,0,0,1,0-.53S11.77,5.54,11.77,5.58Z"/><path d="M11.6,5.77a.07.07,0,0,1,0,.06V6a.43.43,0,0,0,0,.11s0,.05-.05,0a.17.17,0,0,1,0-.1c0-.06,0-.11,0-.17S11.58,5.76,11.6,5.77Z"/></g></g></g></g></svg>