<svg xmlns="http://www.w3.org/2000/svg" xmlns:xlink="http://www.w3.org/1999/xlink" viewBox="0 0 25.69 41.98"><defs><style>.cls-1{fill:none;}.cls-2{isolation:isolate;}.cls-3{fill:#fff;}.cls-4{fill:#653624;}.cls-5{fill:url(#linear-gradient);}.cls-6{fill:url(#linear-gradient-2);}.cls-7{fill:#f3d1bb;mix-blend-mode:screen;}.cls-13,.cls-8{fill:#48545c;}.cls-9{fill:#974d34;}.cls-10{fill:#440900;}.cls-11{clip-path:url(#clip-path);}.cls-12{fill:#0e171d;}.cls-13,.cls-16{mix-blend-mode:multiply;}.cls-14{fill:#e2414f;}.cls-15{fill:#8f1f35;}.cls-16{fill:#cecece;opacity:0.5;}</style><linearGradient id="linear-gradient" x1="11.88" y1="37.17" x2="11.88" y2="3.89" gradientUnits="userSpaceOnUse"><stop offset="0" stop-color="#ffe050"/><stop offset="1" stop-color="#fcca2e"/></linearGradient><linearGradient id="linear-gradient-2" x1="10.83" y1="4.11" x2="10.83" y2="35.07" xlink:href="#linear-gradient"/><clipPath id="clip-path"><path class="cls-1" d="M8.74,8.67c-.46,0-1-.71-1.23-1A1.87,1.87,0,0,1,7.1,6.19a3.17,3.17,0,0,1,.36-1.06A2.75,2.75,0,0,1,8,4.47c.64-.56,1.25.11,1.42.69A5.45,5.45,0,0,1,9.09,8.3h0C9,8.49,8.93,8.65,8.74,8.67Z"/></clipPath></defs><g class="cls-2"><g id="Layer_2" data-name="Layer 2"><g id="Layer_1-2" data-name="Layer 1"><path class="cls-3" d="M2.83,36.44c.16.26.34.52.53.78l.16.21a12.17,12.17,0,0,0,3.14,3A10.21,10.21,0,0,0,12.3,42h.4a11.57,11.57,0,0,0,5.85-1.49,12.94,12.94,0,0,0,4.06-3.66,15.62,15.62,0,0,0,2.33-4.9,19.31,19.31,0,0,0,.75-5.32,18.76,18.76,0,0,0-.57-4.6,16.34,16.34,0,0,0-1.79-4.32A13.91,13.91,0,0,0,22,15.88a3.38,3.38,0,0,0,2.47-4.33l-2.4-7.34a3.73,3.73,0,0,0,.28-1,1.92,1.92,0,0,0-.43-1.58,2,2,0,0,0-.5-.41A1.93,1.93,0,0,0,20.11.71a1.73,1.73,0,0,0-.32,0A3.18,3.18,0,0,0,18.26.36a3.91,3.91,0,0,0-.68.06,8.15,8.15,0,0,0-2.66,1.07l-.1.06a6.62,6.62,0,0,0-1,.75l-.1.08c-.31.27-.63.55-1,.91l-.25.11a2.09,2.09,0,0,0-1,.39c0-.1-.07-.21-.11-.31A6.14,6.14,0,0,0,9.84,1.14,3.85,3.85,0,0,0,7.34.05H7.26A1.91,1.91,0,0,0,5.68.38a3.28,3.28,0,0,0-.9,1.07l0,.07a2.89,2.89,0,0,0-.43,1.92,2,2,0,0,0,1,1.44l0,.09a4.36,4.36,0,0,0,0,3.08,4.91,4.91,0,0,0,.33.59c-.38.47-.75,1-1.09,1.46a22.62,22.62,0,0,0-2.32,4.41A24.44,24.44,0,0,0,1,17.93a28.77,28.77,0,0,0-1,7.5,24.17,24.17,0,0,0,.69,5.85A18,18,0,0,0,2.83,36.44Z"/><path d="M4.05,35.67c.15.25.31.47.47.7l.12.16a10.75,10.75,0,0,0,2.8,2.64,8.87,8.87,0,0,0,4.86,1.36h.4a10.13,10.13,0,0,0,5.13-1.29A11.38,11.38,0,0,0,21.44,36a14.2,14.2,0,0,0,2.12-4.45,18.32,18.32,0,0,0,.69-4.92,17.42,17.42,0,0,0-.53-4.25,14.49,14.49,0,0,0-1.63-3.92,11.52,11.52,0,0,0-2.79-3.18l-.22-.16L19,15l0,0c.22-.07.45-.15.69-.21a8.26,8.26,0,0,1,1.75-.26,1.91,1.91,0,0,0,1.5-.82,1.93,1.93,0,0,0,.24-1.7L20.75,4.74a2.16,2.16,0,0,0-.35-.63.47.47,0,0,0,.09-.06A1.86,1.86,0,0,0,21,3a.55.55,0,0,0-.11-.41.51.51,0,0,0-.28-.15.52.52,0,0,0-.45-.29.54.54,0,0,0-.36.14.46.46,0,0,0-.25-.08h-.06l-.06,0-.07-.05h0a1.65,1.65,0,0,0-1-.33,1.9,1.9,0,0,0-.41,0,6.75,6.75,0,0,0-2.18.89l-.1.06a5.63,5.63,0,0,0-.81.59l0,.05-.07.06c-.32.27-.66.57-1.08,1l-.08.08-.1,0-.46.2-.16.07h-.13a.66.66,0,0,0-.45.21.75.75,0,0,0-.07.12l-.37.2-.28.16L10.75,6l-.17.12a2.2,2.2,0,0,0-.33-.71c0-.28-.05-.51-.08-.74,0,0,0,0,0-.06C10.1,4.37,10,4.16,10,4A4.69,4.69,0,0,0,8.84,2.18a2.37,2.37,0,0,0-1.5-.69l-.25,0a.55.55,0,0,0-.25-.07.57.57,0,0,0-.31.1,2,2,0,0,0-.5.63l0,.07a1.54,1.54,0,0,0-.24,1,.51.51,0,0,0,.5.43h.06l.11,0a2,2,0,0,1,.42.23L7,4a3.58,3.58,0,0,1,.43.29,2.81,2.81,0,0,0-.69,1.13,2.84,2.84,0,0,0-.05,2A3.35,3.35,0,0,0,7,8c.11.14.23.29.36.43l.22.22A18,18,0,0,0,5.76,10.9a20.7,20.7,0,0,0-2.18,4.17,23.23,23.23,0,0,0-1.16,3.24,27.14,27.14,0,0,0-1,7.12,22.77,22.77,0,0,0,.65,5.5A16.3,16.3,0,0,0,4.05,35.67ZM14.29,23.6h0l.06.07a1.73,1.73,0,0,1,.25.39A5.13,5.13,0,0,1,15,25.23a9.1,9.1,0,0,1,.14,1.58A9.2,9.2,0,0,1,15,28.53a6.3,6.3,0,0,1-.18.72,4.33,4.33,0,0,1-.54.77,2.72,2.72,0,0,1-.24.24l-.17.13a.36.36,0,0,0,0-.09,5.31,5.31,0,0,1-.32-1.21,9.8,9.8,0,0,1-.12-1.54,12.45,12.45,0,0,1,.14-1.84,6,6,0,0,1,.41-1.43A2.71,2.71,0,0,1,14.29,23.6Z"/><path class="cls-4" d="M4.46,35.42c.14.23.3.45.45.67l.11.13A10.06,10.06,0,0,0,7.7,38.76a8.32,8.32,0,0,0,4.6,1.29h.4a9.65,9.65,0,0,0,4.89-1.23,11,11,0,0,0,3.46-3.12,13.56,13.56,0,0,0,2-4.3,17.38,17.38,0,0,0,.68-4.79,16.94,16.94,0,0,0-.52-4.13,13.85,13.85,0,0,0-1.57-3.8,11.35,11.35,0,0,0-2.68-3l-.21-.15-.1-.08-.22-.14-.06,0L18,14.94l-.07,0,0,0a8.89,8.89,0,0,1,1.56-.58A8.48,8.48,0,0,1,21.35,14a1.45,1.45,0,0,0,1.31-1.89L20.29,4.89a1.45,1.45,0,0,0-1.37-1h-.18A19,19,0,0,0,14.24,5l-.26.1-.49.21-.38.18-.4.19L12.24,6l-.07,0-.24.13c-.25.15-.51.31-.75.48a19.29,19.29,0,0,0-5.26,5.2,22,22,0,0,0-3,6.62,26.72,26.72,0,0,0-1,7,22.28,22.28,0,0,0,.64,5.38A16.07,16.07,0,0,0,4.46,35.42Zm10-12.27,0,0,.13.12.06.07a1.89,1.89,0,0,1,.32.49,5.16,5.16,0,0,1,.4,1.29,9,9,0,0,1,.15,1.66,10,10,0,0,1-.17,1.8,6.53,6.53,0,0,1-.34,1.18c0,.11-.09.21-.14.32a2.66,2.66,0,0,1-.47.71,1.29,1.29,0,0,1-.17.16.57.57,0,0,1-.43.17.18.18,0,0,1-.15-.06,1.41,1.41,0,0,1-.29-.39,2.14,2.14,0,0,1-.1-.22A5.52,5.52,0,0,1,13,29.17a10.84,10.84,0,0,1-.13-1.62A12.1,12.1,0,0,1,13,25.64a5.91,5.91,0,0,1,.44-1.55,2.92,2.92,0,0,1,.59-.93.23.23,0,0,1,.19-.09h.12l.3-1.41h0L14.4,23.1Z"/><path class="cls-5" d="M2.4,24a25.09,25.09,0,0,1,.92-6.62,20.54,20.54,0,0,1,2.84-6.2A17.81,17.81,0,0,1,11,6.36,15.65,15.65,0,0,1,18,3.89l2.37,7.26a9.81,9.81,0,0,0-4,1,11,11,0,0,0-1.43.81c-.41.28-.78.55-1.11.82a8.25,8.25,0,0,1,3.33,1.55A9.87,9.87,0,0,1,19.49,18a12.49,12.49,0,0,1,1.4,3.4,15.06,15.06,0,0,1,.47,3.78,16.11,16.11,0,0,1-.61,4.4,12.69,12.69,0,0,1-1.83,3.85,9.53,9.53,0,0,1-3,2.71,8.28,8.28,0,0,1-4.18,1h-.39a6.93,6.93,0,0,1-3.83-1.06,9.09,9.09,0,0,1-2.79-2.89A14.69,14.69,0,0,1,3,29,20.45,20.45,0,0,1,2.4,24Zm8,2.12A11.45,11.45,0,0,0,10.6,28,7.87,7.87,0,0,0,11,29.59a3.13,3.13,0,0,0,.77,1.14,1.6,1.6,0,0,0,1.11.42,2,2,0,0,0,1.38-.52,4,4,0,0,0,1-1.34,7.44,7.44,0,0,0,.59-1.85,10.92,10.92,0,0,0,0-4,6.8,6.8,0,0,0-.52-1.65,3.29,3.29,0,0,0-.89-1.16,1.87,1.87,0,0,0-1.23-.45,1.66,1.66,0,0,0-1.21.52,4.28,4.28,0,0,0-.89,1.36,7.85,7.85,0,0,0-.55,1.9A14.06,14.06,0,0,0,10.45,26.11Z"/><path class="cls-6" d="M9.24,35.07h.39a8.22,8.22,0,0,0,4.17-1,9.49,9.49,0,0,0,3-2.72,12.33,12.33,0,0,0,1.82-3.85,16.05,16.05,0,0,0,.62-4.39,15.47,15.47,0,0,0-.47-3.78,12.39,12.39,0,0,0-1.41-3.41,7.52,7.52,0,0,0-.5-.75,8.33,8.33,0,0,0-3.07-1.36c.29-.24.62-.48,1-.73a8.24,8.24,0,0,0-3.08-1.38q.48-.39,1.11-.81A12.33,12.33,0,0,1,14.25,10a10.53,10.53,0,0,1,1.8-.66,9.6,9.6,0,0,1,2.17-.32L16.61,4.11A15.26,15.26,0,0,0,11,6.36a17.81,17.81,0,0,0-4.86,4.81,20.54,20.54,0,0,0-2.84,6.2A25.09,25.09,0,0,0,2.4,24,20.45,20.45,0,0,0,3,29a14.69,14.69,0,0,0,1.72,4.2c.13.2.26.4.4.58l.29.2A6.92,6.92,0,0,0,9.24,35.07ZM8.52,21.86A8.33,8.33,0,0,1,9.06,20,4.65,4.65,0,0,1,10,18.6a1.65,1.65,0,0,1,1.21-.52,1.91,1.91,0,0,1,1.24.45,3.41,3.41,0,0,1,.89,1.16q.11.24.21.51a1.86,1.86,0,0,1,1,.43,3.39,3.39,0,0,1,.89,1.16,6.8,6.8,0,0,1,.52,1.65,10.92,10.92,0,0,1,0,4,7.44,7.44,0,0,1-.59,1.85,4,4,0,0,1-1,1.34,2,2,0,0,1-1.38.52,1.6,1.6,0,0,1-1.11-.42A3.13,3.13,0,0,1,11,29.59c-.07-.17-.13-.36-.19-.55h0a1.6,1.6,0,0,1-1.11-.42,3.05,3.05,0,0,1-.77-1.13,7.3,7.3,0,0,1-.44-1.63A11.45,11.45,0,0,1,8.35,24,14,14,0,0,1,8.52,21.86Z"/><path class="cls-3" d="M14.1,6a8,8,0,0,0-2.91,1.74,20.31,20.31,0,0,0-2.68,2.48C7,11.9,5.26,14,4.75,16.25c-.08.32.36.65.6.35C6.77,14.82,7.78,12.77,9.29,11a29.57,29.57,0,0,1,2.37-2.38,21.3,21.3,0,0,0,2.65-2.27A.21.21,0,0,0,14.1,6Z"/><path class="cls-3" d="M4.56,17.73c-.43.8-1,2.2-.39,3a.4.4,0,0,0,.58,0,2,2,0,0,0,.33-1.31c0-.51,0-1,0-1.55a.3.3,0,0,0-.56-.15Z"/><path class="cls-7" d="M9.43,9.4a1.5,1.5,0,0,0-.84,0c.11.23.48.3.7.31,0,0,.29,0,.3-.07S9.52,9.46,9.43,9.4Z"/><path class="cls-8" d="M20.12,2.65s-.07,0-.07,0A2.39,2.39,0,0,1,19.6,4c0,.06.08,0,.1,0A2.09,2.09,0,0,0,20.12,2.65Z"/><path class="cls-8" d="M20.47,2.93s-.06,0-.07,0a1.59,1.59,0,0,1-.33.75c0,.06,0,.06.07,0A1.46,1.46,0,0,0,20.47,2.93Z"/><path d="M9.81,11.41a2.32,2.32,0,0,1-1.5-1.74c0-.12-.08-.38.06-.45A1.84,1.84,0,0,1,9,9.11a2.79,2.79,0,0,1,1.23.27s.1,0,.07-.06a2.57,2.57,0,0,0-1-.3,6.09,6.09,0,0,0,1-2.07s-.08,0-.09,0a9.16,9.16,0,0,1-1,2H9c-.27,0-.68.05-.8.33a1.1,1.1,0,0,0,0,.51,1.42,1.42,0,0,0,.34.72,2.08,2.08,0,0,0,1.22.94S9.87,11.44,9.81,11.41Z"/><path d="M9.32,7.9c0-.12,0-.24.08-.35a6.08,6.08,0,0,0,.25-1.27,2.46,2.46,0,0,0-.41-1.81,1.26,1.26,0,0,0-.65-.35A.77.77,0,0,0,8,4.35a2.65,2.65,0,0,0-.86,1.2,2.46,2.46,0,0,0-.07,1.71,2.53,2.53,0,0,0,.28.47,3.79,3.79,0,0,0,.32.38c.24.26.76.85,1.18.62A1.14,1.14,0,0,0,9.32,7.9Z"/><path class="cls-3" d="M8.74,8.67c-.46,0-1-.71-1.23-1A1.87,1.87,0,0,1,7.1,6.19a3.17,3.17,0,0,1,.36-1.06A2.75,2.75,0,0,1,8,4.47c.64-.56,1.25.11,1.42.69A5.45,5.45,0,0,1,9.09,8.3h0C9,8.49,8.93,8.65,8.74,8.67Z"/><path d="M17.78,8.35A5.35,5.35,0,0,0,18,6a2,2,0,0,0-.91-1.58,1.62,1.62,0,0,0-1.61.43,5.52,5.52,0,0,0-1.89,3.89,6.13,6.13,0,0,1,.23-2.19s0,0,0,0a5.37,5.37,0,0,0-.35,1.94,1.41,1.41,0,0,0,.7,1.4,3.31,3.31,0,0,0,.56.17,3.57,3.57,0,0,0,2-.25A2.28,2.28,0,0,0,17.78,8.35Z"/><path class="cls-3" d="M17.13,9.41a2.71,2.71,0,0,1-2,.6,2.05,2.05,0,0,1-.94-.21,1.11,1.11,0,0,1-.5-.66,1.87,1.87,0,0,1,.06-.88,7,7,0,0,1,.25-1,5.94,5.94,0,0,1,1-1.83,2.3,2.3,0,0,1,1.65-1c.7,0,1,.86,1.15,1.41A4.31,4.31,0,0,1,17.13,9.41Z"/><path class="cls-9" d="M17.78,8c-.16,1-.9,1.69-1.65,1.56a1.64,1.64,0,0,1-1.07-2c.16-1,.9-1.69,1.65-1.56A1.62,1.62,0,0,1,17.78,8Z"/><path class="cls-10" d="M17.26,8.05c-.09.59-.53,1-1,.93a1,1,0,0,1-.64-1.2c.09-.59.54-1,1-.93A1,1,0,0,1,17.26,8.05Z"/><path class="cls-3" d="M16.55,7.28c-.06.37-.32.63-.58.59s-.43-.38-.37-.74.32-.63.58-.59A.6.6,0,0,1,16.55,7.28Z"/><g class="cls-11"><path class="cls-9" d="M10.14,7c-.14.87-.79,1.48-1.45,1.37a1.44,1.44,0,0,1-.94-1.76c.15-.86.79-1.48,1.45-1.37A1.44,1.44,0,0,1,10.14,7Z"/><path class="cls-10" d="M9.68,7c-.08.51-.47.88-.86.81a.86.86,0,0,1-.56-1.05c.09-.51.47-.88.87-.81A.85.85,0,0,1,9.68,7Z"/><path class="cls-3" d="M9.06,6.34c-.05.32-.28.55-.51.51s-.37-.33-.32-.65.28-.55.51-.51A.52.52,0,0,1,9.06,6.34Z"/></g><path class="cls-12" d="M9.69,4.71a5.8,5.8,0,0,0-.19-.59,4.31,4.31,0,0,0-1-1.59A1.73,1.73,0,0,0,7.14,2a1.21,1.21,0,0,0-.68.6h0A2,2,0,0,1,6.85,2s0,0,0,0a1.76,1.76,0,0,0-.41.56,1,1,0,0,0-.19.67s.06,0,.08,0a.57.57,0,0,0,.21.05,2.25,2.25,0,0,1,.68.37A5.12,5.12,0,0,1,7.75,4c.37.3.68.67,1,1a7.7,7.7,0,0,1,.54.6c.14.19.23.39.36.58,0,0,.1,0,.13,0h0V6A8.81,8.81,0,0,0,9.69,4.71Z"/><path class="cls-8" d="M9.16,5.11c-.32-.35-.66-.7-1-1a6,6,0,0,0-1-.75c-.16-.09-.34-.16-.51-.24s-.26.05-.26-.12a3.29,3.29,0,0,1,.36-.6c.31-.43.75-.29,1.13-.1a2.56,2.56,0,0,1,1,1,5.58,5.58,0,0,1,.57,1.24c.09.42.14.85.2,1.27A4.36,4.36,0,0,0,9.16,5.11Z"/><path class="cls-13" d="M8.86,4.08A2.64,2.64,0,0,0,7.43,2.76a1.33,1.33,0,0,0-.94-.06A2.29,2.29,0,0,0,6.35,3c0,.17.12.07.26.12s.35.15.51.24a6,6,0,0,1,1,.75c.34.33.68.68,1,1a4.36,4.36,0,0,1,.48.65l0-.21C9.35,5.06,9.12,4.57,8.86,4.08Z"/><path class="cls-12" d="M19.52,2.71s-.07,0-.07,0a1.46,1.46,0,0,1-.08.92,1.17,1.17,0,0,0-.32-1.12l.06,0a1.32,1.32,0,0,0-1.17-.27,5.91,5.91,0,0,0-2,.84l-.08.05h0a4.24,4.24,0,0,0-.74.54s0,0,0,0L15,3.86c-.37.3-.71.62-1.06.94l-.47.46a3.52,3.52,0,0,1-.35.31c-.07,0-.22-.14-.3-.24l-.13,0a.13.13,0,0,0-.09,0c0,.4.18.88.53.89a1,1,0,0,0,.57-.15c.36-.19.72-.4,1.07-.6.69-.38,1.39-.73,2.11-1A4.46,4.46,0,0,1,18,4.09a2.67,2.67,0,0,1,1.15.08l0,0,0,0c0,.06.06.05.08,0A1.72,1.72,0,0,0,19.52,2.71Z"/><path class="cls-8" d="M17.88,4A6.25,6.25,0,0,0,16,4.7c-.65.31-1.28.65-1.9,1-.32.18-.89.63-1.19.21a1.27,1.27,0,0,1-.18-.39.3.3,0,0,0,.3.18c.21,0,.44-.35.59-.49A15.92,15.92,0,0,1,15.58,3.5a7.9,7.9,0,0,1,1.07-.59,6.54,6.54,0,0,1,.6-.28,4,4,0,0,1,.69-.15,1,1,0,0,1,1.19.41,1.41,1.41,0,0,1,0,1.12A3.16,3.16,0,0,0,17.88,4Z"/><path class="cls-13" d="M18.82,3.73a1.44,1.44,0,0,0-1.37-.27,5.41,5.41,0,0,0-2.18,1.06,8.7,8.7,0,0,1-1.5,1,1.25,1.25,0,0,1-.73.17h0a.3.3,0,0,1-.3-.18,1.27,1.27,0,0,0,.18.39c.3.42.87,0,1.19-.21.62-.35,1.25-.69,1.9-1A6.25,6.25,0,0,1,17.88,4,3.14,3.14,0,0,1,19.1,4,2.37,2.37,0,0,0,18.82,3.73Z"/><path d="M16.06,12.24a.3.3,0,0,1-.08.07l-.1.06-.15.08a3,3,0,0,1-.44.12,2.77,2.77,0,0,1-.59,0,3.53,3.53,0,0,1-.7-.07l-.77-.12c-.27,0-.55-.09-.84-.12l-.87-.09-.87,0c-.29,0-.57,0-.85,0a6.66,6.66,0,0,1-.78,0A3.28,3.28,0,0,1,8.35,12a3.76,3.76,0,0,1-.53-.25,3.25,3.25,0,0,1-.37-.27,1.77,1.77,0,0,1-.29-.28,1.54,1.54,0,0,0,.27.3,2.91,2.91,0,0,0,.89.58,2.78,2.78,0,0,0,.69.19,5.16,5.16,0,0,0,.79,0c.28,0,.56,0,.84,0l.87.06.86.08c.29,0,.57.07.84.11l.78.1a4.47,4.47,0,0,0,.71,0,2.77,2.77,0,0,0,.6-.06,2,2,0,0,0,.44-.16l.08,0,.07,0,.1-.08Z"/><path class="cls-14" d="M14.51,14a2.44,2.44,0,0,1-1.63,1.12A1.64,1.64,0,0,1,14.51,14Z"/><path class="cls-3" d="M12.94,13.42a2.34,2.34,0,0,1-2.28-1.2,25.77,25.77,0,0,1,3.25.36,4.25,4.25,0,0,0,1.14.06v0A4,4,0,0,1,12.94,13.42Z"/><path class="cls-15" d="M9.55,12.2c.32,0,.7,0,1.11,0a2.34,2.34,0,0,0,2.28,1.2,4,4,0,0,0,2.1-.76A3.66,3.66,0,0,1,14.51,14a1.64,1.64,0,0,0-1.63,1.12,3.1,3.1,0,0,1-.45.05c-2.19.05-2.13-2.24-3.62-3A3.47,3.47,0,0,0,9.55,12.2Z"/><path d="M8.85,12.11c.92.17,1.92.07,2.85.15a20.79,20.79,0,0,0,3.33.35s.1,0,.09,0a2.89,2.89,0,0,1-2.53,2.55,2.31,2.31,0,0,1-2-.85c-.63-.73-.93-1.69-1.81-2.19-.05,0,.1-.05.13,0,.93.53,1.26,1.59,1.95,2.36a2.35,2.35,0,0,0,3.7-.64,3.49,3.49,0,0,0,.41-1.07c0-.17.05-.1-.11-.09a3.7,3.7,0,0,1-.94-.08c-1-.16-2-.28-3.06-.34a15.55,15.55,0,0,1-2.05-.1C8.68,12.14,8.81,12.1,8.85,12.11Z"/><path d="M16,11.8a.59.59,0,0,0,0,.14.6.6,0,0,0,.07.33l.06.08.07.06.07.05.06,0,.11,0h0l0,0-.09-.06-.11-.09-.09-.13a.61.61,0,0,1-.07-.14.89.89,0,0,1,0-.14C16,11.86,16,11.8,16,11.8Z"/><path class="cls-16" d="M13.07,12.63c-.94-.13-1.93-.29-1.92.21a2.81,2.81,0,0,1-.49-.62,25.77,25.77,0,0,1,3.25.36,4.25,4.25,0,0,0,1.14.06v0a4.28,4.28,0,0,1-.79.45C14.25,12.91,13.83,12.74,13.07,12.63Z"/></g></g></g></svg>