<svg xmlns="http://www.w3.org/2000/svg" xmlns:xlink="http://www.w3.org/1999/xlink" viewBox="0 0 29.1 45.58"><defs><style>.cls-1{fill:none;}.cls-2{isolation:isolate;}.cls-3{fill:#fff;}.cls-4{fill:#653624;}.cls-5{fill:url(#linear-gradient);}.cls-6{fill:url(#linear-gradient-2);}.cls-7,.cls-8{fill:#f3d1bb;}.cls-7{mix-blend-mode:screen;}.cls-11,.cls-12,.cls-8,.cls-9{mix-blend-mode:multiply;}.cls-9{fill:#e6e7e8;}.cls-10{fill:#c35019;}.cls-11,.cls-12{opacity:0.6;}.cls-11{fill:url(#linear-gradient-3);}.cls-12{fill:url(#linear-gradient-4);}.cls-13{clip-path:url(#clip-path);}.cls-14{fill:#974d34;}.cls-15{fill:#440900;}.cls-16{clip-path:url(#clip-path-2);}</style><linearGradient id="linear-gradient" x1="13.59" y1="40.77" x2="13.59" y2="8.28" gradientUnits="userSpaceOnUse"><stop offset="0" stop-color="#ffe050"/><stop offset="1" stop-color="#fcca2e"/></linearGradient><linearGradient id="linear-gradient-2" x1="12.32" y1="8.42" x2="12.32" y2="38.49" xlink:href="#linear-gradient"/><linearGradient id="linear-gradient-3" x1="2552.77" y1="-2382.84" x2="2551.92" y2="-2385.78" gradientTransform="translate(329.03 3489.72) rotate(-51.97)" gradientUnits="userSpaceOnUse"><stop offset="0" stop-color="#fff"/><stop offset="1" stop-color="#ea9c9e"/></linearGradient><linearGradient id="linear-gradient-4" x1="8921.2" y1="2553.37" x2="8920.35" y2="2550.42" gradientTransform="matrix(-0.92, -0.4, -0.4, 0.92, 9208.28, 1242.9)" xlink:href="#linear-gradient-3"/><clipPath id="clip-path"><path class="cls-1" d="M13.33,8.15a6,6,0,0,1-.09,3.09,1.94,1.94,0,0,1-1.54,1.28,1.41,1.41,0,0,1-1.36-.92,4.7,4.7,0,0,1,.25-4c.35-.68,1.12-1.41,1.92-.94a.88.88,0,0,1,.17.12A3.66,3.66,0,0,1,13.3,8Z"/></clipPath><clipPath id="clip-path-2"><path class="cls-1" d="M22.38,9.28a4,4,0,0,0-.47.89,1.79,1.79,0,0,1-.7.48.81.81,0,0,1-.37.14h0a1.84,1.84,0,0,1-1.62-.55,4.8,4.8,0,0,1-1.11-2.07,4.61,4.61,0,0,1-.05-2.36,2.14,2.14,0,0,1,.76-1.06,1.21,1.21,0,0,1,1-.26C21,4.77,21.67,6.07,22.12,7a3.76,3.76,0,0,1,.29,2.14Z"/></clipPath></defs><g class="cls-2"><g id="Layer_2" data-name="Layer 2"><g id="Layer_1-2" data-name="Layer 1"><path class="cls-3" d="M25.09,6.39a1.66,1.66,0,0,0-.32,0l-.5,0a4.69,4.69,0,0,0-.87-1.27c-.1-.17-.21-.34-.33-.52a1.93,1.93,0,0,0,.27-.3,2,2,0,0,0,.27-1.86,3.81,3.81,0,0,0-2-2.15A3.08,3.08,0,0,0,20.27,0a4.64,4.64,0,0,0-2,.47,5.36,5.36,0,0,0-2.6,4A2,2,0,0,0,16,5.81a4.89,4.89,0,0,0-.09,1l-.86,0h0a2.56,2.56,0,0,0-.11-.24l-.12-.23a1.94,1.94,0,0,0,0-.68,3.67,3.67,0,0,0-3.4-3.27,3.2,3.2,0,0,0-.75.09c-.82.2-2.3.9-2.91,3.37a2,2,0,0,0,.13,1.29l-4.42.21a1.93,1.93,0,0,0-1.8,1.59,3.32,3.32,0,0,0-.47,1.21L.05,16.81a3.36,3.36,0,0,0,3.32,3.93h.16l5.19-.26L2.37,41.23a3.37,3.37,0,0,0,3.22,4.35H5.8L14.29,45a3.37,3.37,0,0,0,2.95-2.21L28.89,10.88a3.36,3.36,0,0,0-3.16-4.52Z"/><path d="M24.77,7.8l-1.55.07a2.74,2.74,0,0,0,0-.28A3.15,3.15,0,0,0,22.25,6c-.16-.29-.35-.58-.56-.89a3.09,3.09,0,0,0-1.14-1l-.12-.06a2.46,2.46,0,0,0-.88-.21A1.61,1.61,0,0,0,19,4a2.37,2.37,0,0,0-.34.19,2.08,2.08,0,0,0,.15-.2,2.2,2.2,0,0,1,1-.72,1.52,1.52,0,0,1,.65-.16,1.43,1.43,0,0,1,1,.42.55.55,0,0,0,.36.15.52.52,0,0,0,.44-.24.61.61,0,0,0,.09-.54A2.39,2.39,0,0,0,21,1.59a1.62,1.62,0,0,0-.72-.15,3.08,3.08,0,0,0-1.34.33,3.87,3.87,0,0,0-1.81,2.89.51.51,0,0,0,.11.41.5.5,0,0,0,.38.17h.07a4,4,0,0,0-.26,2.47c0,.14,0,.28.08.43l-3.31.15a2.47,2.47,0,0,0-.35-.48l-.06-.25s0,0,0-.06l-.06-.15-.06-.1a2.6,2.6,0,0,0-.4-.68l-.07-.08a.23.23,0,0,0,.07-.07.55.55,0,0,0,.13-.48c-.21-1.05-.9-2.11-2-2.11a1.92,1.92,0,0,0-.41,0A2.77,2.77,0,0,0,9.14,6.19a.59.59,0,0,0,.09.45.54.54,0,0,0,.39.19.52.52,0,0,0,.44-.25.51.51,0,0,0,.15-.23A1.34,1.34,0,0,1,10.57,6l.11-.08a1.31,1.31,0,0,1,.71-.33h.07a.9.9,0,0,1,.62.32h0a2.27,2.27,0,0,0-1.59.88,4.5,4.5,0,0,0-.83,1.73l-6.1.28a.47.47,0,0,0-.45.4L3,9.5a1.89,1.89,0,0,0-.4.89L1.47,17.05a1.93,1.93,0,0,0,1.9,2.25h.09l7.24-.36L3.75,41.65a1.93,1.93,0,0,0,1.84,2.49h.12l8.49-.54a2,2,0,0,0,1.69-1.26L27.54,10.38a1.92,1.92,0,0,0-.26-1.79,1.94,1.94,0,0,0-1.55-.79l-.78,0A.39.39,0,0,0,24.77,7.8Z"/><path class="cls-4" d="M3.08,10.47,1.94,17.14a1.44,1.44,0,0,0,1.43,1.68h.07l7.92-.39L4.21,41.79a1.44,1.44,0,0,0,1.38,1.86h.09l8.49-.54a1.44,1.44,0,0,0,1.26-1L27.09,10.22a1.45,1.45,0,0,0-.2-1.35,1.44,1.44,0,0,0-1.16-.59l-21.3,1A1.44,1.44,0,0,0,3.08,10.47Z"/><path class="cls-5" d="M12.38,15.44l-10,.5L3.54,9.27l21.23-1L13.12,40.23l-8.49.54Z"/><polygon class="cls-6" points="21.85 8.42 3.54 9.27 2.78 13.71 10.27 13.34 9.59 15.58 12.38 15.44 5.32 38.49 11.02 38.12 21.85 8.42"/><path class="cls-3" d="M18.45,9.89a32.08,32.08,0,0,0-4.16,0,15.55,15.55,0,0,0-3.8.44c-.18.06-.22.37,0,.4a18,18,0,0,0,4-.15c1.36-.1,2.65-.27,4-.5.13,0,.09-.21,0-.22Z"/><path class="cls-3" d="M8.19,10.68c-.75-.29-2.26-.89-2.93-.22a.39.39,0,0,0,.08.61c.39.25.81.1,1.25,0A9,9,0,0,1,8.15,11c.18,0,.19-.25,0-.31Z"/><path class="cls-7" d="M16.18,15.84c.68.33,1.49.35,1.78-.4A2.07,2.07,0,0,1,16.18,15.84Z"/><path class="cls-7" d="M14.31,12l-.06,0c-.07,0-.27.12-.15.21l.14.08a3.9,3.9,0,0,0,.76.22l.25.06s.41.05.28-.11a.9.9,0,0,0-.19-.2A2.82,2.82,0,0,0,14.31,12Z"/><path class="cls-8" d="M15.42,13.15a2.5,2.5,0,0,1-1.64-.88,2,2,0,0,0,.32,1.2,2.19,2.19,0,0,0,1.14,1.12c1.29.36,1.77-1.07,1.9-2.09A2.7,2.7,0,0,1,15.42,13.15Z"/><path class="cls-8" d="M17.3,16.21c-1,.14-1.7-.69-2.51-1.12l0,0c0,.51.55,1,.9,1.29a2,2,0,0,0,1.75.56c1-.27,2.09-1.71,1.61-2.77C18.56,14.91,18.35,16.06,17.3,16.21Z"/><path d="M13.26,7.53h0a2.65,2.65,0,0,0-.38-.68,2.13,2.13,0,0,0-.3-.3c-.61-.46-1.35,0-1.74.52a4.87,4.87,0,0,0-.66,4.46,1.62,1.62,0,0,0,1.28,1.11,1.85,1.85,0,0,0,1.65-1,4.88,4.88,0,0,0,.33-3.52v0a1.6,1.6,0,0,0,0-.21l-.06-.28Z"/><path class="cls-3" d="M13.33,8.15a6,6,0,0,1-.09,3.09,1.94,1.94,0,0,1-1.54,1.28,1.41,1.41,0,0,1-1.36-.92,4.7,4.7,0,0,1,.25-4c.35-.68,1.12-1.41,1.92-.94a.88.88,0,0,1,.17.12A3.66,3.66,0,0,1,13.3,8Z"/><path class="cls-9" d="M10.11,9.08a3,3,0,0,1,1.11-2c.86-.51,1.56.14,1.89.92a6.22,6.22,0,0,1,.35,1.11c0-.33-.08-.66-.13-1l0-.13a3.66,3.66,0,0,0-.62-1.23.88.88,0,0,0-.17-.12c-.8-.47-1.57.26-1.92.94A5.43,5.43,0,0,0,10,9.4,3,3,0,0,1,10.11,9.08Z"/><path d="M22.47,9.16a3.84,3.84,0,0,0-.08-1.61,6.36,6.36,0,0,0-1.1-2.15,2.49,2.49,0,0,0-1-.84h0a1.38,1.38,0,0,0-1.12-.09,2.15,2.15,0,0,0-.87.74,3.29,3.29,0,0,0-.38,2.44c.24,1.5,1.32,3.78,3.17,3.16a3,3,0,0,0,.68-.36l.1-.06a3.72,3.72,0,0,0-.18.94v0A5.11,5.11,0,0,1,23,8.66,3.31,3.31,0,0,0,22.47,9.16Z"/><path class="cls-3" d="M22.38,9.28a4,4,0,0,0-.47.89,1.79,1.79,0,0,1-.7.48.81.81,0,0,1-.37.14h0a1.84,1.84,0,0,1-1.62-.55,4.8,4.8,0,0,1-1.11-2.07,4.61,4.61,0,0,1-.05-2.36,2.14,2.14,0,0,1,.76-1.06,1.21,1.21,0,0,1,1-.26C21,4.77,21.67,6.07,22.12,7a3.76,3.76,0,0,1,.29,2.14Z"/><path class="cls-9" d="M18,7.49a2.42,2.42,0,0,1,.84-2.23,2.07,2.07,0,0,1,2.76.82l.25.38a3.48,3.48,0,0,0-2-2,1.21,1.21,0,0,0-1,.26,2.14,2.14,0,0,0-.76,1.06A4.13,4.13,0,0,0,18,7.57S18,7.51,18,7.49Z"/><path d="M15.84,12a3.46,3.46,0,0,0-1.09-.21,3.81,3.81,0,0,0,.07-.59c0-.06-.06,0-.07,0s0,.21,0,.32,0,.16-.05.24H14.3a.61.61,0,0,0-.62.47,2.22,2.22,0,0,0,.5,1.39,3.38,3.38,0,0,0,1.36,1.09s.08-.07.05-.1a5.9,5.9,0,0,1-1-.72,3.52,3.52,0,0,1-.65-1c-.13-.27-.33-.77.13-.95a1.36,1.36,0,0,1,.49,0,4.63,4.63,0,0,1,1.24.16S15.88,12,15.84,12Z"/><path d="M19.48,14.12a.75.75,0,0,0-.56-.17c-.06,0-.12.15,0,.16a.78.78,0,0,1,.26,0h0c-.33,1-.55,2.49-1.91,2.49a3.24,3.24,0,0,1-2.44-1.54s-.06,0,0,.06a2.91,2.91,0,0,0,2.88,1.64c1.06-.22,1.42-1.67,1.6-2.6l.14.11c.06,0,.12,0,.13-.09s0,0,0-.07A0,0,0,0,0,19.48,14.12Z"/><path d="M11.1,4.35a2.38,2.38,0,0,0-1.49,2c0,.06,0,0,.06,0s0,0,0-.06.06,0,.07,0c.09-.28.41-.49.62-.67a2,2,0,0,1,1-.43,1.57,1.57,0,0,1,1.48,1c0,.07.11,0,.1-.08C12.74,5.2,12.14,4.1,11.1,4.35Z"/><path class="cls-10" d="M11.24,5A2.44,2.44,0,0,0,9.76,6,2.16,2.16,0,0,1,11,4.53c.81-.26,1.37.39,1.66,1.08A1.42,1.42,0,0,0,11.24,5Z"/><path d="M20.79,2a2.22,2.22,0,0,0-1.65.18,3.37,3.37,0,0,0-1.55,2.53s0,0,.05,0,.07,0,.08,0c.07-.35.45-.68.63-1a2.69,2.69,0,0,1,1.16-.89,1.88,1.88,0,0,1,2.18.34c.06.06.12-.08.11-.13A2,2,0,0,0,20.79,2Z"/><path class="cls-10" d="M19.39,2.77a2.92,2.92,0,0,0-1.1.9,4.6,4.6,0,0,0-.59.85,3.17,3.17,0,0,1,1.54-2.21,1.8,1.8,0,0,1,2.26.52A2,2,0,0,0,19.39,2.77Z"/><path class="cls-11" d="M24.71,8.6c-.63-.45-1.68-.06-2.36.88s-.72,2.07-.1,2.52,1.68.05,2.36-.88S25.33,9.05,24.71,8.6Zm-2.12,2.27a.35.35,0,0,1-.07.34.26.26,0,0,1-.27,0,.43.43,0,0,1-.14-.64.07.07,0,0,1,.1,0,.18.18,0,0,1,.16,0A.38.38,0,0,1,22.59,10.87Zm-.38-.65h0c-.1,0-.09-.18,0-.16a.11.11,0,0,1,.08,0A.08.08,0,1,1,22.21,10.22Z"/><path class="cls-12" d="M10.09,15c1,.5,2.16.34,2.49-.35S12.34,13,11.3,12.45s-2.16-.34-2.5.35S9,14.46,10.09,15Zm1.7-1.56a.2.2,0,0,1,.15-.06.07.07,0,0,1,.1,0,.42.42,0,0,1,.18.62.25.25,0,0,1-.25.1c-.13,0-.19-.15-.23-.26A.4.4,0,0,1,11.79,13.41ZM11.62,13a.2.2,0,0,1,.06-.07c.08-.06.17.07.09.14h0A.08.08,0,0,1,11.62,13Z"/><g class="cls-13"><path class="cls-14" d="M14.1,10c0,1.25-.86,2.23-1.81,2.19a2,2,0,0,1-1.64-2.32c0-1.25.86-2.24,1.81-2.2A2.06,2.06,0,0,1,14.1,10Z"/><path class="cls-15" d="M13.46,10.07c0,.75-.51,1.33-1.08,1.31a1.22,1.22,0,0,1-1-1.39c0-.74.51-1.33,1.08-1.31A1.23,1.23,0,0,1,13.46,10.07Z"/><path class="cls-3" d="M12.46,9.24c0,.46-.3.82-.64.81s-.59-.4-.57-.86.3-.83.64-.82S12.48,8.77,12.46,9.24Z"/></g><g class="cls-16"><path class="cls-14" d="M22.7,7.7a2,2,0,0,1-1.13,2.61,2,2,0,0,1-2.22-1.78,2,2,0,0,1,1.14-2.61A2,2,0,0,1,22.7,7.7Z"/><path class="cls-15" d="M22.12,8a1.23,1.23,0,0,1-.68,1.56,1.23,1.23,0,0,1-1.32-1.07,1.23,1.23,0,0,1,.68-1.56A1.24,1.24,0,0,1,22.12,8Z"/><path class="cls-3" d="M20.93,7.46c.11.45-.06.88-.39,1s-.67-.22-.78-.67.06-.88.38-1S20.82,7,20.93,7.46Z"/></g></g></g></g></svg>