<svg xmlns="http://www.w3.org/2000/svg" xmlns:xlink="http://www.w3.org/1999/xlink" viewBox="0 0 28.75 41.75"><defs><style>.cls-1{isolation:isolate;}.cls-2{fill:#fff;}.cls-3{fill:#653624;}.cls-4{fill:url(#linear-gradient);}.cls-5{fill:url(#linear-gradient-2);}.cls-6,.cls-7{fill:#f3d1bb;}.cls-6{mix-blend-mode:screen;}.cls-13,.cls-14,.cls-7,.cls-9{mix-blend-mode:multiply;}.cls-8{fill:#bb8153;}.cls-9{fill:#dedfe0;}.cls-10{fill:url(#linear-gradient-3);}.cls-11{fill:#7191e4;}.cls-12{fill:#440900;}.cls-13,.cls-14{opacity:0.6;}.cls-13{fill:url(#linear-gradient-4);}.cls-14{fill:url(#linear-gradient-5);}</style><linearGradient id="linear-gradient" x1="13.41" y1="36.94" x2="13.41" y2="3.37" gradientUnits="userSpaceOnUse"><stop offset="0" stop-color="#ffe050"/><stop offset="1" stop-color="#fcca2e"/></linearGradient><linearGradient id="linear-gradient-2" x1="12.36" y1="3.37" x2="12.36" y2="34.84" xlink:href="#linear-gradient"/><linearGradient id="linear-gradient-3" x1="7.46" y1="9.46" x2="10.18" y2="9.46" xlink:href="#linear-gradient"/><linearGradient id="linear-gradient-4" x1="98.54" y1="-184.96" x2="97.72" y2="-187.77" gradientTransform="translate(-76.18 200.09) rotate(-1.72)" gradientUnits="userSpaceOnUse"><stop offset="0" stop-color="#fff"/><stop offset="1" stop-color="#ea9c9e"/></linearGradient><linearGradient id="linear-gradient-5" x1="-846.75" y1="2365.81" x2="-847.36" y2="2363.7" gradientTransform="translate(2485.11 -394.44) rotate(61.03)" xlink:href="#linear-gradient-4"/></defs><g class="cls-1"><g id="Layer_2" data-name="Layer 2"><g id="Layer_1-2" data-name="Layer 1"><path class="cls-2" d="M27,13a11.57,11.57,0,0,0-.8-4.21A10.4,10.4,0,0,0,23.67,5a11.38,11.38,0,0,0-1.26-1l-.23-.18L22,3.68c-.25-.16-.51-.32-.77-.46l-.06,0L20.87,3,20.74,3l-.09-.17a4.49,4.49,0,0,0-1.6-1.58A4.09,4.09,0,0,0,16.91.63a6.48,6.48,0,0,0-2,.38,7.15,7.15,0,0,0-1,.45H13.6l-.38,0a12.26,12.26,0,0,0-2.6.27l-.07-.12A3,3,0,0,0,8,0,2.53,2.53,0,0,0,6.86.29,4.1,4.1,0,0,0,5.12,2.22a1.93,1.93,0,0,0-.18,2,1.91,1.91,0,0,0,.26.41l-.14.21A10.15,10.15,0,0,0,3.13,7.67c-.07.15-.13.3-.19.45a2.76,2.76,0,0,0-.2.47,11.7,11.7,0,0,0-1,4.57v.2a11.11,11.11,0,0,0,1,4.59q.16.36.36.72a12.62,12.62,0,0,0-1.18,1.88,13.83,13.83,0,0,0-.57,1.32A14.88,14.88,0,0,0,0,27.77v.3a15.29,15.29,0,0,0,.52,4c.12.42.25.84.41,1.26s.27.67.45,1l.16.32c.16.32.33.61.49.88l.17.27c.12.19.24.37.37.54s.12.16.16.21a12.12,12.12,0,0,0,1,1.16,13.12,13.12,0,0,0,9.63,4h.44a16.14,16.14,0,0,0,6.29-1.17,14.71,14.71,0,0,0,4.73-3.12,13.07,13.07,0,0,0,3-4.54,14.08,14.08,0,0,0,1-5.1,13.52,13.52,0,0,0-1.53-6.22,12.72,12.72,0,0,0-1.83-2.68,12.55,12.55,0,0,0,.6-1.15A11.73,11.73,0,0,0,27,13Z"/><path d="M25.58,13a10.28,10.28,0,0,0-.7-3.69,9.07,9.07,0,0,0-3.34-4.19L21.37,5l-.15-.09c-.22-.15-.46-.29-.72-.44l-.07,0-.23-.12c-.2-.11-.39-.2-.59-.29a2.46,2.46,0,0,0-.22-.51A3,3,0,0,0,18.3,2.44a2.67,2.67,0,0,0-1.39-.36,5.06,5.06,0,0,0-1.58.3,5.38,5.38,0,0,0-1.09.51h-.06l-.38,0h-.3l-.28,0a10.26,10.26,0,0,0-3.39.55,4.15,4.15,0,0,0-.5-1.06A1.64,1.64,0,0,0,8,1.44a1,1,0,0,0-.49.13A2.75,2.75,0,0,0,6.36,3L6.3,3a.54.54,0,0,0-.07.56.55.55,0,0,0,.46.28.58.58,0,0,0,.42-.2l0,0a.61.61,0,0,1,.39-.21.46.46,0,0,1,.23.08,1.59,1.59,0,0,1,.54.62l-.44.27A2.39,2.39,0,0,0,6.37,5.48a2.13,2.13,0,0,0-.16.25A8.85,8.85,0,0,0,4.44,8.28c-.06.13-.12.27-.17.4l0,.06a1.14,1.14,0,0,0-.15.36v0a10.26,10.26,0,0,0-.92,4v.2a9.55,9.55,0,0,0,.84,4,9.82,9.82,0,0,0,.8,1.44A11,11,0,0,0,3.16,21.2a11.3,11.3,0,0,0-.52,1.21,13.38,13.38,0,0,0-1.2,5.36v.3a13.6,13.6,0,0,0,.47,3.57c.11.37.23.76.37,1.13a9,9,0,0,0,.41.94c0,.1.09.19.13.28.15.29.3.55.44.79l.16.24a5.72,5.72,0,0,0,.32.48l.11.14a9.2,9.2,0,0,0,.9,1.07,11.73,11.73,0,0,0,8.59,3.6h.44a14.78,14.78,0,0,0,5.73-1.06,13.28,13.28,0,0,0,4.27-2.81,11.6,11.6,0,0,0,2.66-4,12.79,12.79,0,0,0,.87-4.58,12.12,12.12,0,0,0-1.37-5.56,11.68,11.68,0,0,0-2.41-3.18,9.21,9.21,0,0,0,1.14-1.9A10.21,10.21,0,0,0,25.58,13ZM15,12.71a3.35,3.35,0,0,1,.09.79,3.47,3.47,0,0,1-.13,1,1.62,1.62,0,0,1-.71.69l-.11-.23,0-.18a2.72,2.72,0,0,1-.14-.89,3.14,3.14,0,0,1,.39-1.53A1.81,1.81,0,0,0,15,12.71ZM14,25.57a1.15,1.15,0,0,1,.4-.44s.1-.08.31-.08a1.29,1.29,0,0,1,.29,0l.15.05a.72.72,0,0,1,.19.15.94.94,0,0,1,.1.14,3.44,3.44,0,0,1,.51,1.86,4.45,4.45,0,0,1-.14,1.08l-.18.28a3.18,3.18,0,0,1-.95.88,1.81,1.81,0,0,1-.57.24l-.05,0a.56.56,0,0,1-.18-.21,3.56,3.56,0,0,1-.17-.34l-.05-.13a3.65,3.65,0,0,1-.23-1.33,4.91,4.91,0,0,1,.15-1.19A4,4,0,0,1,14,25.57Z"/><path class="cls-3" d="M25.1,13a9.48,9.48,0,0,0-.67-3.51,8.61,8.61,0,0,0-2.1-3.11,7.86,7.86,0,0,0-1.09-.88L21.1,5.4,21,5.32c-.22-.14-.45-.28-.72-.43l-.07,0A1.39,1.39,0,0,0,20,4.74a10.13,10.13,0,0,0-1.07-.5,13.43,13.43,0,0,0-4.73-.87A10.75,10.75,0,0,0,6.75,6.23,9.89,9.89,0,0,0,4.52,9.32a9.77,9.77,0,0,0-.87,3.84v.2a9.3,9.3,0,0,0,.79,3.8A10.15,10.15,0,0,0,5.56,19a11.89,11.89,0,0,0-2.3,3.17,12.8,12.8,0,0,0-1.34,5.56v.3a13.09,13.09,0,0,0,.46,3.44c.1.36.22.73.35,1.09s.24.58.39.91c0,.09.09.17.13.26.14.28.28.53.42.76l.15.23c.1.16.2.31.31.46a1.47,1.47,0,0,0,.1.13,10.63,10.63,0,0,0,.86,1A11.64,11.64,0,0,0,8.7,38.89a11.38,11.38,0,0,0,4.64.94h.44a14.3,14.3,0,0,0,5.55-1,12.82,12.82,0,0,0,4.11-2.7A11.28,11.28,0,0,0,26,32.22a12.23,12.23,0,0,0,.84-4.4,11.78,11.78,0,0,0-1.32-5.35,11.33,11.33,0,0,0-2.64-3.34A8.86,8.86,0,0,0,24.23,17,9.58,9.58,0,0,0,25.1,13ZM14.77,11.54c.16,0,.25,0,.39.28a3.56,3.56,0,0,1,.39,1.68,3.92,3.92,0,0,1-.45,1.87c-.19.37-.36.39-.58.39h0c-.41,0-.52-.13-.62-.3s-.12-.24-.17-.36a.36.36,0,0,1,0-.11l0-.1a3.37,3.37,0,0,1-.16-1A3.57,3.57,0,0,1,13.94,12a.79.79,0,0,1,.78-.47ZM13.08,26.46a4.53,4.53,0,0,1,.46-1.14,1.75,1.75,0,0,1,.55-.59.93.93,0,0,1,.58-.16,2.58,2.58,0,0,1,.4,0l.24.09a.87.87,0,0,1,.31.23l0,0a1.15,1.15,0,0,1,.15.2,3.89,3.89,0,0,1,.58,2.11,4.92,4.92,0,0,1-.17,1.27,2.8,2.8,0,0,1-.45,1,2.24,2.24,0,0,1-.67.63,1.26,1.26,0,0,1-.31.13,2.09,2.09,0,0,1-.46,0,.92.92,0,0,1-.91-.52,3.6,3.6,0,0,1-.19-.39l-.06-.15a4.12,4.12,0,0,1-.27-1.5A5,5,0,0,1,13.08,26.46Z"/><path class="cls-4" d="M6.65,17.74A8.27,8.27,0,0,1,4.8,15.12a7.6,7.6,0,0,1-.67-3.21v-.19a8.22,8.22,0,0,1,.74-3.24,8.55,8.55,0,0,1,1.9-2.64A9.16,9.16,0,0,1,9.61,4a9.36,9.36,0,0,1,3.61-.67,11.9,11.9,0,0,1,4.19.77,9,9,0,0,1,3,1.85,7.21,7.21,0,0,1,1.75,2.59A8.05,8.05,0,0,1,22,15a7.91,7.91,0,0,1-2.22,2.89,10.17,10.17,0,0,1,4.69,8.54,10.39,10.39,0,0,1-.74,3.87,9.68,9.68,0,0,1-2.22,3.39A11.39,11.39,0,0,1,17.81,36a12.76,12.76,0,0,1-5,.91h-.44a9.78,9.78,0,0,1-7.21-3,9.45,9.45,0,0,1-2-3.28,11.27,11.27,0,0,1-.72-4v-.3a11.25,11.25,0,0,1,1.19-4.91A10.3,10.3,0,0,1,6.65,17.74Zm6.71,12.59a2.77,2.77,0,0,0,1.53-.4,3.75,3.75,0,0,0,1.09-1,4.39,4.39,0,0,0,.67-1.43,6.13,6.13,0,0,0,.22-1.65A5.34,5.34,0,0,0,16.08,23a2.62,2.62,0,0,0-2.37-1.28,2.43,2.43,0,0,0-1.38.39,3.19,3.19,0,0,0-1,1.07,6,6,0,0,0-.62,1.5,6.46,6.46,0,0,0-.22,1.68,5.36,5.36,0,0,0,.72,2.76A2.31,2.31,0,0,0,13.36,30.33ZM11,12.41a4.56,4.56,0,0,0,.6,2.32,2,2,0,0,0,1.87,1h.05a2,2,0,0,0,1.85-1.16A5.33,5.33,0,0,0,16,12.06a5.07,5.07,0,0,0-.54-2.34,1.79,1.79,0,0,0-1.68-1.07h-.05a2.21,2.21,0,0,0-2,1.19A4.94,4.94,0,0,0,11,12.41Z"/><path class="cls-5" d="M10.27,34.84h.45a12.71,12.71,0,0,0,5-.91,11.3,11.3,0,0,0,3.66-2.4,9.55,9.55,0,0,0,2.22-3.38,10.64,10.64,0,0,0,.74-3.87,10.2,10.2,0,0,0-1.16-4.69,8.7,8.7,0,0,0-.83-1.33l-.6-.42.15-.13a10.86,10.86,0,0,0-2.25-2,7.88,7.88,0,0,0,2.22-2.88A8.11,8.11,0,0,0,20,6.48a6.71,6.71,0,0,0-.69-1.33,9.68,9.68,0,0,0-1.92-1,11.9,11.9,0,0,0-4.19-.77A9.36,9.36,0,0,0,9.61,4a9.16,9.16,0,0,0-2.84,1.8,8.55,8.55,0,0,0-1.9,2.64,8.22,8.22,0,0,0-.74,3.24v.19a7.6,7.6,0,0,0,.67,3.21,8.27,8.27,0,0,0,1.85,2.62,10.3,10.3,0,0,0-3.06,3.68A11.25,11.25,0,0,0,2.4,26.33v.3a11.27,11.27,0,0,0,.72,4,9.82,9.82,0,0,0,1.22,2.29A10.59,10.59,0,0,0,6.23,34,9.82,9.82,0,0,0,10.27,34.84ZM9.63,7.74a2.22,2.22,0,0,1,2-1.19h.05a1.78,1.78,0,0,1,1.67,1.06,4.83,4.83,0,0,1,.39,1h0a1.79,1.79,0,0,1,1.68,1.07A5.07,5.07,0,0,1,16,12.06a5.33,5.33,0,0,1-.62,2.54,2,2,0,0,1-1.85,1.16h-.05a2,2,0,0,1-1.87-1,4.23,4.23,0,0,1-.44-1.08,2,2,0,0,1-1.67-1,4.63,4.63,0,0,1-.59-2.32A5,5,0,0,1,9.63,7.74Zm-1,14.81A5.84,5.84,0,0,1,9.24,21a3.23,3.23,0,0,1,1-1.06,2.49,2.49,0,0,1,1.39-.39A2.6,2.6,0,0,1,14,20.87a5.2,5.2,0,0,1,.43.89A2.56,2.56,0,0,1,16.08,23a5.34,5.34,0,0,1,.79,2.87,6.13,6.13,0,0,1-.22,1.65A4.39,4.39,0,0,1,16,28.92a3.84,3.84,0,0,1-1.08,1,2.83,2.83,0,0,1-1.54.4,2.31,2.31,0,0,1-2.14-1.24,5.24,5.24,0,0,1-.42-.9A2.31,2.31,0,0,1,9.11,27a5.45,5.45,0,0,1-.71-2.76A6.46,6.46,0,0,1,8.62,22.55Z"/><path class="cls-2" d="M9.58,5.27a6,6,0,0,0-3.48,7.8A.49.49,0,0,0,7,12.81a6.88,6.88,0,0,1,2.7-7.26c.13-.1,0-.32-.16-.28Z"/><path class="cls-2" d="M6.68,15a3.53,3.53,0,0,0,.9,1.88.32.32,0,0,0,.52-.31,7.21,7.21,0,0,0-1-1.76.25.25,0,0,0-.45.19Z"/><path class="cls-6" d="M10.9,11.64a2.77,2.77,0,0,0-.29,1.17,2,2,0,0,0,.62,1.42A3.31,3.31,0,0,1,10.9,11.64Z"/><path class="cls-7" d="M8.83,14.46s.07-.06.1,0a.38.38,0,0,0,.67-.17.56.56,0,0,0-.22-.55,4,4,0,0,0-.51-.38c-.23-.14-.62-.34-.66-.64s.37-.57.77-.71H8.65c-.31,0-1,0-1,.45s.43.65.7.81a4.76,4.76,0,0,1,.7.47.07.07,0,0,1,0,.09c-.36.39-.93,1.59-.2,1.92.52.23,1.07-.34,1.3-.82a1.58,1.58,0,0,1-1,.41C8.71,15.28,8.76,14.78,8.83,14.46Z"/><path class="cls-7" d="M10.34,13.52a2.56,2.56,0,0,1,.05-1.35A1.87,1.87,0,0,0,10,13.66a2.28,2.28,0,0,0,.65,1,1.86,1.86,0,0,0,.88.55A3.79,3.79,0,0,1,10.34,13.52Z"/><path d="M19.31,4.65v0l-.07-.18a5.34,5.34,0,0,0-.27-.7,2.76,2.76,0,0,0-.93-.9,3.09,3.09,0,0,0-2.56,0,5.35,5.35,0,0,0-2.22,1.46,8.14,8.14,0,0,0-.88,1.13,2.42,2.42,0,0,0-.45,1l.07.08h0l.09-.09a3.58,3.58,0,0,1,.26-.29l.18-.17h0a3.37,3.37,0,0,1,.75-.71h0c.31-.22.61-.47.94-.66s.65-.37,1-.57a5.22,5.22,0,0,1,.54-.24,2.33,2.33,0,0,1,.63-.16,7.45,7.45,0,0,1,1-.05,2.63,2.63,0,0,1,1.77,1.23Z"/><path class="cls-8" d="M18.75,4a2.73,2.73,0,0,0-.87-.51h-.06a3.85,3.85,0,0,0-1.55,0h-.05c-.1,0-.22,0-.32.08s-.21.1-.33.14A8.35,8.35,0,0,0,13.47,5a4.35,4.35,0,0,0-.42.33c-.16.18-.39.31-.53.5s-.24.23-.35.36a.83.83,0,0,1-.08.12L12,6.36a.68.68,0,0,1,0-.14h0a3.65,3.65,0,0,1,.61-1,7.72,7.72,0,0,1,.83-1,5.38,5.38,0,0,1,2.09-1.28A2.86,2.86,0,0,1,18,3a2.6,2.6,0,0,1,.83.82,2,2,0,0,1,.21.47Z"/><path d="M9.71,6.07a6.47,6.47,0,0,0-.78-3.43c-.24-.37-.68-.91-1.17-.65a2.38,2.38,0,0,0-1,1.24l-.09.11c0,.05,0,.09.05,0s0,0,0,0h0A.91.91,0,0,1,8,3.11a2.51,2.51,0,0,1,.82,1,9.72,9.72,0,0,1,.47,1l.18.55a1.91,1.91,0,0,0,.12.47s.05,0,.06,0S9.7,6.09,9.71,6.07Z"/><path class="cls-8" d="M9.47,5.4a6.38,6.38,0,0,0-.22-.66,4.86,4.86,0,0,0-.68-1.32,1.36,1.36,0,0,0-1.07-.6,1,1,0,0,0-.63.31c.28-.56.79-1.34,1.43-1a2.45,2.45,0,0,1,.82,1.15,9.75,9.75,0,0,1,.49,2.56v0A3.81,3.81,0,0,0,9.47,5.4Z"/><path d="M9.13,6.52A4,4,0,0,0,9,5.61a1.79,1.79,0,0,0-.25-.45l0,0a.87.87,0,0,0-.75-.25,2,2,0,0,0-1.17.88A3,3,0,0,0,6.54,9a1,1,0,0,0,1.23.39,2.05,2.05,0,0,0,1.07-1,2.85,2.85,0,0,0,.3-1A7.63,7.63,0,0,0,9.13,6.52Z"/><path class="cls-2" d="M9,7.89C8.7,8.78,7.56,10,6.7,9a2.76,2.76,0,0,1-.06-2.94A2.26,2.26,0,0,1,7.82,5a.77.77,0,0,1,.8.18c.46.5.45,1.94.46,1.93A3.61,3.61,0,0,1,9,7.89Z"/><path class="cls-9" d="M8.62,5.16A.77.77,0,0,0,7.82,5,1.88,1.88,0,0,0,7,5.54a1,1,0,0,1,1.52.51,4.21,4.21,0,0,1,0,2.28c-.06.2-.12.41-.2.61a2.59,2.59,0,0,0,.64-1,3.61,3.61,0,0,0,.13-.8S9.08,5.66,8.62,5.16Z"/><path d="M16.27,9.21h0a2.07,2.07,0,0,0,.23-.58,4.67,4.67,0,0,0,.08-1c0-.16,0-.32-.06-.49h0a3.8,3.8,0,0,0-.25-.83,2.64,2.64,0,0,0-.88-1.15,1.5,1.5,0,0,0-1-.28,1.14,1.14,0,0,0-.55.19,2.79,2.79,0,0,0-.9,1.14,3.16,3.16,0,0,0,.13,3.11,2,2,0,0,0,2.6.43A1.86,1.86,0,0,0,16.27,9.21Z"/><path class="cls-2" d="M15.58,9.71a1.91,1.91,0,0,1-2.48-.55,3,3,0,0,1-.2-2.65,3,3,0,0,1,.81-1.25A1.22,1.22,0,0,1,15,5.07a2.1,2.1,0,0,1,.44.29,2.93,2.93,0,0,1,.71,1,3.74,3.74,0,0,1,.21,2.43A1.89,1.89,0,0,1,15.58,9.71Z"/><path class="cls-9" d="M16.19,6.39a2.93,2.93,0,0,0-.71-1A2.1,2.1,0,0,0,15,5.07a1.22,1.22,0,0,0-1.33.19,3,3,0,0,0-.81,1.25,5.2,5.2,0,0,0-.17.73,3.24,3.24,0,0,1,.32-.87,1.68,1.68,0,0,1,1.1-1,1.3,1.3,0,0,1,1.26.47,4,4,0,0,1,.7,3A5.32,5.32,0,0,1,16,9.4a1.88,1.88,0,0,0,.4-.58A3.74,3.74,0,0,0,16.19,6.39Z"/><path class="cls-10" d="M10.09,9.82c0-.08-.38-.74-.37-.74A1,1,0,0,0,10,8.7,2,2,0,0,0,10.11,8c0-.23,0-.44,0-.66s-.09,0-.1,0-.05.21-.08.31a1.5,1.5,0,0,1-.24.45,0,0,0,0,1,0,0,1.57,1.57,0,0,1-1,.67l0,0L8.2,8.77a.75.75,0,0,0-.49.06c-.33.23-.26.59-.17.93a3.54,3.54,0,0,0,.65,1.3,1.29,1.29,0,0,0,1.22.54A1.38,1.38,0,0,0,10.09,9.82Z"/><path class="cls-7" d="M8.86,11.53a.06.06,0,0,1,0-.1c.05,0,.06,0,.12,0s.08,0,.07.09c.48.19.66-.55.59-1a2.06,2.06,0,0,0-1.43-1.3.06.06,0,0,1,0-.12,1.63,1.63,0,0,1,1.25.09A.89.89,0,0,0,9.12,9a.06.06,0,0,1,0-.09l.26-.39a1.35,1.35,0,0,1-.66.34l0,0L8.2,8.77a.75.75,0,0,0-.49.06c-.33.23-.26.59-.17.93a3.54,3.54,0,0,0,.65,1.3,1.62,1.62,0,0,0,.82.55Z"/><path class="cls-11" d="M8.71,7.44c0,.76-.54,1.35-1.11,1.32a1.24,1.24,0,0,1-1-1.42A1.25,1.25,0,0,1,7.73,6,1.25,1.25,0,0,1,8.71,7.44Z"/><path class="cls-12" d="M8.08,7.43c0,.45-.32.8-.66.78s-.6-.39-.58-.84.32-.81.66-.79A.75.75,0,0,1,8.08,7.43Z"/><path class="cls-2" d="M8.44,7c0,.28-.19.5-.39.49s-.36-.25-.34-.53.19-.5.39-.49S8.45,6.7,8.44,7Z"/><path class="cls-11" d="M15.56,7.64c0,.84-.59,1.49-1.23,1.46a1.39,1.39,0,0,1-1.08-1.58c0-.84.59-1.49,1.23-1.46A1.38,1.38,0,0,1,15.56,7.64Z"/><path class="cls-12" d="M14.87,7.62c0,.5-.35.89-.74.87s-.66-.44-.64-.94.35-.89.74-.87S14.89,7.12,14.87,7.62Z"/><path class="cls-2" d="M15.26,7.12c0,.31-.21.55-.43.54s-.39-.27-.38-.58.21-.55.44-.54S15.28,6.81,15.26,7.12Z"/><path d="M10,7.3s0,0,0,0A1.87,1.87,0,0,1,8.51,8.77c-.54-.12-1.13-.12-1.14.5a2.89,2.89,0,0,0,.54,1.45A2,2,0,0,0,9,11.61s.1-.08.06-.1A2.77,2.77,0,0,1,7.61,9.82a1.32,1.32,0,0,1-.1-.68c0-.32.36-.31.6-.28a8,8,0,0,1,1,.15s.08-.06,0-.07l-.43-.12A1.89,1.89,0,0,0,10,7.3Z"/><path d="M9.57,14A5.15,5.15,0,0,0,9,13.56c-.39-.33-.9-.57-1.14-1s1.38-.43,1.54-.43,0,0,0,0c-.33,0-2-.07-1.62.65.23.42.75.67,1.11.95.06.05.27.19.43.33-.1.16-.28.4-.21.59h0a.74.74,0,0,0,.48-.31C9.69,14.17,9.64,14.12,9.57,14Z"/><path class="cls-2" d="M9.46,14.36s-.33.23-.22,0A1.82,1.82,0,0,1,9.4,14C9.51,14.16,9.57,14.28,9.46,14.36Z"/><path d="M10.09,15c-.3.39-.64.77-1.18.64s-.27-1.07,0-1.42c0,0,0,0,0,0-.28.4-.67,1.21-.07,1.52s1.09-.27,1.38-.67C10.19,15,10.13,14.92,10.09,15Z"/><path d="M11.57,15.11a2.67,2.67,0,0,1-1.33-1.81,2.76,2.76,0,0,1,.16-1.24,3.62,3.62,0,0,1,.53-.88s0-.07,0,0a2.89,2.89,0,0,0-.76,1.91,2.24,2.24,0,0,0,.37,1.26,2.75,2.75,0,0,0,1,.86S11.6,15.13,11.57,15.11Z"/><path class="cls-13" d="M18.33,10.39c-.2-.74-1.26-1.08-2.37-.78s-1.83,1.15-1.63,1.89,1.26,1.08,2.37.77S18.54,11.12,18.33,10.39Zm-3,.44c0,.11-.14.22-.26.22a.23.23,0,0,1-.23-.14.42.42,0,0,1,.29-.58.07.07,0,0,1,.09,0,.24.24,0,0,1,.14.09A.38.38,0,0,1,15.29,10.83Zm.11-.73h0c-.07-.08,0-.19.11-.12a.2.2,0,0,1,0,.08C15.58,10.15,15.43,10.2,15.4,10.1Z"/><path class="cls-14" d="M6.89,11.13c.42-.38.28-1.21-.3-1.84s-1.4-.83-1.82-.44-.29,1.21.3,1.84S6.47,11.52,6.89,11.13ZM5.54,9.26a.25.25,0,0,1-.23-.1.18.18,0,0,1,0-.2.32.32,0,0,1,.49,0,.05.05,0,0,1,0,.08.13.13,0,0,1,0,.12C5.76,9.24,5.64,9.26,5.54,9.26Zm.53-.18h0c0-.07.14,0,.12,0l0,.06C6.1,9.22,6,9.13,6.07,9.08Z"/></g></g></g></svg>