<svg xmlns="http://www.w3.org/2000/svg" xmlns:xlink="http://www.w3.org/1999/xlink" viewBox="0 0 26.92 44.96"><defs><style>.cls-1{isolation:isolate;}.cls-2{fill:#fff;}.cls-3{fill:#653624;}.cls-4{fill:url(#linear-gradient);}.cls-5{fill:url(#linear-gradient-2);}.cls-6{fill:#f3d1bb;}.cls-10,.cls-14,.cls-15,.cls-6,.cls-8{mix-blend-mode:multiply;}.cls-7{fill:#eaeaea;}.cls-8{fill:#e2e3e4;}.cls-10,.cls-9{fill:#aa2d2d;}.cls-11{fill:#f26a60;}.cls-12{fill:#974d34;}.cls-13{fill:#440900;}.cls-14,.cls-15{opacity:0.6;}.cls-14{fill:url(#linear-gradient-3);}.cls-15{fill:url(#linear-gradient-4);}</style><linearGradient id="linear-gradient" x1="12.5" y1="40.15" x2="12.5" y2="6.92" gradientUnits="userSpaceOnUse"><stop offset="0" stop-color="#ffe050"/><stop offset="1" stop-color="#fcca2e"/></linearGradient><linearGradient id="linear-gradient-2" x1="11.45" y1="6.92" x2="11.45" y2="37.85" xlink:href="#linear-gradient"/><linearGradient id="linear-gradient-3" x1="444.28" y1="-61.19" x2="443.77" y2="-62.97" gradientTransform="matrix(-0.97, -0.25, -0.25, 0.97, 425.41, 179.57)" gradientUnits="userSpaceOnUse"><stop offset="0" stop-color="#fff"/><stop offset="1" stop-color="#ea9c9e"/></linearGradient><linearGradient id="linear-gradient-4" x1="828.69" y1="-143.2" x2="828.04" y2="-145.44" gradientTransform="matrix(-0.9, -0.44, -0.44, 0.9, 699.41, 504.13)" xlink:href="#linear-gradient-3"/></defs><g class="cls-1"><g id="Layer_2" data-name="Layer 2"><g id="Layer_1-2" data-name="Layer 1"><path class="cls-2" d="M2,31.81a2,2,0,0,0-.3.74,3.38,3.38,0,0,0-.33,2.89L3.84,42.7A3.37,3.37,0,0,0,7,45l.39,0a20.89,20.89,0,0,0,8.78-3,21.39,21.39,0,0,0,6.11-5.7,24.22,24.22,0,0,0,3.5-7.21,26.64,26.64,0,0,0,1.12-7.56,23.44,23.44,0,0,0-.72-5.85,17.29,17.29,0,0,0-2.29-5.24,13.52,13.52,0,0,0-2-2.36,2.87,2.87,0,0,0-.82-.68l-.2-.16h0a5.23,5.23,0,0,0-.37-1.54v0a2,2,0,0,0,.12-1.17A4,4,0,0,0,20,3a3.57,3.57,0,0,0-1.58-1.39,3.16,3.16,0,0,0-1.21-.25,2.85,2.85,0,0,0-1.41.37,3.35,3.35,0,0,0-.68.51A4.14,4.14,0,0,0,11.78,0h-.14A3.8,3.8,0,0,0,8.09,2.85a2,2,0,0,0,.59,2.06L8.83,5h0a5.42,5.42,0,0,0,0,.57,9.72,9.72,0,0,0-1.51.66A12,12,0,0,0,3.48,9.49a13.39,13.39,0,0,0-2,3.54,16.59,16.59,0,0,0-.74,2A18.58,18.58,0,0,0,0,20.31,17.72,17.72,0,0,0,.61,25a15.32,15.32,0,0,0,1.93,4.37c.16.24.32.47.5.71l.13.16c.2.26.4.51.62.76H3.47A1.93,1.93,0,0,0,2,31.81Z"/><path d="M2.68,35,5.2,42.22A1.93,1.93,0,0,0,7,43.52l.22,0a19.26,19.26,0,0,0,8.18-2.75,19.77,19.77,0,0,0,5.7-5.32,22.77,22.77,0,0,0,3.3-6.77,25.72,25.72,0,0,0,1.06-7.16A22,22,0,0,0,24.8,16a15.31,15.31,0,0,0-2.09-4.79A11.31,11.31,0,0,0,20.81,9a1.49,1.49,0,0,0-.57-.47l0,0-.13-.11L19.9,8.3a6.25,6.25,0,0,0-.53-.36,1.82,1.82,0,0,0,0-.62,4.5,4.5,0,0,0-.49-1.62l-.17-.33a.49.49,0,0,0,.3-.14.27.27,0,0,0,.07-.08l0-.08a.53.53,0,0,0,0-.35,2.58,2.58,0,0,0-.4-1,2,2,0,0,0-.93-.8,1.64,1.64,0,0,0-.62-.13,1.4,1.4,0,0,0-.7.18,1.83,1.83,0,0,0-.81,1,.48.48,0,0,0,.17.57L16,4.6a.46.46,0,0,0,.23.06,1.38,1.38,0,0,0-.22.26,2.77,2.77,0,0,0-.22.46,2.89,2.89,0,0,0-.17.93c0,.08,0,.16,0,.25a11.55,11.55,0,0,0-1.32-.11,1.77,1.77,0,0,0,0-.23,5,5,0,0,0-.53-1.75A4.63,4.63,0,0,0,13.53,4h.13A.53.53,0,0,0,13.93,4l.05,0a.41.41,0,0,0,.1-.13.36.36,0,0,0,.07-.17.53.53,0,0,0-.09-.41,2.85,2.85,0,0,0-2.32-1.79h-.1A2.42,2.42,0,0,0,9.46,3.29a.54.54,0,0,0,.17.53l.12.08A.55.55,0,0,0,10,4h0a.48.48,0,0,0,.35-.19,2,2,0,0,1,.68-.56,1.71,1.71,0,0,0-.61.89,3.11,3.11,0,0,0-.19,1,3.6,3.6,0,0,0,.24,1.54A9,9,0,0,0,8,7.54a10.58,10.58,0,0,0-3.38,2.84,11.69,11.69,0,0,0-1.76,3.2,13.44,13.44,0,0,0-.69,1.81,17.19,17.19,0,0,0-.73,4.92A16.65,16.65,0,0,0,2,24.59a13.76,13.76,0,0,0,1.75,3.95c.14.22.29.43.44.64a.73.73,0,0,0,.09.09,11.85,11.85,0,0,0,2.46,2.44l.12.09a10.42,10.42,0,0,1-3.34.61.48.48,0,0,0-.44.63l-.17.21A2,2,0,0,0,2.68,35ZM14.47,16.68a5.69,5.69,0,0,1,.36,1.2A8.59,8.59,0,0,1,15,19.43a10.73,10.73,0,0,1-.16,1.79c-.06.27-.12.54-.2.8a3.78,3.78,0,0,1-.74,1,1.05,1.05,0,0,1-.27.2,1.92,1.92,0,0,1-.25-.38A4.88,4.88,0,0,1,13,21.69a8.9,8.9,0,0,1-.14-1.57A9.12,9.12,0,0,1,13,18.4a5,5,0,0,1,.43-1.33,2.31,2.31,0,0,1,.57-.74.25.25,0,0,1,.18-.07h0A1.31,1.31,0,0,1,14.47,16.68Z"/><path class="cls-3" d="M24,28.52a24.69,24.69,0,0,0,1.05-7,21.53,21.53,0,0,0-.66-5.37,14.82,14.82,0,0,0-2-4.64,10.88,10.88,0,0,0-2.57-2.71l-.12-.09a8.12,8.12,0,0,0-.75-.5A9.32,9.32,0,0,0,14,6.92h-.4A10.7,10.7,0,0,0,8.51,8.13a11.68,11.68,0,0,0-3.69,3.1,13,13,0,0,0-2.19,4.3,16.57,16.57,0,0,0-.71,4.78,16.08,16.08,0,0,0,.55,4.15,13.11,13.11,0,0,0,1.68,3.82c.14.21.28.41.43.61l.08.09A11.73,11.73,0,0,0,7,31.33l.24.16.11.08.21.13.06,0,.46.28,0,0-.08,0-.34.17a9.17,9.17,0,0,1-3.28.65,1.44,1.44,0,0,0-1.31,1.92l2.52,7.26A1.44,1.44,0,0,0,7,43h.16a19.15,19.15,0,0,0,8-2.68,19.51,19.51,0,0,0,5.56-5.2A22.16,22.16,0,0,0,24,28.52ZM14,23.9h-.09a.63.63,0,0,1-.42-.14,2.05,2.05,0,0,1-.54-.69,5.22,5.22,0,0,1-.41-1.3,9,9,0,0,1-.15-1.66,10.08,10.08,0,0,1,.17-1.81A5.45,5.45,0,0,1,13,16.85,2.87,2.87,0,0,1,13.7,16a.79.79,0,0,1,.53-.18h0l.1,0h.06l.07,0,0,0a1.78,1.78,0,0,1,.43.62,5.77,5.77,0,0,1,.39,1.31,8.7,8.7,0,0,1,.15,1.64,10.77,10.77,0,0,1-.17,1.88,6.56,6.56,0,0,1-.48,1.55,3.28,3.28,0,0,1-.63.93A.4.4,0,0,1,14,23.9Z"/><path class="cls-4" d="M12.67,6.92h.4A7.86,7.86,0,0,1,17.17,8a9.23,9.23,0,0,1,3,2.86A13.37,13.37,0,0,1,22,15.05a20,20,0,0,1,.62,5,23.29,23.29,0,0,1-1,6.61,20.61,20.61,0,0,1-3,6.2,18,18,0,0,1-5.16,4.81,17.4,17.4,0,0,1-7.38,2.47L3.54,32.89a9.83,9.83,0,0,0,4.25-1,22.72,22.72,0,0,0,2.66-1.63,9.29,9.29,0,0,1-3.53-1.56A10.45,10.45,0,0,1,4.4,26.06a12,12,0,0,1-1.5-3.41,14.58,14.58,0,0,1-.5-3.78,15.12,15.12,0,0,1,.65-4.37,11.24,11.24,0,0,1,2-3.82A10.13,10.13,0,0,1,8.23,8,9.21,9.21,0,0,1,12.67,6.92ZM10,18.67a10.19,10.19,0,0,0,.17,1.93,6.76,6.76,0,0,0,.54,1.68,3.39,3.39,0,0,0,.94,1.18,2.06,2.06,0,0,0,1.31.45,1.82,1.82,0,0,0,1.28-.52A4.37,4.37,0,0,0,15.14,22a7.84,7.84,0,0,0,.59-1.9,11,11,0,0,0,.2-2.15,10.74,10.74,0,0,0-.17-1.9,7.82,7.82,0,0,0-.49-1.63,3.27,3.27,0,0,0-.82-1.13,1.76,1.76,0,0,0-1.18-.42,2.18,2.18,0,0,0-1.46.52,4.25,4.25,0,0,0-1,1.33,6.7,6.7,0,0,0-.61,1.85A10.37,10.37,0,0,0,10,18.67Z"/><path class="cls-5" d="M16.49,30.77a20.75,20.75,0,0,0,3-6.2,23.65,23.65,0,0,0,1-6.62,20.11,20.11,0,0,0-.61-5,13.65,13.65,0,0,0-1.83-4.19l-.23-.33c-.21-.15-.43-.3-.65-.43a7.86,7.86,0,0,0-4.1-1.07h-.4A9.21,9.21,0,0,0,8.23,8,10.13,10.13,0,0,0,5,10.68,11.24,11.24,0,0,0,3.05,14.5a15.12,15.12,0,0,0-.65,4.37,14.58,14.58,0,0,0,.5,3.78,12,12,0,0,0,1.5,3.41c.12.18.25.35.37.52l.05,0a9.06,9.06,0,0,0,3.53,1.55c-.32.24-.7.5-1.13.76a9.36,9.36,0,0,0,3.23,1.35,22.72,22.72,0,0,1-2.66,1.63,9.83,9.83,0,0,1-4.25,1l1.72,5a16.9,16.9,0,0,0,6.08-2.27A18.13,18.13,0,0,0,16.49,30.77Zm-7-9.41a3.48,3.48,0,0,1-.94-1.18A6.13,6.13,0,0,1,8,18.5a10.27,10.27,0,0,1-.18-1.93,11.17,11.17,0,0,1,.2-2.07,6.71,6.71,0,0,1,.62-1.85,4.15,4.15,0,0,1,1-1.34,2.2,2.2,0,0,1,1.45-.52,1.84,1.84,0,0,1,1.19.42,3.08,3.08,0,0,1,.81,1.14,4.48,4.48,0,0,1,.21.55,1.72,1.72,0,0,1,1.08.42,3.27,3.27,0,0,1,.82,1.13,7.82,7.82,0,0,1,.49,1.63,10.74,10.74,0,0,1,.17,1.9,11,11,0,0,1-.2,2.15,7.84,7.84,0,0,1-.59,1.9,4.37,4.37,0,0,1-.94,1.36,1.77,1.77,0,0,1-1.28.52,2.06,2.06,0,0,1-1.31-.45,3.39,3.39,0,0,1-.94-1.18,4.4,4.4,0,0,1-.21-.5A2.09,2.09,0,0,1,9.51,21.36Z"/><path class="cls-2" d="M6.71,10.13C4,14.14,1.53,20.85,5.31,25c.43.47,1.11-.13.85-.65a11.82,11.82,0,0,1-1.29-6.7c.27-2.58,1.3-5,2.05-7.46,0-.13-.14-.19-.21-.09Z"/><path class="cls-2" d="M6.46,26.25a2,2,0,0,0,.65,1c.3.25.86.55,1.23.27a.44.44,0,0,0,.11-.58A1.12,1.12,0,0,0,8,26.58a1.62,1.62,0,0,1-.69-.68.46.46,0,0,0-.83.35Z"/><path class="cls-6" d="M16.47,8.57c-.07.53-.29,1.2-.77,1.38-.8.31-1-.89-.74-1.44A.89.89,0,0,0,16.47,8.57Z"/><path d="M16.17,4.12a1.4,1.4,0,0,1,.59-.76,1.05,1.05,0,0,1,.9,0,1.57,1.57,0,0,1,.71.61,2.2,2.2,0,0,1,.34.89v0s0,0,0,0h0s0,0,0,0v0a1.85,1.85,0,0,0-1.09-1,1.16,1.16,0,0,0-1.33.28Z"/><path d="M17.58,3.8a1.82,1.82,0,0,1,1.08.93,2.33,2.33,0,0,0-.31-.7,1.43,1.43,0,0,0-.75-.62,1,1,0,0,0-.84.09,1,1,0,0,0-.4.44A1.31,1.31,0,0,1,17.58,3.8Z"/><path d="M10,3.47h0l0,0a1.92,1.92,0,0,1,1.8-1.52,2.42,2.42,0,0,1,1.93,1.57l0,0a0,0,0,0,1,0,0s0,0,0,0v0a2.56,2.56,0,0,0-1.9-1A2.42,2.42,0,0,0,10,3.49,0,0,0,0,0,10,3.47Z"/><path d="M10.71,2.74a2.1,2.1,0,0,1,1.06-.3,2.46,2.46,0,0,1,1.77.92A2.3,2.3,0,0,0,11.67,2a1.64,1.64,0,0,0-1.16.55,1.89,1.89,0,0,0-.41.64A2.53,2.53,0,0,1,10.71,2.74Z"/><path d="M16.26,5.55a1.81,1.81,0,0,1,.18-.37.88.88,0,0,1,1.13-.38,2.31,2.31,0,0,1,.92,1.12,4.09,4.09,0,0,1,.45,1.45,1.09,1.09,0,0,1-.45,1.07,1.61,1.61,0,0,1-2.17-.86,2.71,2.71,0,0,1-.2-1.23A2.69,2.69,0,0,1,16.26,5.55Z"/><path class="cls-7" d="M16.35,7.52a1.48,1.48,0,0,0,1,.93,1.42,1.42,0,0,0,1.07-.09,1.06,1.06,0,0,0,.41-1.13A3.69,3.69,0,0,0,18.48,6a2.76,2.76,0,0,0-.86-1.11.77.77,0,0,0-1,.16,2.34,2.34,0,0,0-.37.72,1.63,1.63,0,0,0-.07.3h0a.09.09,0,0,1,0,0c0,.25,0,.51,0,.77A3,3,0,0,0,16.35,7.52Z"/><path class="cls-8" d="M16.56,5.19a1.69,1.69,0,0,0-.12.55,2.78,2.78,0,0,0,.48,1.9c.32.42,1,.93,1.53.61a1,1,0,0,0,.4-.48.81.81,0,0,1-.4.59,1.42,1.42,0,0,1-1.07.09,1.48,1.48,0,0,1-1-.93,3,3,0,0,1-.15-.61c0-.26,0-.52,0-.77a.09.09,0,0,0,0,0h0a1.63,1.63,0,0,1,.07-.3A2.46,2.46,0,0,1,16.56,5.19Z"/><path d="M10.91,4.28a1.33,1.33,0,0,1,.19-.4,1,1,0,0,1,1.23-.42,2.57,2.57,0,0,1,1,1.22,4.6,4.6,0,0,1,.48,1.58,1.19,1.19,0,0,1-.48,1.17,1.63,1.63,0,0,1-1.4,0,1.67,1.67,0,0,1-1-1,2.94,2.94,0,0,1-.22-1.35A2.85,2.85,0,0,1,10.91,4.28Z"/><path class="cls-7" d="M11,6.43a1.62,1.62,0,0,0,1.13,1,1.55,1.55,0,0,0,1.16-.09,1.18,1.18,0,0,0,.45-1.24,3.9,3.9,0,0,0-.42-1.33,2.89,2.89,0,0,0-.93-1.2.83.83,0,0,0-1.06.17,2.4,2.4,0,0,0-.4.78,2,2,0,0,0-.08.33h0a.13.13,0,0,1,0,.06,7.66,7.66,0,0,0,0,.83A4.68,4.68,0,0,0,11,6.43Z"/><path class="cls-8" d="M11.21,3.91a2,2,0,0,0-.2.78,2.82,2.82,0,0,0,.48,2,1.6,1.6,0,0,0,1.78.53.79.79,0,0,0,.43-.39.85.85,0,0,1-.41.54,1.55,1.55,0,0,1-1.16.09,1.62,1.62,0,0,1-1.13-1,4.68,4.68,0,0,1-.16-.67,7.66,7.66,0,0,1,0-.83.13.13,0,0,0,0-.06h0a2,2,0,0,1,.08-.33A2.67,2.67,0,0,1,11.21,3.91Z"/><path d="M14.92,8.4A1,1,0,0,1,15.45,8a3.43,3.43,0,0,1-.19-.44s0,0,0,0A2.89,2.89,0,0,0,15.5,8h0a2.33,2.33,0,0,1,.36-.08.53.53,0,0,1,.65.35,1.42,1.42,0,0,1-.13.88,2.07,2.07,0,0,1-.88,1s-.06,0,0-.05a5.22,5.22,0,0,0,.66-.67,1.92,1.92,0,0,0,.33-.87.53.53,0,0,0-.07-.39C16.27,8,16,8,15.82,8a1.29,1.29,0,0,0-.86.4S14.91,8.42,14.92,8.4Z"/><path d="M10.17,9.16A1.11,1.11,0,0,1,11.53,9,6.25,6.25,0,0,1,13,10.27a5.06,5.06,0,0,0,1.74,1.23,3.83,3.83,0,0,0,1,.2,2.13,2.13,0,0,1,.83.22.45.45,0,0,1,.19.27,2.05,2.05,0,0,1-.3.87,2.2,2.2,0,0,1-.15.26,2.11,2.11,0,0,1-.19.23,1.24,1.24,0,0,1-.92.47,1.73,1.73,0,0,1-.44-.14l-.41-.2a2.09,2.09,0,0,0-.86-.12c-.27,0-.54,0-.81.08a4.55,4.55,0,0,1-1.33-.19l-.2-.08a3.12,3.12,0,0,1-1.3-1,2.1,2.1,0,0,1-.35-1.6A3.09,3.09,0,0,1,10.17,9.16Z"/><path class="cls-9" d="M9.55,11a2.07,2.07,0,0,0,.87,1.9,3.63,3.63,0,0,0,1.88.7c.32,0,.63-.05.95-.08a2.53,2.53,0,0,1,1.28.17,1.32,1.32,0,0,0,.81.23,1.39,1.39,0,0,0,.65-.38,2.48,2.48,0,0,0,.67-1.12.42.42,0,0,0-.27-.47,3.86,3.86,0,0,0-1-.16A3.43,3.43,0,0,1,13.75,11c-.54-.44-1-1-1.51-1.41S11,8.68,10.39,9.12A2.65,2.65,0,0,0,9.55,11Z"/><path class="cls-7" d="M12.5,13.21c.14-.29.33-.71.66-.83s1,.34,1.31.59a2.14,2.14,0,0,1,.55.53.45.45,0,0,1,.06.4,2.58,2.58,0,0,1-.55-.23,2.53,2.53,0,0,0-1.28-.17l-.91.08C12.39,13.45,12.44,13.33,12.5,13.21Z"/><path class="cls-10" d="M10,10.24c.34.37-.13.78-.09,1.19,0,.24.32.58.55.32a.53.53,0,0,0,.11-.5c-.05-.21-.2-.49,0-.68.33-.37.92,0,1.1.37a1.26,1.26,0,0,1,.1,1A2.69,2.69,0,0,1,11,13.21a2.62,2.62,0,0,1-.53-.33A2.07,2.07,0,0,1,9.55,11a4.27,4.27,0,0,1,.18-.86A.37.37,0,0,1,10,10.24Z"/><path class="cls-7" d="M16,11.88c-.44.6-1.27.38-1.85.12a7.9,7.9,0,0,1-1.9-1.22,3.82,3.82,0,0,1-.32-.27,1.81,1.81,0,0,1-.24-.24.32.32,0,0,1,0-.34c0-.09.1-.23,0-.32a.41.41,0,0,0-.35-.13c-.18,0-.25.31-.46.21a1.56,1.56,0,0,1-.46-.35l-.11-.12a.4.4,0,0,1,.12-.1c.63-.44,1.34,0,1.85.45s1,1,1.51,1.41a3.43,3.43,0,0,0,1.69.79l.54.06Z"/><path class="cls-11" d="M12.15,12.09a5.18,5.18,0,0,1,1.31.71,2.41,2.41,0,0,1,.73.76,2.67,2.67,0,0,0-.94-.06c-.32,0-.63.07-.95.08a3.63,3.63,0,0,1-1.88-.7,2.53,2.53,0,0,1-.57-.61A2.58,2.58,0,0,1,12.15,12.09Z"/><path class="cls-12" d="M11.9,6.68A1,1,0,0,0,13,7.44a1,1,0,0,0,.44-1.27,1,1,0,0,0-1.11-.76A1,1,0,0,0,11.9,6.68Z"/><path class="cls-13" d="M12.3,7a.58.58,0,0,0,.66.46.59.59,0,0,0,.26-.76c-.11-.33-.41-.54-.66-.45A.56.56,0,0,0,12.3,7Z"/><path class="cls-7" d="M12,6.55c.07.21.25.34.4.29s.21-.26.15-.46-.25-.34-.4-.29S11.92,6.35,12,6.55Z"/><path class="cls-12" d="M17.12,7.67a1,1,0,0,0,1.11.76,1,1,0,0,0,.44-1.27,1,1,0,0,0-1.11-.76A1,1,0,0,0,17.12,7.67Z"/><path class="cls-13" d="M17.52,8a.58.58,0,0,0,.66.45.57.57,0,0,0,.27-.76.58.58,0,0,0-.66-.45A.57.57,0,0,0,17.52,8Z"/><path class="cls-7" d="M17.21,7.5c.07.21.25.34.4.29a.35.35,0,0,0,.14-.46c-.07-.21-.24-.34-.39-.29A.35.35,0,0,0,17.21,7.5Z"/><path class="cls-14" d="M10,7.49c.23-.43.93-.49,1.57-.15s1,1,.74,1.39-.93.49-1.57.15S9.77,7.91,10,7.49Zm1.81.7c0,.07,0,.15.13.17a.17.17,0,0,0,.16-.06A.26.26,0,0,0,12,7.91a0,0,0,0,0-.07,0l-.09,0A.23.23,0,0,0,11.81,8.19Zm0-.47h0c.05,0,0-.13-.06-.09l0,0C11.73,7.73,11.81,7.78,11.84,7.72Z"/><path class="cls-15" d="M17.93,9.72c0-.49.58-.88,1.3-.89s1.32.38,1.32.86-.58.88-1.3.89S17.93,10.2,17.93,9.72Zm1.92-.26a.22.22,0,0,0,.2.08.14.14,0,0,0,.11-.12c0-.18-.11-.29-.27-.31a0,0,0,0,0-.05.05.12.12,0,0,0-.07.07A.29.29,0,0,0,19.85,9.46ZM19.66,9h0c0-.06-.06-.11-.09,0a.07.07,0,0,0,0,0A.05.05,0,0,0,19.66,9Z"/></g></g></g></svg>